<svg xmlns="http://www.w3.org/2000/svg" viewBox="0 0 600 500" role="img" aria-label="Chain component library — KHE 2027 Hack the Kingdom">

  <!-- ================================================================
       CHAIN COMPONENT LIBRARY — KHE 2027 "Hack the Kingdom"
       Symbol library + demo sheet

       SYMBOLS:
         chain-link-h    — single horizontal link  (40×20)
         chain-link-v    — single vertical link    (20×40)
         chain-segment-h — 5-link horizontal chain (200×40)
         chain-segment-v — 5-link vertical chain   (40×200)
         chain-loop      — closed 4-link loop      (60×60)
         chain-hook      — S/J iron hook           (30×60)
         chain-wall-mount— wall anchor bracket     (50×40)

       ANIMATION HINTS:
         Each link has class="chain-link"

       COLOR PALETTE:
         Iron dark:    #1e1e28
         Iron mid:     #2e2e3c
         Iron light:   #4a4a5c
         Iron sheen:   #6b6b80
         Rust accent:  #5a3520
         Outline:      #1e1e28
  ================================================================ -->

  <defs>

    <!-- ============================================================
         GRADIENTS & FILTERS (shared)
    ============================================================ -->

    <!-- Horizontal link gradient — top highlight to bottom shadow -->
    <linearGradient id="link-grad-h" x1="0%" y1="0%" x2="0%" y2="100%">
      <stop offset="0%"   stop-color="#6b6b80"/>
      <stop offset="30%"  stop-color="#4a4a5c"/>
      <stop offset="65%"  stop-color="#2e2e3c"/>
      <stop offset="100%" stop-color="#1e1e28"/>
    </linearGradient>

    <!-- Vertical link gradient — left highlight to right shadow -->
    <linearGradient id="link-grad-v" x1="0%" y1="0%" x2="100%" y2="0%">
      <stop offset="0%"   stop-color="#6b6b80"/>
      <stop offset="30%"  stop-color="#4a4a5c"/>
      <stop offset="65%"  stop-color="#2e2e3c"/>
      <stop offset="100%" stop-color="#1e1e28"/>
    </linearGradient>

    <!-- Hook gradient — angled sheen -->
    <linearGradient id="hook-grad" x1="0%" y1="0%" x2="100%" y2="100%">
      <stop offset="0%"   stop-color="#6b6b80"/>
      <stop offset="40%"  stop-color="#4a4a5c"/>
      <stop offset="100%" stop-color="#1e1e28"/>
    </linearGradient>

    <!-- Wall mount gradient -->
    <linearGradient id="mount-grad" x1="0%" y1="0%" x2="0%" y2="100%">
      <stop offset="0%"   stop-color="#4a4a5c"/>
      <stop offset="100%" stop-color="#1e1e28"/>
    </linearGradient>

    <!-- Subtle drop shadow filter for individual links -->
    <filter id="link-shadow" x="-15%" y="-15%" width="130%" height="130%">
      <feDropShadow dx="0" dy="1.5" stdDeviation="1.2" flood-color="#000000" flood-opacity="0.5"/>
    </filter>

    <!-- Clip path for horizontal link inner hole -->
    <clipPath id="clip-link-h-inner">
      <rect x="0" y="0" width="40" height="20"/>
    </clipPath>

    <!-- Clip path for vertical link inner hole -->
    <clipPath id="clip-link-v-inner">
      <rect x="0" y="0" width="20" height="40"/>
    </clipPath>


    <!-- ============================================================
         SYMBOL: chain-link-h  (40×20)
         A single horizontal oval chain link.
         Iron metal look — highlight stripe on center-top.
         Rust accent on bottom edge for depth.
    ============================================================ -->
    <symbol id="chain-link-h" viewBox="0 0 40 20" width="40" height="20">
      <!-- Outer link body (filled oval) -->
      <rect x="1" y="1" width="38" height="18" rx="9" ry="9"
            fill="url(#link-grad-h)" stroke="#1e1e28" stroke-width="1.5"/>

      <!-- Inner hole (the opening through which other links pass) -->
      <rect x="8" y="5" width="24" height="10" rx="5" ry="5"
            fill="#1e1e28"/>

      <!-- Top highlight stripe — simulates rounded surface catching light -->
      <rect x="9" y="2.5" width="22" height="3" rx="1.5"
            fill="#6b6b80" opacity="0.55"/>

      <!-- Left cap highlight (the curved ends of the oval) -->
      <ellipse cx="5" cy="10" rx="3.5" ry="5.5"
               fill="#6b6b80" opacity="0.25"/>

      <!-- Right cap highlight -->
      <ellipse cx="35" cy="10" rx="3.5" ry="5.5"
               fill="#6b6b80" opacity="0.25"/>

      <!-- Bottom rust-edge shadow for depth -->
      <rect x="3" y="15" width="34" height="3" rx="2"
            fill="#5a3520" opacity="0.30"/>

      <!-- Bottom shadow line -->
      <rect x="2" y="17" width="36" height="1.5" rx="1"
            fill="#1e1e28" opacity="0.35"/>
    </symbol>


    <!-- ============================================================
         SYMBOL: chain-link-v  (20×40)
         A single vertical oval chain link.
    ============================================================ -->
    <symbol id="chain-link-v" viewBox="0 0 20 40" width="20" height="40">
      <!-- Outer link body -->
      <rect x="1" y="1" width="18" height="38" rx="9" ry="9"
            fill="url(#link-grad-v)" stroke="#1e1e28" stroke-width="1.5"/>

      <!-- Inner hole -->
      <rect x="5" y="8" width="10" height="24" rx="5" ry="5"
            fill="#1e1e28"/>

      <!-- Left highlight stripe — vertical surface sheen -->
      <rect x="2.5" y="9" width="3" height="22" rx="1.5"
            fill="#6b6b80" opacity="0.55"/>

      <!-- Top cap highlight -->
      <ellipse cx="10" cy="5" rx="5.5" ry="3.5"
               fill="#6b6b80" opacity="0.25"/>

      <!-- Bottom cap highlight -->
      <ellipse cx="10" cy="35" rx="5.5" ry="3.5"
               fill="#6b6b80" opacity="0.25"/>

      <!-- Right shadow edge for depth -->
      <rect x="15" y="3" width="3" height="34" rx="2"
            fill="#5a3520" opacity="0.30"/>

      <!-- Right hard shadow line -->
      <rect x="17.5" y="2" width="1.5" height="36" rx="1"
            fill="#1e1e28" opacity="0.35"/>
    </symbol>


    <!-- ============================================================
         SYMBOL: chain-segment-h  (200×40)
         5 interlocked links: H V H V H
         Links visually interlock — foreground links layered over back.
         Each link has class="chain-link" for animation.
    ============================================================ -->
    <!-- rotate individual chain-link elements for swinging chain animation -->
    <symbol id="chain-segment-h" viewBox="0 0 200 40" width="200" height="40">

      <!-- INTERLOCKING STRATEGY:
           H links are flat (horizontal) — drawn full-width 40px, centered vertically.
           V links are upright — drawn narrow 20px, centered horizontally in the chain.
           Each V link passes THROUGH the H links beside it.
           We achieve interlocking by:
             1. Drawing back-half of V link first (bottom arc of V)
             2. Drawing the H link on top
             3. Drawing front-half of V link last (top arc of V) — overlapping the H link
           Positions (centers): H1@20, V1@60, H2@100, V2@140, H3@180
      -->

      <!-- ── LINK 1: H-link at x=0..40, center y=20 ── -->
      <g class="chain-link">
        <!-- Full H link body -->
        <rect x="1" y="11" width="38" height="18" rx="9" ry="9"
              fill="url(#link-grad-h)" stroke="#1e1e28" stroke-width="1.5"/>
        <!-- Inner hole -->
        <rect x="8" y="15" width="24" height="10" rx="5" ry="5"
              fill="#1e1e28"/>
        <!-- Top highlight -->
        <rect x="9" y="12.5" width="22" height="3" rx="1.5"
              fill="#6b6b80" opacity="0.55"/>
        <!-- Bottom rust shadow -->
        <rect x="3" y="25" width="34" height="3" rx="2"
              fill="#5a3520" opacity="0.28"/>
      </g>

      <!-- ── LINK 2: V-link at x=40..80, center x=60 ── -->
      <!-- Back half of V-link (bottom portion — behind H links) -->
      <g class="chain-link">
        <!-- Back bottom arc (behind H links on each side) -->
        <!-- Bottom half of V oval body — drawn first so H links cover it -->
        <rect x="51" y="20" width="18" height="19" rx="0" ry="0"
              fill="url(#link-grad-v)" opacity="0.85"/>
        <!-- Bottom cap of V link -->
        <rect x="51" y="29" width="18" height="10" rx="9" ry="9"
              fill="url(#link-grad-v)" stroke="#1e1e28" stroke-width="1.5"/>
        <!-- V back inner hole bottom portion -->
        <rect x="55" y="22" width="10" height="16" rx="0"
              fill="#1e1e28"/>
      </g>

      <!-- ── LINK 1 front (top portion re-drawn to layer over V back) ── -->
      <!-- Left H link overlap — right end covers back of V -->
      <g class="chain-link">
        <!-- Right half of H link 1, drawn over back of V link 2 -->
        <rect x="20" y="11" width="22" height="18" rx="0"
              fill="url(#link-grad-h)"/>
        <!-- Outer right cap re-draw -->
        <rect x="30" y="11" width="10" height="18" rx="9" ry="9"
              fill="url(#link-grad-h)" stroke="#1e1e28" stroke-width="1.5"/>
        <!-- Partial inner hole restore -->
        <rect x="20" y="15" width="14" height="10" rx="0"
              fill="#1e1e28"/>
      </g>

      <!-- ── LINK 3: H-link at x=80..120, center y=20 ── -->
      <!-- Back left half (behind V link 2) -->
      <g class="chain-link">
        <rect x="81" y="11" width="10" height="18" rx="9" ry="9"
              fill="url(#link-grad-h)" stroke="#1e1e28" stroke-width="1.5"/>
        <rect x="81" y="11" width="20" height="18"
              fill="url(#link-grad-h)"/>
        <rect x="85" y="15" width="14" height="10"
              fill="#1e1e28"/>
      </g>

      <!-- ── LINK 2 V front (top arc drawn over H links) ── -->
      <g class="chain-link">
        <!-- Top half of V link 2 — in front of both H1 and H2 -->
        <rect x="51" y="1" width="18" height="20" rx="0"
              fill="url(#link-grad-v)" opacity="0.85"/>
        <!-- Top cap -->
        <rect x="51" y="1" width="18" height="10" rx="9" ry="9"
              fill="url(#link-grad-v)" stroke="#1e1e28" stroke-width="1.5"/>
        <!-- Left highlight stripe -->
        <rect x="52.5" y="4" width="3" height="18" rx="1.5"
              fill="#6b6b80" opacity="0.55"/>
        <!-- V inner hole top portion -->
        <rect x="55" y="2" width="10" height="18" rx="0"
              fill="#1e1e28"/>
        <!-- V inner hole top cap -->
        <rect x="55" y="2" width="10" height="9" rx="5"
              fill="#1e1e28"/>
        <!-- Right shadow on V -->
        <rect x="64" y="3" width="3" height="16" rx="2"
              fill="#5a3520" opacity="0.28"/>
        <!-- Full V outline restore -->
        <rect x="51" y="1" width="18" height="38" rx="9" ry="9"
              fill="none" stroke="#1e1e28" stroke-width="1.5"/>
      </g>

      <!-- ── LINK 3 H full re-draw (clean layer on top) ── -->
      <g class="chain-link">
        <rect x="81" y="11" width="38" height="18" rx="9" ry="9"
              fill="url(#link-grad-h)" stroke="#1e1e28" stroke-width="1.5"/>
        <rect x="88" y="15" width="24" height="10" rx="5" ry="5"
              fill="#1e1e28"/>
        <rect x="89" y="12.5" width="22" height="3" rx="1.5"
              fill="#6b6b80" opacity="0.55"/>
        <rect x="83" y="25" width="34" height="3" rx="2"
              fill="#5a3520" opacity="0.28"/>
      </g>

      <!-- ── LINK 4: V-link at x=120..160, center x=140 ── -->
      <!-- Back bottom half (behind H links) -->
      <g class="chain-link">
        <rect x="131" y="20" width="18" height="19" rx="0"
              fill="url(#link-grad-v)" opacity="0.85"/>
        <rect x="131" y="29" width="18" height="10" rx="9" ry="9"
              fill="url(#link-grad-v)" stroke="#1e1e28" stroke-width="1.5"/>
        <rect x="135" y="22" width="10" height="16" rx="0"
              fill="#1e1e28"/>
      </g>

      <!-- ── LINK 3 right overlap (covers back of V4) ── -->
      <g class="chain-link">
        <rect x="100" y="11" width="22" height="18" rx="0"
              fill="url(#link-grad-h)"/>
        <rect x="110" y="11" width="10" height="18" rx="9" ry="9"
              fill="url(#link-grad-h)" stroke="#1e1e28" stroke-width="1.5"/>
        <rect x="100" y="15" width="14" height="10" rx="0"
              fill="#1e1e28"/>
      </g>

      <!-- ── LINK 5: H-link at x=160..200 back left half ── -->
      <g class="chain-link">
        <rect x="161" y="11" width="10" height="18" rx="9" ry="9"
              fill="url(#link-grad-h)" stroke="#1e1e28" stroke-width="1.5"/>
        <rect x="161" y="11" width="20" height="18"
              fill="url(#link-grad-h)"/>
        <rect x="165" y="15" width="14" height="10"
              fill="#1e1e28"/>
      </g>

      <!-- ── LINK 4 V front (top arc) ── -->
      <g class="chain-link">
        <rect x="131" y="1" width="18" height="20" rx="0"
              fill="url(#link-grad-v)" opacity="0.85"/>
        <rect x="131" y="1" width="18" height="10" rx="9" ry="9"
              fill="url(#link-grad-v)" stroke="#1e1e28" stroke-width="1.5"/>
        <rect x="132.5" y="4" width="3" height="18" rx="1.5"
              fill="#6b6b80" opacity="0.55"/>
        <rect x="135" y="2" width="10" height="18" rx="0"
              fill="#1e1e28"/>
        <rect x="135" y="2" width="10" height="9" rx="5"
              fill="#1e1e28"/>
        <rect x="144" y="3" width="3" height="16" rx="2"
              fill="#5a3520" opacity="0.28"/>
        <rect x="131" y="1" width="18" height="38" rx="9" ry="9"
              fill="none" stroke="#1e1e28" stroke-width="1.5"/>
      </g>

      <!-- ── LINK 5 H full draw ── -->
      <g class="chain-link">
        <rect x="161" y="11" width="38" height="18" rx="9" ry="9"
              fill="url(#link-grad-h)" stroke="#1e1e28" stroke-width="1.5"/>
        <rect x="168" y="15" width="24" height="10" rx="5" ry="5"
              fill="#1e1e28"/>
        <rect x="169" y="12.5" width="22" height="3" rx="1.5"
              fill="#6b6b80" opacity="0.55"/>
        <rect x="163" y="25" width="34" height="3" rx="2"
              fill="#5a3520" opacity="0.28"/>
      </g>

    </symbol>


    <!-- ============================================================
         SYMBOL: chain-segment-v  (40×200)
         5 interlocked links: V H V H V
         Vertical hanging chain.
    ============================================================ -->
    <!-- rotate individual chain-link elements for swinging chain animation -->
    <symbol id="chain-segment-v" viewBox="0 0 40 200" width="40" height="200">

      <!-- Positions (centers): V1@20, H1@60, V2@100, H2@140, V3@180 -->

      <!-- ── LINK 1: V-link at y=0..40 ── -->
      <g class="chain-link">
        <rect x="11" y="1" width="18" height="38" rx="9" ry="9"
              fill="url(#link-grad-v)" stroke="#1e1e28" stroke-width="1.5"/>
        <rect x="15" y="8" width="10" height="24" rx="5" ry="5"
              fill="#1e1e28"/>
        <rect x="12.5" y="9" width="3" height="22" rx="1.5"
              fill="#6b6b80" opacity="0.55"/>
        <rect x="25" y="3" width="3" height="34" rx="2"
              fill="#5a3520" opacity="0.28"/>
      </g>

      <!-- ── LINK 2: H-link at y=40..80, center y=60 — back left half ── -->
      <g class="chain-link">
        <rect x="1" y="51" width="19" height="18" rx="0"
              fill="url(#link-grad-h)" opacity="0.85"/>
        <rect x="1" y="51" width="10" height="18" rx="9" ry="9"
              fill="url(#link-grad-h)" stroke="#1e1e28" stroke-width="1.5"/>
        <rect x="5" y="55" width="14" height="10" rx="0"
              fill="#1e1e28"/>
      </g>

      <!-- V1 bottom overlap (right end over back of H2) -->
      <g class="chain-link">
        <rect x="11" y="30" width="18" height="22" rx="0"
              fill="url(#link-grad-v)"/>
        <rect x="11" y="30" width="18" height="10" rx="9" ry="9"
              fill="url(#link-grad-v)" stroke="#1e1e28" stroke-width="1.5"/>
        <rect x="15" y="30" width="10" height="14" rx="0"
              fill="#1e1e28"/>
      </g>

      <!-- ── LINK 3: V-link at y=80..120 — back top half (behind H2) ── -->
      <g class="chain-link">
        <rect x="11" y="80" width="18" height="22" rx="0"
              fill="url(#link-grad-v)" opacity="0.85"/>
        <rect x="11" y="80" width="18" height="11" rx="9" ry="9"
              fill="url(#link-grad-v)" stroke="#1e1e28" stroke-width="1.5"/>
        <rect x="15" y="82" width="10" height="18" rx="0"
              fill="#1e1e28"/>
      </g>

      <!-- H2 full draw (over back of V3 top) -->
      <g class="chain-link">
        <rect x="1" y="51" width="38" height="18" rx="9" ry="9"
              fill="url(#link-grad-h)" stroke="#1e1e28" stroke-width="1.5"/>
        <rect x="8" y="55" width="24" height="10" rx="5" ry="5"
              fill="#1e1e28"/>
        <rect x="9" y="52.5" width="22" height="3" rx="1.5"
              fill="#6b6b80" opacity="0.55"/>
        <rect x="3" y="65" width="34" height="3" rx="2"
              fill="#5a3520" opacity="0.28"/>
      </g>

      <!-- V3 bottom half (front, over H2 bottom) -->
      <g class="chain-link">
        <rect x="11" y="61" width="18" height="59" rx="9" ry="9"
              fill="url(#link-grad-v)" stroke="#1e1e28" stroke-width="1.5"/>
        <rect x="15" y="68" width="10" height="24" rx="5" ry="5"
              fill="#1e1e28"/>
        <rect x="12.5" y="69" width="3" height="22" rx="1.5"
              fill="#6b6b80" opacity="0.55"/>
        <rect x="25" y="63" width="3" height="34" rx="2"
              fill="#5a3520" opacity="0.28"/>
        <!-- Full V3 outline -->
        <rect x="11" y="81" width="18" height="38" rx="9" ry="9"
              fill="none" stroke="#1e1e28" stroke-width="1.5"/>
      </g>

      <!-- ── LINK 4: H-link at y=120..140 — back right half ── -->
      <g class="chain-link">
        <rect x="20" y="131" width="19" height="18" rx="0"
              fill="url(#link-grad-h)" opacity="0.85"/>
        <rect x="29" y="131" width="10" height="18" rx="9" ry="9"
              fill="url(#link-grad-h)" stroke="#1e1e28" stroke-width="1.5"/>
        <rect x="20" y="135" width="14" height="10" rx="0"
              fill="#1e1e28"/>
      </g>

      <!-- V3 bottom overlap over H4 back -->
      <g class="chain-link">
        <rect x="11" y="110" width="18" height="22" rx="0"
              fill="url(#link-grad-v)"/>
        <rect x="11" y="119" width="18" height="13" rx="9" ry="9"
              fill="url(#link-grad-v)" stroke="#1e1e28" stroke-width="1.5"/>
        <rect x="15" y="111" width="10" height="14" rx="0"
              fill="#1e1e28"/>
      </g>

      <!-- ── LINK 5: V-link at y=160..200 — back top (behind H4) ── -->
      <g class="chain-link">
        <rect x="11" y="160" width="18" height="22" rx="0"
              fill="url(#link-grad-v)" opacity="0.85"/>
        <rect x="11" y="160" width="18" height="11" rx="9" ry="9"
              fill="url(#link-grad-v)" stroke="#1e1e28" stroke-width="1.5"/>
        <rect x="15" y="162" width="10" height="18" rx="0"
              fill="#1e1e28"/>
      </g>

      <!-- H4 full draw -->
      <g class="chain-link">
        <rect x="1" y="131" width="38" height="18" rx="9" ry="9"
              fill="url(#link-grad-h)" stroke="#1e1e28" stroke-width="1.5"/>
        <rect x="8" y="135" width="24" height="10" rx="5" ry="5"
              fill="#1e1e28"/>
        <rect x="9" y="132.5" width="22" height="3" rx="1.5"
              fill="#6b6b80" opacity="0.55"/>
        <rect x="3" y="145" width="34" height="3" rx="2"
              fill="#5a3520" opacity="0.28"/>
      </g>

      <!-- V5 bottom (front, over H4) -->
      <g class="chain-link">
        <rect x="11" y="141" width="18" height="58" rx="9" ry="9"
              fill="url(#link-grad-v)" stroke="#1e1e28" stroke-width="1.5"/>
        <rect x="15" y="148" width="10" height="24" rx="5" ry="5"
              fill="#1e1e28"/>
        <rect x="12.5" y="149" width="3" height="22" rx="1.5"
              fill="#6b6b80" opacity="0.55"/>
        <rect x="25" y="143" width="3" height="34" rx="2"
              fill="#5a3520" opacity="0.28"/>
        <rect x="11" y="161" width="18" height="38" rx="9" ry="9"
              fill="none" stroke="#1e1e28" stroke-width="1.5"/>
      </g>

    </symbol>


    <!-- ============================================================
         SYMBOL: chain-loop  (60×60)
         A closed loop of 4 interlocked links arranged in a square.
         Used as attachment points at top of hanging signs.
    ============================================================ -->
    <symbol id="chain-loop" viewBox="0 0 60 60" width="60" height="60">

      <!-- 4-link square loop: top H, right V, bottom H, left V -->
      <!-- Center of loop at 30,30 -->

      <!-- Bottom H link (back — drawn first) -->
      <g class="chain-link">
        <rect x="11" y="42" width="38" height="14" rx="7" ry="7"
              fill="url(#link-grad-h)" stroke="#1e1e28" stroke-width="1.5"/>
        <rect x="19" y="46" width="22" height="6" rx="3" ry="3"
              fill="#1e1e28"/>
        <rect x="19" y="43.5" width="22" height="2.5" rx="1.2"
              fill="#6b6b80" opacity="0.50"/>
      </g>

      <!-- Left V link (back) -->
      <g class="chain-link">
        <rect x="4" y="11" width="14" height="38" rx="7" ry="7"
              fill="url(#link-grad-v)" stroke="#1e1e28" stroke-width="1.5"/>
        <rect x="8" y="19" width="6" height="22" rx="3" ry="3"
              fill="#1e1e28"/>
        <rect x="5" y="19" width="2.5" height="22" rx="1.2"
              fill="#6b6b80" opacity="0.50"/>
      </g>

      <!-- Right V link (back) -->
      <g class="chain-link">
        <rect x="42" y="11" width="14" height="38" rx="7" ry="7"
              fill="url(#link-grad-v)" stroke="#1e1e28" stroke-width="1.5"/>
        <rect x="46" y="19" width="6" height="22" rx="3" ry="3"
              fill="#1e1e28"/>
        <rect x="43" y="19" width="2.5" height="22" rx="1.2"
              fill="#6b6b80" opacity="0.50"/>
      </g>

      <!-- Top H link (front — drawn last to appear in front) -->
      <g class="chain-link">
        <rect x="11" y="4" width="38" height="14" rx="7" ry="7"
              fill="url(#link-grad-h)" stroke="#1e1e28" stroke-width="1.5"/>
        <rect x="19" y="8" width="22" height="6" rx="3" ry="3"
              fill="#1e1e28"/>
        <rect x="19" y="5.5" width="22" height="2.5" rx="1.2"
              fill="#6b6b80" opacity="0.55"/>
        <!-- Rust depth on bottom of top link -->
        <rect x="13" y="15" width="34" height="2.5" rx="1.5"
              fill="#5a3520" opacity="0.28"/>
      </g>

    </symbol>


    <!-- ============================================================
         SYMBOL: chain-hook  (30×60)
         A J-hook / iron hook shape.
         Useful for connecting chains to walls or signs.
    ============================================================ -->
    <symbol id="chain-hook" viewBox="0 0 30 60" width="30" height="60">

      <!-- Hook body — thick curved iron bar -->
      <!-- Straight vertical shaft down from top -->
      <rect x="11" y="2" width="8" height="28" rx="4" ry="4"
            fill="url(#hook-grad)" stroke="#1e1e28" stroke-width="1.5"/>

      <!-- Left highlight on shaft -->
      <rect x="12.5" y="4" width="2.5" height="24" rx="1.2"
            fill="#6b6b80" opacity="0.55"/>

      <!-- Curved lower portion — the J-curve -->
      <!-- Arc going left-down-right to form the hook bottom -->
      <path d="
        M 15 30
        Q 15 48 8 52
        Q 1 56 4 58
        Q 7 60 14 54
        Q 24 46 24 30
        L 22 30
        Q 22 46 13 53
        Q 9 57 7 56
        Q 5 55 9 51
        Q 17 47 17 30
        Z
      " fill="url(#hook-grad)" stroke="#1e1e28" stroke-width="1.5"
        stroke-linejoin="round"/>

      <!-- Hook inner curve highlight -->
      <path d="M 17.5 31 Q 17 46 12 52 Q 9 56 10 57"
            stroke="#6b6b80" stroke-width="1.2" fill="none" opacity="0.45"
            stroke-linecap="round"/>

      <!-- Top loop / eye of hook (ring at top for chain attachment) -->
      <ellipse cx="15" cy="6" rx="6" ry="5"
               fill="none" stroke="#1e1e28" stroke-width="3.5"/>
      <ellipse cx="15" cy="6" rx="6" ry="5"
               fill="none" stroke="#4a4a5c" stroke-width="1.2" opacity="0.7"/>
      <!-- Eye opening (hole) -->
      <ellipse cx="15" cy="6" rx="3.5" ry="3"
               fill="#1e1e28"/>

      <!-- Rust accent on hook tip -->
      <path d="M 7 55 Q 5.5 57 7 58"
            stroke="#5a3520" stroke-width="2" fill="none" opacity="0.6"
            stroke-linecap="round"/>

    </symbol>


    <!-- ============================================================
         SYMBOL: chain-wall-mount  (50×40)
         A wall-mount anchor bracket:
         flat backplate with 2 rivets, protruding eyelet ring.
    ============================================================ -->
    <symbol id="chain-wall-mount" viewBox="0 0 50 40" width="50" height="40">

      <!-- Backplate — flat iron mounting plate -->
      <rect x="2" y="6" width="26" height="28" rx="3" ry="3"
            fill="url(#mount-grad)" stroke="#1e1e28" stroke-width="1.5"/>

      <!-- Backplate top highlight -->
      <rect x="3" y="7" width="24" height="4" rx="2"
            fill="#4a4a5c" opacity="0.50"/>

      <!-- Backplate inner bevel/inset -->
      <rect x="5" y="9" width="20" height="22" rx="2"
            fill="none" stroke="#1e1e28" stroke-width="0.8" opacity="0.55"/>

      <!-- Rivet top — a small domed circle rivet -->
      <circle cx="15" cy="13" r="3.5" fill="#2e2e3c" stroke="#1e1e28" stroke-width="1.2"/>
      <circle cx="15" cy="12.5" r="1.5" fill="#6b6b80" opacity="0.7"/>

      <!-- Rivet bottom -->
      <circle cx="15" cy="27" r="3.5" fill="#2e2e3c" stroke="#1e1e28" stroke-width="1.2"/>
      <circle cx="15" cy="26.5" r="1.5" fill="#6b6b80" opacity="0.7"/>

      <!-- Bracket arm (extends right from plate center) -->
      <rect x="26" y="17" width="14" height="6" rx="2"
            fill="url(#mount-grad)" stroke="#1e1e28" stroke-width="1.2"/>
      <!-- Arm highlight -->
      <rect x="27" y="17.5" width="12" height="2" rx="1"
            fill="#4a4a5c" opacity="0.55"/>

      <!-- Eyelet ring at end of arm -->
      <!-- Ring outer body -->
      <ellipse cx="43" cy="20" rx="6" ry="6"
               fill="none" stroke="#2e2e3c" stroke-width="4"/>
      <!-- Ring highlight arc -->
      <path d="M 38 17 A 6 6 0 0 1 48 17"
            stroke="#6b6b80" stroke-width="1.5" fill="none" opacity="0.6"/>
      <!-- Ring inner hole -->
      <circle cx="43" cy="20" r="3" fill="#1e1e28"/>
      <!-- Ring iron outline -->
      <circle cx="43" cy="20" r="6" fill="none" stroke="#1e1e28" stroke-width="1.5"/>

      <!-- Rust accent on arm-to-plate joint -->
      <rect x="26" y="18" width="3" height="4" rx="1"
            fill="#5a3520" opacity="0.40"/>

    </symbol>


  </defs>


  <!-- ================================================================
       DEMO SHEET — renders each symbol with a label
       Grid layout on a dark stone background
  ================================================================ -->

  <!-- Background -->
  <rect width="600" height="500" fill="#16161f"/>

  <!-- Subtle stone-texture grid lines -->
  <line x1="0" y1="0" x2="600" y2="0"   stroke="#2e2e3c" stroke-width="0.5" opacity="0.4"/>
  <line x1="0" y1="160" x2="600" y2="160" stroke="#2e2e3c" stroke-width="0.5" opacity="0.4"/>
  <line x1="0" y1="320" x2="600" y2="320" stroke="#2e2e3c" stroke-width="0.5" opacity="0.4"/>
  <line x1="0" y1="500" x2="600" y2="500" stroke="#2e2e3c" stroke-width="0.5" opacity="0.4"/>

  <!-- Header -->
  <line x1="40" y1="36" x2="560" y2="36" stroke="#2e2e3c" stroke-width="1" opacity="0.8"/>


  <!-- ── ROW 1: chain-link-h | chain-link-v | chain-segment-h ── -->

  <!-- Cell 1: chain-link-h -->
  <g transform="translate(60, 60)">
    <use href="#chain-link-h" x="-20" y="-10"/>
  </g>

  <!-- Cell 2: chain-link-v -->
  <g transform="translate(180, 50)">
    <use href="#chain-link-v" x="-10" y="-20"/>
  </g>

  <!-- Cell 3: chain-segment-h (200×40) — positioned right side, row 1 -->
  <g transform="translate(400, 65)">
    <use href="#chain-segment-h" x="-100" y="-20"/>
  </g>




  <!-- ── ROW 2: chain-segment-v | chain-loop | chain-hook | chain-wall-mount ── -->

  <!-- Cell 4: chain-segment-v (40×200) — taller, so give it more height -->
  <g transform="translate(60, 260)">
    <use href="#chain-segment-v" x="-20" y="-100"/>
  </g>

  <!-- Cell 5: chain-loop (60×60) -->
  <g transform="translate(190, 200)">
    <use href="#chain-loop" x="-30" y="-30"/>
  </g>

  <!-- Cell 6: chain-hook (30×60) -->
  <g transform="translate(320, 200)">
    <use href="#chain-hook" x="-15" y="-30"/>
  </g>

  <!-- Cell 7: chain-wall-mount (50×40) -->
  <g transform="translate(460, 195)">
    <use href="#chain-wall-mount" x="-25" y="-20"/>
  </g>




  <g transform="translate(190, 420)">
    <!-- Wall surface hint -->
    <rect x="-12" y="-8" width="18" height="50" rx="2" fill="#1e1e28" stroke="#2e2e3c" stroke-width="1" opacity="0.7"/>
    <!-- Mount -->
    <use href="#chain-wall-mount" x="-12" y="-4" width="50" height="40"/>
    <!-- Vertical chain segment hanging from eyelet -->
    <use href="#chain-segment-v" x="29" y="14" width="40" height="80"/>
    <!-- Hook at bottom -->
    <use href="#chain-hook" x="34" y="92" width="30" height="40"/>
  </g>

  <!-- Horizontal chain demo with loops at each end -->
  <g transform="translate(330, 440)">
    <!-- Left loop -->
    <use href="#chain-loop" x="-10" y="-18" width="40" height="40"/>
    <!-- Horizontal segment -->
    <use href="#chain-segment-h" x="28" y="-14" width="140" height="28"/>
    <!-- Right loop -->
    <use href="#chain-loop" x="166" y="-18" width="40" height="40"/>
  </g>

</svg>
