<svg xmlns="http://www.w3.org/2000/svg" viewBox="0 0 600 500" role="img" aria-label="Chain component library — KHE 2027 Hack the Kingdom">


  <defs>

    <linearGradient id="link-grad-h" x1="0%" y1="0%" x2="0%" y2="100%">
      <stop offset="0%"   stop-color="#6b6b80"/>
      <stop offset="30%"  stop-color="#4a4a5c"/>
      <stop offset="65%"  stop-color="#2e2e3c"/>
      <stop offset="100%" stop-color="#1e1e28"/>
    </linearGradient>

    <linearGradient id="link-grad-v" x1="0%" y1="0%" x2="100%" y2="0%">
      <stop offset="0%"   stop-color="#6b6b80"/>
      <stop offset="30%"  stop-color="#4a4a5c"/>
      <stop offset="65%"  stop-color="#2e2e3c"/>
      <stop offset="100%" stop-color="#1e1e28"/>
    </linearGradient>

    <linearGradient id="hook-grad" x1="0%" y1="0%" x2="100%" y2="100%">
      <stop offset="0%"   stop-color="#6b6b80"/>
      <stop offset="40%"  stop-color="#4a4a5c"/>
      <stop offset="100%" stop-color="#1e1e28"/>
    </linearGradient>

    <linearGradient id="mount-grad" x1="0%" y1="0%" x2="0%" y2="100%">
      <stop offset="0%"   stop-color="#4a4a5c"/>
      <stop offset="100%" stop-color="#1e1e28"/>
    </linearGradient>

    <filter id="link-shadow" x="-15%" y="-15%" width="130%" height="130%">
      <feDropShadow dx="0" dy="1.5" stdDeviation="1.2" flood-color="#000000" flood-opacity="0.5"/>
    </filter>

    <clipPath id="clip-link-h-inner">
      <rect x="0" y="0" width="40" height="20"/>
    </clipPath>

    <clipPath id="clip-link-v-inner">
      <rect x="0" y="0" width="20" height="40"/>
    </clipPath>


    <symbol id="chain-link-h" viewBox="0 0 40 20" width="40" height="20">
      <rect x="1" y="1" width="38" height="18" rx="9" ry="9"
            fill="url(#link-grad-h)" stroke="#1e1e28" stroke-width="1.5"/>

      <rect x="8" y="5" width="24" height="10" rx="5" ry="5"
            fill="#1e1e28"/>

      <rect x="9" y="2.5" width="22" height="3" rx="1.5"
            fill="#6b6b80" opacity="0.55"/>

      <ellipse cx="5" cy="10" rx="3.5" ry="5.5"
               fill="#6b6b80" opacity="0.25"/>

      <ellipse cx="35" cy="10" rx="3.5" ry="5.5"
               fill="#6b6b80" opacity="0.25"/>

      <rect x="3" y="15" width="34" height="3" rx="2"
            fill="#5a3520" opacity="0.30"/>

      <rect x="2" y="17" width="36" height="1.5" rx="1"
            fill="#1e1e28" opacity="0.35"/>
    </symbol>


    <symbol id="chain-link-v" viewBox="0 0 20 40" width="20" height="40">
      <rect x="1" y="1" width="18" height="38" rx="9" ry="9"
            fill="url(#link-grad-v)" stroke="#1e1e28" stroke-width="1.5"/>

      <rect x="5" y="8" width="10" height="24" rx="5" ry="5"
            fill="#1e1e28"/>

      <rect x="2.5" y="9" width="3" height="22" rx="1.5"
            fill="#6b6b80" opacity="0.55"/>

      <ellipse cx="10" cy="5" rx="5.5" ry="3.5"
               fill="#6b6b80" opacity="0.25"/>

      <ellipse cx="10" cy="35" rx="5.5" ry="3.5"
               fill="#6b6b80" opacity="0.25"/>

      <rect x="15" y="3" width="3" height="34" rx="2"
            fill="#5a3520" opacity="0.30"/>

      <rect x="17.5" y="2" width="1.5" height="36" rx="1"
            fill="#1e1e28" opacity="0.35"/>
    </symbol>


    <symbol id="chain-segment-h" viewBox="0 0 200 40" width="200" height="40">

      <g class="chain-link">
        <rect x="1" y="11" width="38" height="18" rx="9" ry="9"
              fill="url(#link-grad-h)" stroke="#1e1e28" stroke-width="1.5"/>
        <rect x="8" y="15" width="24" height="10" rx="5" ry="5"
              fill="#1e1e28"/>
        <rect x="9" y="12.5" width="22" height="3" rx="1.5"
              fill="#6b6b80" opacity="0.55"/>
        <rect x="3" y="25" width="34" height="3" rx="2"
              fill="#5a3520" opacity="0.28"/>
      </g>

      <g class="chain-link">
        <rect x="51" y="20" width="18" height="19" rx="0" ry="0"
              fill="url(#link-grad-v)" opacity="0.85"/>
        <rect x="51" y="29" width="18" height="10" rx="9" ry="9"
              fill="url(#link-grad-v)" stroke="#1e1e28" stroke-width="1.5"/>
        <rect x="55" y="22" width="10" height="16" rx="0"
              fill="#1e1e28"/>
      </g>

      <g class="chain-link">
        <rect x="20" y="11" width="22" height="18" rx="0"
              fill="url(#link-grad-h)"/>
        <rect x="30" y="11" width="10" height="18" rx="9" ry="9"
              fill="url(#link-grad-h)" stroke="#1e1e28" stroke-width="1.5"/>
        <rect x="20" y="15" width="14" height="10" rx="0"
              fill="#1e1e28"/>
      </g>

      <g class="chain-link">
        <rect x="81" y="11" width="10" height="18" rx="9" ry="9"
              fill="url(#link-grad-h)" stroke="#1e1e28" stroke-width="1.5"/>
        <rect x="81" y="11" width="20" height="18"
              fill="url(#link-grad-h)"/>
        <rect x="85" y="15" width="14" height="10"
              fill="#1e1e28"/>
      </g>

      <g class="chain-link">
        <rect x="51" y="1" width="18" height="20" rx="0"
              fill="url(#link-grad-v)" opacity="0.85"/>
        <rect x="51" y="1" width="18" height="10" rx="9" ry="9"
              fill="url(#link-grad-v)" stroke="#1e1e28" stroke-width="1.5"/>
        <rect x="52.5" y="4" width="3" height="18" rx="1.5"
              fill="#6b6b80" opacity="0.55"/>
        <rect x="55" y="2" width="10" height="18" rx="0"
              fill="#1e1e28"/>
        <rect x="55" y="2" width="10" height="9" rx="5"
              fill="#1e1e28"/>
        <rect x="64" y="3" width="3" height="16" rx="2"
              fill="#5a3520" opacity="0.28"/>
        <rect x="51" y="1" width="18" height="38" rx="9" ry="9"
              fill="none" stroke="#1e1e28" stroke-width="1.5"/>
      </g>

      <g class="chain-link">
        <rect x="81" y="11" width="38" height="18" rx="9" ry="9"
              fill="url(#link-grad-h)" stroke="#1e1e28" stroke-width="1.5"/>
        <rect x="88" y="15" width="24" height="10" rx="5" ry="5"
              fill="#1e1e28"/>
        <rect x="89" y="12.5" width="22" height="3" rx="1.5"
              fill="#6b6b80" opacity="0.55"/>
        <rect x="83" y="25" width="34" height="3" rx="2"
              fill="#5a3520" opacity="0.28"/>
      </g>

      <g class="chain-link">
        <rect x="131" y="20" width="18" height="19" rx="0"
              fill="url(#link-grad-v)" opacity="0.85"/>
        <rect x="131" y="29" width="18" height="10" rx="9" ry="9"
              fill="url(#link-grad-v)" stroke="#1e1e28" stroke-width="1.5"/>
        <rect x="135" y="22" width="10" height="16" rx="0"
              fill="#1e1e28"/>
      </g>

      <g class="chain-link">
        <rect x="100" y="11" width="22" height="18" rx="0"
              fill="url(#link-grad-h)"/>
        <rect x="110" y="11" width="10" height="18" rx="9" ry="9"
              fill="url(#link-grad-h)" stroke="#1e1e28" stroke-width="1.5"/>
        <rect x="100" y="15" width="14" height="10" rx="0"
              fill="#1e1e28"/>
      </g>

      <g class="chain-link">
        <rect x="161" y="11" width="10" height="18" rx="9" ry="9"
              fill="url(#link-grad-h)" stroke="#1e1e28" stroke-width="1.5"/>
        <rect x="161" y="11" width="20" height="18"
              fill="url(#link-grad-h)"/>
        <rect x="165" y="15" width="14" height="10"
              fill="#1e1e28"/>
      </g>

      <g class="chain-link">
        <rect x="131" y="1" width="18" height="20" rx="0"
              fill="url(#link-grad-v)" opacity="0.85"/>
        <rect x="131" y="1" width="18" height="10" rx="9" ry="9"
              fill="url(#link-grad-v)" stroke="#1e1e28" stroke-width="1.5"/>
        <rect x="132.5" y="4" width="3" height="18" rx="1.5"
              fill="#6b6b80" opacity="0.55"/>
        <rect x="135" y="2" width="10" height="18" rx="0"
              fill="#1e1e28"/>
        <rect x="135" y="2" width="10" height="9" rx="5"
              fill="#1e1e28"/>
        <rect x="144" y="3" width="3" height="16" rx="2"
              fill="#5a3520" opacity="0.28"/>
        <rect x="131" y="1" width="18" height="38" rx="9" ry="9"
              fill="none" stroke="#1e1e28" stroke-width="1.5"/>
      </g>

      <g class="chain-link">
        <rect x="161" y="11" width="38" height="18" rx="9" ry="9"
              fill="url(#link-grad-h)" stroke="#1e1e28" stroke-width="1.5"/>
        <rect x="168" y="15" width="24" height="10" rx="5" ry="5"
              fill="#1e1e28"/>
        <rect x="169" y="12.5" width="22" height="3" rx="1.5"
              fill="#6b6b80" opacity="0.55"/>
        <rect x="163" y="25" width="34" height="3" rx="2"
              fill="#5a3520" opacity="0.28"/>
      </g>

    </symbol>


    <symbol id="chain-segment-v" viewBox="0 0 40 200" width="40" height="200">


      <g class="chain-link">
        <rect x="11" y="1" width="18" height="38" rx="9" ry="9"
              fill="url(#link-grad-v)" stroke="#1e1e28" stroke-width="1.5"/>
        <rect x="15" y="8" width="10" height="24" rx="5" ry="5"
              fill="#1e1e28"/>
        <rect x="12.5" y="9" width="3" height="22" rx="1.5"
              fill="#6b6b80" opacity="0.55"/>
        <rect x="25" y="3" width="3" height="34" rx="2"
              fill="#5a3520" opacity="0.28"/>
      </g>

      <g class="chain-link">
        <rect x="1" y="51" width="19" height="18" rx="0"
              fill="url(#link-grad-h)" opacity="0.85"/>
        <rect x="1" y="51" width="10" height="18" rx="9" ry="9"
              fill="url(#link-grad-h)" stroke="#1e1e28" stroke-width="1.5"/>
        <rect x="5" y="55" width="14" height="10" rx="0"
              fill="#1e1e28"/>
      </g>

      <g class="chain-link">
        <rect x="11" y="30" width="18" height="22" rx="0"
              fill="url(#link-grad-v)"/>
        <rect x="11" y="30" width="18" height="10" rx="9" ry="9"
              fill="url(#link-grad-v)" stroke="#1e1e28" stroke-width="1.5"/>
        <rect x="15" y="30" width="10" height="14" rx="0"
              fill="#1e1e28"/>
      </g>

      <g class="chain-link">
        <rect x="11" y="80" width="18" height="22" rx="0"
              fill="url(#link-grad-v)" opacity="0.85"/>
        <rect x="11" y="80" width="18" height="11" rx="9" ry="9"
              fill="url(#link-grad-v)" stroke="#1e1e28" stroke-width="1.5"/>
        <rect x="15" y="82" width="10" height="18" rx="0"
              fill="#1e1e28"/>
      </g>

      <g class="chain-link">
        <rect x="1" y="51" width="38" height="18" rx="9" ry="9"
              fill="url(#link-grad-h)" stroke="#1e1e28" stroke-width="1.5"/>
        <rect x="8" y="55" width="24" height="10" rx="5" ry="5"
              fill="#1e1e28"/>
        <rect x="9" y="52.5" width="22" height="3" rx="1.5"
              fill="#6b6b80" opacity="0.55"/>
        <rect x="3" y="65" width="34" height="3" rx="2"
              fill="#5a3520" opacity="0.28"/>
      </g>

      <g class="chain-link">
        <rect x="11" y="61" width="18" height="59" rx="9" ry="9"
              fill="url(#link-grad-v)" stroke="#1e1e28" stroke-width="1.5"/>
        <rect x="15" y="68" width="10" height="24" rx="5" ry="5"
              fill="#1e1e28"/>
        <rect x="12.5" y="69" width="3" height="22" rx="1.5"
              fill="#6b6b80" opacity="0.55"/>
        <rect x="25" y="63" width="3" height="34" rx="2"
              fill="#5a3520" opacity="0.28"/>
        <rect x="11" y="81" width="18" height="38" rx="9" ry="9"
              fill="none" stroke="#1e1e28" stroke-width="1.5"/>
      </g>

      <g class="chain-link">
        <rect x="20" y="131" width="19" height="18" rx="0"
              fill="url(#link-grad-h)" opacity="0.85"/>
        <rect x="29" y="131" width="10" height="18" rx="9" ry="9"
              fill="url(#link-grad-h)" stroke="#1e1e28" stroke-width="1.5"/>
        <rect x="20" y="135" width="14" height="10" rx="0"
              fill="#1e1e28"/>
      </g>

      <g class="chain-link">
        <rect x="11" y="110" width="18" height="22" rx="0"
              fill="url(#link-grad-v)"/>
        <rect x="11" y="119" width="18" height="13" rx="9" ry="9"
              fill="url(#link-grad-v)" stroke="#1e1e28" stroke-width="1.5"/>
        <rect x="15" y="111" width="10" height="14" rx="0"
              fill="#1e1e28"/>
      </g>

      <g class="chain-link">
        <rect x="11" y="160" width="18" height="22" rx="0"
              fill="url(#link-grad-v)" opacity="0.85"/>
        <rect x="11" y="160" width="18" height="11" rx="9" ry="9"
              fill="url(#link-grad-v)" stroke="#1e1e28" stroke-width="1.5"/>
        <rect x="15" y="162" width="10" height="18" rx="0"
              fill="#1e1e28"/>
      </g>

      <g class="chain-link">
        <rect x="1" y="131" width="38" height="18" rx="9" ry="9"
              fill="url(#link-grad-h)" stroke="#1e1e28" stroke-width="1.5"/>
        <rect x="8" y="135" width="24" height="10" rx="5" ry="5"
              fill="#1e1e28"/>
        <rect x="9" y="132.5" width="22" height="3" rx="1.5"
              fill="#6b6b80" opacity="0.55"/>
        <rect x="3" y="145" width="34" height="3" rx="2"
              fill="#5a3520" opacity="0.28"/>
      </g>

      <g class="chain-link">
        <rect x="11" y="141" width="18" height="58" rx="9" ry="9"
              fill="url(#link-grad-v)" stroke="#1e1e28" stroke-width="1.5"/>
        <rect x="15" y="148" width="10" height="24" rx="5" ry="5"
              fill="#1e1e28"/>
        <rect x="12.5" y="149" width="3" height="22" rx="1.5"
              fill="#6b6b80" opacity="0.55"/>
        <rect x="25" y="143" width="3" height="34" rx="2"
              fill="#5a3520" opacity="0.28"/>
        <rect x="11" y="161" width="18" height="38" rx="9" ry="9"
              fill="none" stroke="#1e1e28" stroke-width="1.5"/>
      </g>

    </symbol>


    <symbol id="chain-loop" viewBox="0 0 60 60" width="60" height="60">


      <g class="chain-link">
        <rect x="11" y="42" width="38" height="14" rx="7" ry="7"
              fill="url(#link-grad-h)" stroke="#1e1e28" stroke-width="1.5"/>
        <rect x="19" y="46" width="22" height="6" rx="3" ry="3"
              fill="#1e1e28"/>
        <rect x="19" y="43.5" width="22" height="2.5" rx="1.2"
              fill="#6b6b80" opacity="0.50"/>
      </g>

      <g class="chain-link">
        <rect x="4" y="11" width="14" height="38" rx="7" ry="7"
              fill="url(#link-grad-v)" stroke="#1e1e28" stroke-width="1.5"/>
        <rect x="8" y="19" width="6" height="22" rx="3" ry="3"
              fill="#1e1e28"/>
        <rect x="5" y="19" width="2.5" height="22" rx="1.2"
              fill="#6b6b80" opacity="0.50"/>
      </g>

      <g class="chain-link">
        <rect x="42" y="11" width="14" height="38" rx="7" ry="7"
              fill="url(#link-grad-v)" stroke="#1e1e28" stroke-width="1.5"/>
        <rect x="46" y="19" width="6" height="22" rx="3" ry="3"
              fill="#1e1e28"/>
        <rect x="43" y="19" width="2.5" height="22" rx="1.2"
              fill="#6b6b80" opacity="0.50"/>
      </g>

      <g class="chain-link">
        <rect x="11" y="4" width="38" height="14" rx="7" ry="7"
              fill="url(#link-grad-h)" stroke="#1e1e28" stroke-width="1.5"/>
        <rect x="19" y="8" width="22" height="6" rx="3" ry="3"
              fill="#1e1e28"/>
        <rect x="19" y="5.5" width="22" height="2.5" rx="1.2"
              fill="#6b6b80" opacity="0.55"/>
        <rect x="13" y="15" width="34" height="2.5" rx="1.5"
              fill="#5a3520" opacity="0.28"/>
      </g>

    </symbol>


    <symbol id="chain-hook" viewBox="0 0 30 60" width="30" height="60">

      <rect x="11" y="2" width="8" height="28" rx="4" ry="4"
            fill="url(#hook-grad)" stroke="#1e1e28" stroke-width="1.5"/>

      <rect x="12.5" y="4" width="2.5" height="24" rx="1.2"
            fill="#6b6b80" opacity="0.55"/>

      <path d="
        M 15 30
        Q 15 48 8 52
        Q 1 56 4 58
        Q 7 60 14 54
        Q 24 46 24 30
        L 22 30
        Q 22 46 13 53
        Q 9 57 7 56
        Q 5 55 9 51
        Q 17 47 17 30
        Z
      " fill="url(#hook-grad)" stroke="#1e1e28" stroke-width="1.5"
        stroke-linejoin="round"/>

      <path d="M 17.5 31 Q 17 46 12 52 Q 9 56 10 57"
            stroke="#6b6b80" stroke-width="1.2" fill="none" opacity="0.45"
            stroke-linecap="round"/>

      <ellipse cx="15" cy="6" rx="6" ry="5"
               fill="none" stroke="#1e1e28" stroke-width="3.5"/>
      <ellipse cx="15" cy="6" rx="6" ry="5"
               fill="none" stroke="#4a4a5c" stroke-width="1.2" opacity="0.7"/>
      <ellipse cx="15" cy="6" rx="3.5" ry="3"
               fill="#1e1e28"/>

      <path d="M 7 55 Q 5.5 57 7 58"
            stroke="#5a3520" stroke-width="2" fill="none" opacity="0.6"
            stroke-linecap="round"/>

    </symbol>


    <symbol id="chain-wall-mount" viewBox="0 0 50 40" width="50" height="40">

      <rect x="2" y="6" width="26" height="28" rx="3" ry="3"
            fill="url(#mount-grad)" stroke="#1e1e28" stroke-width="1.5"/>

      <rect x="3" y="7" width="24" height="4" rx="2"
            fill="#4a4a5c" opacity="0.50"/>

      <rect x="5" y="9" width="20" height="22" rx="2"
            fill="none" stroke="#1e1e28" stroke-width="0.8" opacity="0.55"/>

      <circle cx="15" cy="13" r="3.5" fill="#2e2e3c" stroke="#1e1e28" stroke-width="1.2"/>
      <circle cx="15" cy="12.5" r="1.5" fill="#6b6b80" opacity="0.7"/>

      <circle cx="15" cy="27" r="3.5" fill="#2e2e3c" stroke="#1e1e28" stroke-width="1.2"/>
      <circle cx="15" cy="26.5" r="1.5" fill="#6b6b80" opacity="0.7"/>

      <rect x="26" y="17" width="14" height="6" rx="2"
            fill="url(#mount-grad)" stroke="#1e1e28" stroke-width="1.2"/>
      <rect x="27" y="17.5" width="12" height="2" rx="1"
            fill="#4a4a5c" opacity="0.55"/>

      <ellipse cx="43" cy="20" rx="6" ry="6"
               fill="none" stroke="#2e2e3c" stroke-width="4"/>
      <path d="M 38 17 A 6 6 0 0 1 48 17"
            stroke="#6b6b80" stroke-width="1.5" fill="none" opacity="0.6"/>
      <circle cx="43" cy="20" r="3" fill="#1e1e28"/>
      <circle cx="43" cy="20" r="6" fill="none" stroke="#1e1e28" stroke-width="1.5"/>

      <rect x="26" y="18" width="3" height="4" rx="1"
            fill="#5a3520" opacity="0.40"/>

    </symbol>


  </defs>



  <rect width="600" height="500" fill="#16161f"/>

  <line x1="0" y1="0" x2="600" y2="0"   stroke="#2e2e3c" stroke-width="0.5" opacity="0.4"/>
  <line x1="0" y1="160" x2="600" y2="160" stroke="#2e2e3c" stroke-width="0.5" opacity="0.4"/>
  <line x1="0" y1="320" x2="600" y2="320" stroke="#2e2e3c" stroke-width="0.5" opacity="0.4"/>
  <line x1="0" y1="500" x2="600" y2="500" stroke="#2e2e3c" stroke-width="0.5" opacity="0.4"/>

  <line x1="40" y1="36" x2="560" y2="36" stroke="#2e2e3c" stroke-width="1" opacity="0.8"/>



  <g transform="translate(60, 60)">
    <use href="#chain-link-h" x="-20" y="-10"/>
  </g>

  <g transform="translate(180, 50)">
    <use href="#chain-link-v" x="-10" y="-20"/>
  </g>

  <g transform="translate(400, 65)">
    <use href="#chain-segment-h" x="-100" y="-20"/>
  </g>





  <g transform="translate(60, 260)">
    <use href="#chain-segment-v" x="-20" y="-100"/>
  </g>

  <g transform="translate(190, 200)">
    <use href="#chain-loop" x="-30" y="-30"/>
  </g>

  <g transform="translate(320, 200)">
    <use href="#chain-hook" x="-15" y="-30"/>
  </g>

  <g transform="translate(460, 195)">
    <use href="#chain-wall-mount" x="-25" y="-20"/>
  </g>




  <g transform="translate(190, 420)">
    <rect x="-12" y="-8" width="18" height="50" rx="2" fill="#1e1e28" stroke="#2e2e3c" stroke-width="1" opacity="0.7"/>
    <use href="#chain-wall-mount" x="-12" y="-4" width="50" height="40"/>
    <use href="#chain-segment-v" x="29" y="14" width="40" height="80"/>
    <use href="#chain-hook" x="34" y="92" width="30" height="40"/>
  </g>

  <g transform="translate(330, 440)">
    <use href="#chain-loop" x="-10" y="-18" width="40" height="40"/>
    <use href="#chain-segment-h" x="28" y="-14" width="140" height="28"/>
    <use href="#chain-loop" x="166" y="-18" width="40" height="40"/>
  </g>

</svg>
