<svg xmlns="http://www.w3.org/2000/svg" viewBox="0 0 1200 500" fill="none">
  <!--
    KHE 2027 — Hack the Kingdom
    Enchanted forest background layer: dark silhouetted trees against a nighttime sky.
    Designed to sit behind the castle on the landing page. Transparent background.

    Animation hooks:
      .tree / #tree-N   — translate Y slightly for subtle sway, or opacity pulse
      #wisps / .wisp    — translate/fade wisp groups for floating animation
      #forest-ground    — static ground; can shift for parallax
  -->

  <defs>
    <!-- Will-o-wisp glow filter -->
    <filter id="wisp-glow" x="-80%" y="-80%" width="260%" height="260%">
      <feGaussianBlur in="SourceGraphic" stdDeviation="6" result="blur"/>
      <feMerge>
        <feMergeNode in="blur"/>
        <feMergeNode in="blur"/>
        <feMergeNode in="SourceGraphic"/>
      </feMerge>
    </filter>

    <!-- Subtle glow for inner wisp core -->
    <filter id="wisp-core-glow" x="-100%" y="-100%" width="300%" height="300%">
      <feGaussianBlur in="SourceGraphic" stdDeviation="2.5" result="blur"/>
      <feMerge>
        <feMergeNode in="blur"/>
        <feMergeNode in="SourceGraphic"/>
      </feMerge>
    </filter>

    <!-- Soft edge fade on the overall forest — vignette to help blend into sky -->
    <linearGradient id="ground-fade" x1="0" y1="0" x2="0" y2="1">
      <stop offset="0%"   stop-color="#242430" stop-opacity="0"/>
      <stop offset="60%"  stop-color="#242430" stop-opacity="0.5"/>
      <stop offset="100%" stop-color="#242430" stop-opacity="1"/>
    </linearGradient>
  </defs>


  <!-- ═══════════════════════════════════════════════════════════════════
       GROUND / ROOTS BASE
       Slightly lumpy ground horizon at y~390-415, filling to bottom.
       ═══════════════════════════════════════════════════════════════════ -->
  <g id="forest-ground">
    <!-- Main ground silhouette — lumpy horizon line -->
    <path
      d="
        M 0,500
        L 0,410
        Q 18,402 38,408
        Q 58,414 80,406
        Q 105,398 130,404
        Q 155,410 175,402
        Q 200,393 225,399
        Q 248,405 268,397
        Q 288,389 310,395
        Q 332,401 355,393
        Q 378,385 400,391
        Q 422,397 445,390
        Q 468,383 490,389
        Q 512,395 535,388
        Q 558,381 580,387
        Q 602,393 625,386
        Q 648,379 670,385
        Q 692,391 715,384
        Q 738,377 760,383
        Q 782,389 802,382
        Q 822,375 845,381
        Q 868,387 892,380
        Q 916,373 940,380
        Q 964,387 988,381
        Q 1012,375 1035,382
        Q 1058,389 1080,382
        Q 1102,375 1125,382
        Q 1148,389 1165,384
        Q 1185,379 1200,383
        L 1200,500
        Z
      "
      fill="#242430"
    />

    <!-- Darker ground overlay to deepen the base -->
    <path
      d="
        M 0,500
        L 0,430
        Q 60,422 120,428
        Q 180,434 240,426
        Q 300,418 360,424
        Q 420,430 480,422
        Q 540,414 600,420
        Q 660,426 720,418
        Q 780,410 840,416
        Q 900,422 960,415
        Q 1020,408 1080,414
        Q 1140,420 1200,415
        L 1200,500
        Z
      "
      fill="#1e1e2a"
      opacity="0.7"
    />
  </g>


  <!-- ═══════════════════════════════════════════════════════════════════
       UNDERGROWTH — dark shrub silhouettes at ground level
       Simple rounded shapes between trees
       ═══════════════════════════════════════════════════════════════════ -->
  <g id="undergrowth" fill="#1e1e2a">

    <!-- Far left cluster undergrowth -->
    <ellipse cx="25"  cy="408" rx="28" ry="14"/>
    <ellipse cx="58"  cy="412" rx="36" ry="12"/>
    <ellipse cx="90"  cy="406" rx="24" ry="10"/>
    <ellipse cx="118" cy="410" rx="20" ry="9"/>

    <!-- Left-center undergrowth -->
    <ellipse cx="210" cy="403" rx="22" ry="10"/>
    <ellipse cx="245" cy="407" rx="30" ry="11"/>
    <ellipse cx="280" cy="402" rx="18" ry="9"/>

    <!-- Inner left undergrowth (fading toward center) -->
    <ellipse cx="355" cy="398" rx="26" ry="10"/>
    <ellipse cx="388" cy="402" rx="20" ry="8"/>

    <!-- Center sparse undergrowth (minimal — castle sits here) -->
    <ellipse cx="480" cy="396" rx="14" ry="7"  opacity="0.6"/>
    <ellipse cx="520" cy="398" rx="10" ry="6"  opacity="0.5"/>
    <ellipse cx="560" cy="395" rx="12" ry="6"  opacity="0.55"/>

    <!-- Inner right undergrowth -->
    <ellipse cx="640" cy="399" rx="22" ry="9"/>
    <ellipse cx="672" cy="403" rx="18" ry="8"/>

    <!-- Right-center undergrowth -->
    <ellipse cx="750" cy="404" rx="28" ry="11"/>
    <ellipse cx="785" cy="400" rx="24" ry="10"/>
    <ellipse cx="818" cy="406" rx="20" ry="9"/>

    <!-- Far right cluster undergrowth -->
    <ellipse cx="895" cy="408" rx="30" ry="12"/>
    <ellipse cx="930" cy="412" rx="22" ry="10"/>
    <ellipse cx="960" cy="407" rx="36" ry="13"/>
    <ellipse cx="995" cy="411" rx="28" ry="11"/>
    <ellipse cx="1025" cy="406" rx="20" ry="9"/>
    <ellipse cx="1060" cy="410" rx="32" ry="12"/>
    <ellipse cx="1095" cy="408" rx="26" ry="11"/>
    <ellipse cx="1130" cy="412" rx="38" ry="14"/>
    <ellipse cx="1170" cy="409" rx="30" ry="12"/>

    <!-- Extra gnarled low shrub lumps across base -->
    <path d="M 140,414 Q 155,402 170,408 Q 185,414 195,408 Q 205,402 215,408 Q 210,418 140,418 Z" fill="#1e1e2a"/>
    <path d="M 580,400 Q 598,390 615,397 Q 630,404 640,397 Q 635,410 580,410 Z" fill="#1e1e2a" opacity="0.7"/>
    <path d="M 850,406 Q 868,394 882,401 Q 896,408 908,401 Q 904,416 850,416 Z" fill="#1e1e2a"/>
  </g>


  <!-- ═══════════════════════════════════════════════════════════════════
       TREES — FAR LEFT CLUSTER  (trees 1–4)
       Dense grouping on the far left edge, trees tall and looming
       ═══════════════════════════════════════════════════════════════════ -->

  <!-- Tree 1 — Far left edge, very tall, leans slightly right, thin -->
  <g class="tree" id="tree-1" fill="#1a1a24">
    <!-- Trunk — twisted, slightly bowed leftward then right -->
    <path d="
      M 18,410
      C 10,380 6,340 14,295
      C 20,260 16,220 22,185
      C 26,155 20,120 28,90
      C 32,70 30,50 36,30
      L 40,30
      C 36,50 38,70 35,90
      C 30,120 36,155 32,185
      C 28,220 32,260 28,295
      C 22,340 26,380 34,410
      Z
    "/>
    <!-- Main branches left side -->
    <path d="M 30,180 C 14,168 -4,148 -10,128 C -6,125 0,128 6,138 C 12,148 24,162 30,172 Z"/>
    <path d="M 26,220 C 8,208 -12,188 -18,162 C -14,158 -8,162 -2,172 C 4,182 18,200 26,212 Z"/>
    <path d="M 32,140 C 20,122 8,98 10,74 C 14,71 18,76 20,88 C 22,100 28,120 32,132 Z"/>
    <!-- Twigs on left branches -->
    <path d="M -8,130 C -14,120 -20,112 -22,100" stroke="#1a1a24" stroke-width="1.5" fill="none"/>
    <path d="M -8,130 C -10,118 -8,108 -6,96"   stroke="#1a1a24" stroke-width="1.2" fill="none"/>
    <path d="M -16,165 C -22,155 -28,148 -32,136" stroke="#1a1a24" stroke-width="1.5" fill="none"/>
    <path d="M -16,165 C -18,152 -14,142 -12,130" stroke="#1a1a24" stroke-width="1.2" fill="none"/>
    <!-- Main branches right side -->
    <path d="M 36,100 C 50,86 64,66 68,44 C 64,41 60,44 56,54 C 52,64 44,80 38,94 Z"/>
    <path d="M 34,155 C 48,142 62,124 70,104 C 66,100 62,104 58,112 C 54,122 44,138 36,150 Z"/>
    <!-- Twigs on right branches -->
    <path d="M 66,46 C 72,36 78,28 84,18"   stroke="#1a1a24" stroke-width="1.5" fill="none"/>
    <path d="M 66,46 C 74,42 82,40 90,36"   stroke="#1a1a24" stroke-width="1.2" fill="none"/>
    <path d="M 68,106 C 76,94 84,84 88,72"  stroke="#1a1a24" stroke-width="1.5" fill="none"/>
    <path d="M 68,106 C 78,100 86,96 92,88" stroke="#1a1a24" stroke-width="1.2" fill="none"/>
    <!-- Crown top spindly tips -->
    <path d="M 36,32 C 32,18 34,8 36,0"    stroke="#1a1a24" stroke-width="2" fill="none"/>
    <path d="M 36,32 C 40,20 44,10 48,2"   stroke="#1a1a24" stroke-width="1.5" fill="none"/>
    <path d="M 36,32 C 30,22 26,14 22,6"   stroke="#1a1a24" stroke-width="1.5" fill="none"/>
    <!-- Gnarled roots -->
    <path d="M 18,410 C 8,418 -4,422 -10,420 C -6,412 4,408 14,406 Z"/>
    <path d="M 34,410 C 42,420 52,426 60,424 C 56,414 46,410 38,408 Z"/>
    <path d="M 26,412 C 22,424 18,432 12,436 C 10,428 16,420 22,414 Z"/>
  </g>

  <!-- Tree 2 — Left edge, shorter and wider, leans left, gnarly -->
  <g class="tree" id="tree-2" fill="#2e2e3a">
    <!-- Trunk — thick, bowed, wider base -->
    <path d="
      M 68,412
      C 60,390 56,355 62,318
      C 68,285 62,250 70,220
      C 76,196 70,165 78,140
      C 84,120 80,98 86,78
      L 94,78
      C 90,98 94,120 90,140
      C 84,165 90,196 86,220
      C 80,250 86,285 82,318
      C 76,355 80,390 90,412
      Z
    "/>
    <!-- Wide sweeping branch left — dramatic -->
    <path d="M 64,250 C 42,235 20,210 8,185 C 4,180 6,174 12,178 C 24,195 44,218 62,238 Z"/>
    <path d="M 66,210 C 48,195 30,172 22,148 C 18,143 22,138 28,142 C 38,158 54,180 64,200 Z"/>
    <!-- Left branch twigs -->
    <path d="M 10,187 C 2,175 -6,165 -12,152"  stroke="#2e2e3a" stroke-width="1.8" fill="none"/>
    <path d="M 10,187 C 4,173 2,160 4,145"    stroke="#2e2e3a" stroke-width="1.4" fill="none"/>
    <path d="M 24,144 C 16,130 10,118 6,104"  stroke="#2e2e3a" stroke-width="1.8" fill="none"/>
    <path d="M 24,144 C 20,130 22,116 26,102" stroke="#2e2e3a" stroke-width="1.4" fill="none"/>
    <!-- Right branches -->
    <path d="M 90,180 C 108,162 126,138 134,112 C 130,108 126,112 120,122 C 114,132 102,152 92,168 Z"/>
    <path d="M 86,280 C 104,264 118,244 122,220 C 118,216 114,220 110,230 C 106,240 96,258 88,272 Z"/>
    <!-- Right branch twigs -->
    <path d="M 132,114 C 140,100 148,88 152,74"  stroke="#2e2e3a" stroke-width="1.8" fill="none"/>
    <path d="M 132,114 C 142,106 150,100 158,92" stroke="#2e2e3a" stroke-width="1.4" fill="none"/>
    <!-- Crown -->
    <path d="M 88,80 C 84,64 86,50 88,36"  stroke="#2e2e3a" stroke-width="2.5" fill="none"/>
    <path d="M 88,80 C 94,66 100,52 106,40" stroke="#2e2e3a" stroke-width="2" fill="none"/>
    <path d="M 88,80 C 82,68 78,56 72,44"  stroke="#2e2e3a" stroke-width="2" fill="none"/>
    <!-- Dead twigs crown -->
    <path d="M 88,38 C 86,26 88,16 90,6"   stroke="#2e2e3a" stroke-width="1.5" fill="none"/>
    <path d="M 104,42 C 108,30 114,22 120,12" stroke="#2e2e3a" stroke-width="1.2" fill="none"/>
    <!-- Roots -->
    <path d="M 68,412 C 54,422 44,428 36,426 C 38,416 52,412 64,410 Z"/>
    <path d="M 90,412 C 100,424 114,430 122,428 C 118,418 106,412 96,410 Z"/>
    <path d="M 78,414 C 74,428 70,438 62,444 C 60,434 68,424 76,416 Z"/>
  </g>

  <!-- Tree 3 — Left cluster, tall spindly, slight rightward lean -->
  <g class="tree" id="tree-3" fill="#1a1a24">
    <!-- Trunk — very thin, curving gently -->
    <path d="
      M 140,413
      C 134,385 132,348 138,308
      C 142,276 138,240 144,205
      C 148,176 144,144 150,112
      C 154,86 150,60 156,34
      L 162,34
      C 158,60 162,86 160,112
      C 156,144 160,176 158,205
      C 154,240 158,276 156,308
      C 152,348 154,385 148,413
      Z
    "/>
    <!-- Reaching left branch — claw-like -->
    <path d="M 138,220 C 118,206 98,188 84,164 C 80,158 84,152 90,156 C 104,172 120,192 136,210 Z"/>
    <!-- Left claw twigs -->
    <path d="M 86,166 C 76,152 66,140 58,124"  stroke="#1a1a24" stroke-width="1.6" fill="none"/>
    <path d="M 86,166 C 80,150 80,134 84,118"  stroke="#1a1a24" stroke-width="1.3" fill="none"/>
    <path d="M 86,166 C 72,158 62,152 52,142"  stroke="#1a1a24" stroke-width="1.3" fill="none"/>
    <!-- Right branches -->
    <path d="M 156,160 C 174,144 192,122 198,96 C 194,92 190,96 184,106 C 178,118 166,138 158,152 Z"/>
    <path d="M 158,260 C 172,248 184,232 190,212 C 186,208 182,212 178,222 C 174,232 164,246 160,258 Z"/>
    <!-- Right twigs -->
    <path d="M 196,98 C 204,84 212,72 218,58"  stroke="#1a1a24" stroke-width="1.6" fill="none"/>
    <path d="M 196,98 C 206,92 214,88 222,80"  stroke="#1a1a24" stroke-width="1.3" fill="none"/>
    <!-- Crown spikes -->
    <path d="M 158,36 C 154,20 156,8 158,0"   stroke="#1a1a24" stroke-width="2.2" fill="none"/>
    <path d="M 158,36 C 164,22 170,10 176,2"  stroke="#1a1a24" stroke-width="1.6" fill="none"/>
    <path d="M 158,36 C 152,24 146,12 140,4"  stroke="#1a1a24" stroke-width="1.6" fill="none"/>
    <path d="M 158,36 C 168,28 178,22 188,18" stroke="#1a1a24" stroke-width="1.2" fill="none"/>
    <!-- Roots -->
    <path d="M 140,413 C 128,423 116,430 108,428 C 112,418 126,414 138,412 Z"/>
    <path d="M 148,413 C 156,425 166,432 176,430 C 172,420 162,414 152,412 Z"/>
  </g>

  <!-- Tree 4 — Left cluster inner edge, medium height, tilts left, wider crown -->
  <g class="tree" id="tree-4" fill="#2e2e3a">
    <!-- Trunk — medium, kinked at mid-point -->
    <path d="
      M 218,414
      C 212,390 210,360 216,326
      C 220,300 214,268 220,238
      C 224,214 218,185 224,158
      C 230,134 226,108 232,82
      L 240,82
      C 236,108 240,134 236,158
      C 230,185 236,214 234,238
      C 230,268 234,300 232,326
      C 228,360 232,390 228,414
      Z
    "/>
    <!-- Sweeping left branch — very wide reach -->
    <path d="M 216,200 C 194,184 172,164 158,138 C 154,132 158,126 165,130 C 180,148 200,168 214,190 Z"/>
    <path d="M 220,270 C 200,256 178,238 166,214 C 162,208 166,202 173,206 C 186,222 206,242 218,262 Z"/>
    <!-- Left twigs -->
    <path d="M 160,140 C 148,124 138,110 130,94"  stroke="#2e2e3a" stroke-width="1.8" fill="none"/>
    <path d="M 160,140 C 152,124 150,108 154,92"  stroke="#2e2e3a" stroke-width="1.4" fill="none"/>
    <path d="M 168,208 C 156,192 146,178 138,160" stroke="#2e2e3a" stroke-width="1.8" fill="none"/>
    <!-- Right branches — upward reaching -->
    <path d="M 236,140 C 252,122 268,100 276,76 C 272,72 268,76 262,86 C 256,98 244,118 238,134 Z"/>
    <!-- Right twigs -->
    <path d="M 274,78 C 282,62 290,48 296,34"   stroke="#2e2e3a" stroke-width="1.8" fill="none"/>
    <path d="M 274,78 C 284,70 292,64 300,56"   stroke="#2e2e3a" stroke-width="1.4" fill="none"/>
    <path d="M 274,78 C 278,64 282,52 284,38"   stroke="#2e2e3a" stroke-width="1.2" fill="none"/>
    <!-- Crown -->
    <path d="M 234,84 C 230,68 232,52 234,36"  stroke="#2e2e3a" stroke-width="2.5" fill="none"/>
    <path d="M 234,84 C 240,70 246,56 252,42"  stroke="#2e2e3a" stroke-width="2" fill="none"/>
    <path d="M 234,84 C 228,72 222,60 216,48"  stroke="#2e2e3a" stroke-width="2" fill="none"/>
    <!-- Roots -->
    <path d="M 218,414 C 206,426 194,434 184,432 C 188,420 202,416 216,413 Z"/>
    <path d="M 228,414 C 238,428 250,436 262,434 C 258,422 246,416 232,413 Z"/>
    <path d="M 224,416 C 220,430 216,442 208,448 C 206,438 214,428 222,418 Z"/>
  </g>


  <!-- ═══════════════════════════════════════════════════════════════════
       TREES — LEFT-INNER  (trees 5–6)
       Thinner, more sparse, reaching inward — fades toward center
       ═══════════════════════════════════════════════════════════════════ -->

  <!-- Tree 5 — Left inner, tall and thin, leans toward center slightly -->
  <g class="tree" id="tree-5" fill="#1a1a24">
    <!-- Trunk -->
    <path d="
      M 330,414
      C 326,388 324,354 330,318
      C 334,290 330,256 336,222
      C 340,196 336,162 342,130
      C 346,104 342,74 348,46
      L 354,46
      C 350,74 354,104 352,130
      C 348,162 352,196 350,222
      C 348,256 352,290 354,318
      C 360,354 358,388 356,414
      Z
    "/>
    <!-- Long reaching left branch -->
    <path d="M 330,250 C 306,234 286,212 274,188 C 270,182 275,176 282,180 C 296,196 314,218 328,240 Z"/>
    <!-- Left twigs -->
    <path d="M 276,190 C 262,172 252,156 244,138" stroke="#1a1a24" stroke-width="1.6" fill="none"/>
    <path d="M 276,190 C 268,174 268,156 272,140" stroke="#1a1a24" stroke-width="1.3" fill="none"/>
    <!-- Right branch angling toward center gap -->
    <path d="M 352,170 C 372,152 390,128 398,102 C 394,98 390,102 384,112 C 378,124 364,146 354,164 Z"/>
    <!-- Right twigs -->
    <path d="M 396,104 C 404,88 412,74 418,58"  stroke="#1a1a24" stroke-width="1.6" fill="none"/>
    <path d="M 396,104 C 408,96 416,90 424,80"  stroke="#1a1a24" stroke-width="1.3" fill="none"/>
    <!-- Crown spindly -->
    <path d="M 350,48 C 346,30 348,16 350,2"   stroke="#1a1a24" stroke-width="2" fill="none"/>
    <path d="M 350,48 C 356,32 362,18 368,6"   stroke="#1a1a24" stroke-width="1.5" fill="none"/>
    <path d="M 350,48 C 344,34 338,20 334,8"   stroke="#1a1a24" stroke-width="1.5" fill="none"/>
    <!-- Roots -->
    <path d="M 330,414 C 316,426 304,432 296,430 C 300,420 314,415 328,413 Z"/>
    <path d="M 356,414 C 366,427 378,434 388,432 C 384,421 372,415 358,413 Z"/>
  </g>

  <!-- Tree 6 — Left inner edge, shorter, leaning left with dramatic drooping branch -->
  <g class="tree" id="tree-6" fill="#2e2e3a">
    <!-- Trunk — knotted, wider, shorter -->
    <path d="
      M 400,415
      C 394,392 392,362 398,332
      C 402,308 396,278 402,250
      C 406,228 400,200 406,174
      C 410,152 406,128 410,106
      L 418,106
      C 414,128 418,152 416,174
      C 412,200 416,228 414,250
      C 412,278 416,308 418,332
      C 424,362 420,392 420,415
      Z
    "/>
    <!-- Drooping branch left — heavy, dead weight -->
    <path d="M 398,230 C 376,224 354,228 330,238 C 318,244 310,252 304,262 C 308,266 316,264 326,258 C 340,250 358,244 376,240 C 392,237 400,236 402,232 Z"/>
    <!-- Droop twigs -->
    <path d="M 308,264 C 296,272 284,278 272,282" stroke="#2e2e3a" stroke-width="1.6" fill="none"/>
    <path d="M 308,264 C 298,274 292,284 288,296" stroke="#2e2e3a" stroke-width="1.3" fill="none"/>
    <!-- Upper right branch -->
    <path d="M 416,160 C 432,144 448,122 454,96 C 450,92 446,96 440,106 C 434,118 422,138 418,154 Z"/>
    <!-- Right twigs -->
    <path d="M 452,98 C 460,82 468,68 472,54"  stroke="#2e2e3a" stroke-width="1.6" fill="none"/>
    <path d="M 452,98 C 462,90 472,84 480,74"  stroke="#2e2e3a" stroke-width="1.3" fill="none"/>
    <!-- Crown -->
    <path d="M 412,108 C 408,90 410,74 412,58"  stroke="#2e2e3a" stroke-width="2.4" fill="none"/>
    <path d="M 412,108 C 418,92 424,78 430,64"  stroke="#2e2e3a" stroke-width="1.8" fill="none"/>
    <path d="M 412,108 C 406,94 400,80 396,66"  stroke="#2e2e3a" stroke-width="1.8" fill="none"/>
    <!-- Roots -->
    <path d="M 400,415 C 388,427 374,435 364,433 C 368,421 382,416 398,414 Z"/>
    <path d="M 420,415 C 430,429 444,437 456,435 C 452,423 438,416 422,414 Z"/>
    <path d="M 410,417 C 406,431 402,443 394,450 C 392,440 400,430 408,419 Z"/>
  </g>


  <!-- ═══════════════════════════════════════════════════════════════════
       TREES — FAR RIGHT CLUSTER  (trees 7–10)
       Mirror in spirit but unique shapes — dense on right edge
       ═══════════════════════════════════════════════════════════════════ -->

  <!-- Tree 7 — Right inner edge, leans right, long left-reaching claws toward center gap -->
  <g class="tree" id="tree-7" fill="#2e2e3a">
    <!-- Trunk -->
    <path d="
      M 768,415
      C 764,390 762,358 768,324
      C 772,296 768,264 774,232
      C 778,206 774,174 780,144
      C 784,118 780,90 784,62
      L 792,62
      C 788,90 792,118 790,144
      C 786,174 790,206 788,232
      C 786,264 790,296 792,324
      C 798,358 796,390 796,415
      Z
    "/>
    <!-- Long left branch reaching toward center — sinister claw feel -->
    <path d="M 768,220 C 744,206 722,188 706,162 C 702,156 706,150 714,154 C 728,170 748,190 766,210 Z"/>
    <path d="M 770,280 C 748,266 726,246 714,220 C 710,214 715,208 722,212 C 736,228 756,250 768,272 Z"/>
    <!-- Left claw twigs -->
    <path d="M 708,156 C 694,138 682,122 672,104" stroke="#2e2e3a" stroke-width="1.8" fill="none"/>
    <path d="M 708,156 C 700,140 698,122 702,106" stroke="#2e2e3a" stroke-width="1.4" fill="none"/>
    <path d="M 708,156 C 696,148 686,142 674,136" stroke="#2e2e3a" stroke-width="1.4" fill="none"/>
    <path d="M 716,214 C 702,196 690,180 680,162"  stroke="#2e2e3a" stroke-width="1.8" fill="none"/>
    <path d="M 716,214 C 708,196 706,180 710,162"  stroke="#2e2e3a" stroke-width="1.4" fill="none"/>
    <!-- Right branches -->
    <path d="M 790,160 C 808,142 826,118 834,92 C 830,88 826,92 820,102 C 814,114 800,136 792,154 Z"/>
    <path d="M 792,240 C 808,224 824,204 830,180 C 826,176 822,180 818,190 C 814,202 802,220 794,236 Z"/>
    <!-- Right twigs -->
    <path d="M 832,94 C 840,78 848,64 852,48"  stroke="#2e2e3a" stroke-width="1.8" fill="none"/>
    <path d="M 832,94 C 844,86 852,80 860,70"  stroke="#2e2e3a" stroke-width="1.4" fill="none"/>
    <!-- Crown -->
    <path d="M 786,64 C 782,46 784,30 786,14"  stroke="#2e2e3a" stroke-width="2.5" fill="none"/>
    <path d="M 786,64 C 792,48 798,32 804,18"  stroke="#2e2e3a" stroke-width="2" fill="none"/>
    <path d="M 786,64 C 780,50 774,36 770,20"  stroke="#2e2e3a" stroke-width="2" fill="none"/>
    <!-- Dead twigs -->
    <path d="M 786,16 C 784,4 786,0 788,0"    stroke="#2e2e3a" stroke-width="1.5" fill="none"/>
    <path d="M 802,20 C 808,8 814,0 820,0"    stroke="#2e2e3a" stroke-width="1.2" fill="none"/>
    <!-- Roots -->
    <path d="M 768,415 C 754,427 740,434 730,432 C 734,421 750,416 766,414 Z"/>
    <path d="M 796,415 C 806,428 820,436 832,434 C 828,422 814,416 798,414 Z"/>
    <path d="M 782,417 C 778,431 774,443 766,450 C 764,440 772,430 780,418 Z"/>
  </g>

  <!-- Tree 8 — Right cluster, tall and looming, slightly left lean, spindly crown -->
  <g class="tree" id="tree-8" fill="#1a1a24">
    <!-- Trunk — tall, slightly bowed -->
    <path d="
      M 880,412
      C 872,382 870,344 876,302
      C 882,268 876,232 882,198
      C 888,170 882,136 888,104
      C 892,78 888,50 894,22
      L 900,22
      C 896,50 900,78 898,104
      C 894,136 900,170 896,198
      C 892,232 896,268 900,302
      C 906,344 904,382 906,412
      Z
    "/>
    <!-- Major left branch — wide sweep -->
    <path d="M 876,240 C 852,226 828,206 812,180 C 808,174 812,168 820,172 C 836,188 858,210 874,232 Z"/>
    <path d="M 878,300 C 856,286 832,264 820,238 C 816,232 820,226 828,230 C 842,248 864,270 876,292 Z"/>
    <!-- Left twigs -->
    <path d="M 814,174 C 800,156 786,140 776,122" stroke="#1a1a24" stroke-width="1.8" fill="none"/>
    <path d="M 814,174 C 806,158 804,140 808,124" stroke="#1a1a24" stroke-width="1.4" fill="none"/>
    <path d="M 822,232 C 808,214 796,198 786,180"  stroke="#1a1a24" stroke-width="1.8" fill="none"/>
    <!-- Right branches reaching outward -->
    <path d="M 898,160 C 918,140 938,114 948,86 C 944,82 940,86 934,96 C 928,108 912,132 900,154 Z"/>
    <path d="M 900,260 C 920,242 938,218 946,192 C 942,188 938,192 932,204 C 926,216 910,238 902,254 Z"/>
    <!-- Right twigs -->
    <path d="M 946,88 C 956,70 966,54 972,36"   stroke="#1a1a24" stroke-width="1.8" fill="none"/>
    <path d="M 946,88 C 958,80 968,72 978,62"   stroke="#1a1a24" stroke-width="1.4" fill="none"/>
    <path d="M 946,88 C 952,74 956,60 958,44"   stroke="#1a1a24" stroke-width="1.2" fill="none"/>
    <!-- Crown — many spiky tips -->
    <path d="M 896,24 C 892,8 894,0 896,0"      stroke="#1a1a24" stroke-width="2.2" fill="none"/>
    <path d="M 896,24 C 902,8 908,0 914,0"      stroke="#1a1a24" stroke-width="1.6" fill="none"/>
    <path d="M 896,24 C 890,10 884,0 878,0"     stroke="#1a1a24" stroke-width="1.6" fill="none"/>
    <path d="M 896,24 C 904,14 912,8 920,4"     stroke="#1a1a24" stroke-width="1.2" fill="none"/>
    <path d="M 896,24 C 886,14 878,8 870,4"     stroke="#1a1a24" stroke-width="1.2" fill="none"/>
    <!-- Roots -->
    <path d="M 880,412 C 866,424 852,432 840,430 C 844,418 860,413 878,411 Z"/>
    <path d="M 906,412 C 918,426 932,434 944,432 C 940,420 926,413 908,411 Z"/>
    <path d="M 893,414 C 889,428 885,440 877,446 C 875,436 883,426 891,416 Z"/>
  </g>

  <!-- Tree 9 — Far right, shorter and wider, dense twisted form -->
  <g class="tree" id="tree-9" fill="#2e2e3a">
    <!-- Trunk — thick, heavily bowed rightward -->
    <path d="
      M 1000,413
      C 990,386 988,348 996,310
      C 1002,280 994,246 1000,215
      C 1004,190 996,160 1002,132
      C 1008,108 1002,80 1008,54
      L 1018,54
      C 1012,80 1016,108 1014,132
      C 1010,160 1016,190 1014,215
      C 1012,246 1016,280 1020,310
      C 1026,348 1024,386 1024,413
      Z
    "/>
    <!-- Heavy left branch toward center gap -->
    <path d="M 996,260 C 972,246 948,224 934,198 C 930,192 934,186 942,190 C 956,206 978,228 994,252 Z"/>
    <!-- Left twigs -->
    <path d="M 936,192 C 920,172 906,154 894,134" stroke="#2e2e3a" stroke-width="1.8" fill="none"/>
    <path d="M 936,192 C 928,174 926,156 930,138" stroke="#2e2e3a" stroke-width="1.4" fill="none"/>
    <path d="M 936,192 C 922,184 910,178 898,170" stroke="#2e2e3a" stroke-width="1.4" fill="none"/>
    <!-- Sweeping right branches — reaching outward -->
    <path d="M 1018,170 C 1038,148 1060,122 1072,92 C 1068,88 1062,92 1056,104 C 1048,118 1030,142 1020,164 Z"/>
    <path d="M 1020,270 C 1040,250 1060,226 1068,198 C 1064,194 1060,198 1054,210 C 1048,224 1032,246 1022,264 Z"/>
    <path d="M 1016,120 C 1032,104 1048,84 1054,60 C 1050,56 1046,60 1040,70 C 1034,82 1022,100 1018,116 Z"/>
    <!-- Right twigs -->
    <path d="M 1070,94 C 1080,76 1090,60 1096,42"   stroke="#2e2e3a" stroke-width="1.8" fill="none"/>
    <path d="M 1070,94 C 1082,86 1092,78 1102,68"   stroke="#2e2e3a" stroke-width="1.4" fill="none"/>
    <path d="M 1066,200 C 1076,182 1086,166 1092,148" stroke="#2e2e3a" stroke-width="1.6" fill="none"/>
    <path d="M 1052,62 C 1060,46 1070,32 1076,16"   stroke="#2e2e3a" stroke-width="1.6" fill="none"/>
    <path d="M 1052,62 C 1064,54 1074,48 1084,38"   stroke="#2e2e3a" stroke-width="1.3" fill="none"/>
    <!-- Crown -->
    <path d="M 1010,56 C 1006,36 1008,20 1010,4"   stroke="#2e2e3a" stroke-width="2.5" fill="none"/>
    <path d="M 1010,56 C 1016,38 1022,24 1028,10"  stroke="#2e2e3a" stroke-width="2" fill="none"/>
    <path d="M 1010,56 C 1004,40 998,26 994,12"    stroke="#2e2e3a" stroke-width="2" fill="none"/>
    <!-- Crown dead twigs -->
    <path d="M 1010,6 C 1008,0 1010,0 1012,0"     stroke="#2e2e3a" stroke-width="1.5" fill="none"/>
    <path d="M 1026,12 C 1032,2 1038,0 1044,0"    stroke="#2e2e3a" stroke-width="1.2" fill="none"/>
    <!-- Roots -->
    <path d="M 1000,413 C 986,425 972,433 960,431 C 964,419 978,414 998,412 Z"/>
    <path d="M 1024,413 C 1036,427 1050,435 1062,433 C 1058,421 1044,414 1026,412 Z"/>
    <path d="M 1012,415 C 1008,429 1004,441 996,448 C 994,438 1002,428 1010,417 Z"/>
  </g>

  <!-- Tree 10 — Far right edge, very tall and thin, leans outward -->
  <g class="tree" id="tree-10" fill="#1a1a24">
    <!-- Trunk — tall, thin, curving right -->
    <path d="
      M 1110,413
      C 1102,382 1100,342 1108,300
      C 1114,266 1108,230 1116,196
      C 1122,168 1116,132 1122,98
      C 1128,70 1124,40 1132,12
      L 1138,12
      C 1132,40 1136,70 1132,98
      C 1128,132 1134,168 1130,196
      C 1126,230 1130,266 1134,300
      C 1142,342 1140,382 1142,413
      Z
    "/>
    <!-- Left branches reaching back across scene -->
    <path d="M 1108,250 C 1082,234 1058,212 1042,184 C 1038,178 1042,172 1050,176 C 1066,194 1088,216 1106,242 Z"/>
    <path d="M 1110,180 C 1090,164 1070,140 1060,114 C 1056,108 1060,102 1068,106 C 1082,124 1100,148 1108,172 Z"/>
    <!-- Left twigs -->
    <path d="M 1044,178 C 1028,158 1014,140 1002,120" stroke="#1a1a24" stroke-width="1.8" fill="none"/>
    <path d="M 1044,178 C 1036,160 1034,142 1038,124" stroke="#1a1a24" stroke-width="1.4" fill="none"/>
    <path d="M 1062,108 C 1048,90 1036,72 1028,54"   stroke="#1a1a24" stroke-width="1.8" fill="none"/>
    <path d="M 1062,108 C 1056,92 1054,74 1058,58"   stroke="#1a1a24" stroke-width="1.4" fill="none"/>
    <!-- Right branches — outward sweep -->
    <path d="M 1132,150 C 1152,130 1172,104 1182,76 C 1178,72 1174,76 1168,88 C 1162,100 1146,124 1134,144 Z"/>
    <path d="M 1134,270 C 1154,252 1172,228 1180,200 C 1176,196 1172,200 1166,212 C 1160,226 1146,248 1136,264 Z"/>
    <!-- Right twigs -->
    <path d="M 1180,78 C 1190,60 1200,44 1204,26"  stroke="#1a1a24" stroke-width="1.8" fill="none"/>
    <path d="M 1180,78 C 1192,70 1202,62 1210,50"  stroke="#1a1a24" stroke-width="1.4" fill="none"/>
    <!-- Crown — spiky silhouette -->
    <path d="M 1134,14 C 1130,0 1132,0 1134,0"    stroke="#1a1a24" stroke-width="2.2" fill="none"/>
    <path d="M 1134,14 C 1140,2 1146,0 1152,0"    stroke="#1a1a24" stroke-width="1.6" fill="none"/>
    <path d="M 1134,14 C 1128,2 1122,0 1116,0"    stroke="#1a1a24" stroke-width="1.6" fill="none"/>
    <path d="M 1134,14 C 1142,6 1150,2 1158,0"    stroke="#1a1a24" stroke-width="1.2" fill="none"/>
    <!-- Roots -->
    <path d="M 1110,413 C 1096,425 1082,433 1070,431 C 1074,419 1090,413 1108,411 Z"/>
    <path d="M 1142,413 C 1154,427 1168,435 1180,433 C 1176,421 1162,413 1144,411 Z"/>
    <path d="M 1126,415 C 1122,429 1118,441 1110,448 C 1108,438 1116,428 1124,417 Z"/>
  </g>

  <!-- Tree 11 — Far right extreme edge, partially off-screen, very wide and dark -->
  <g class="tree" id="tree-11" fill="#1a1a24">
    <!-- Trunk — very wide at base, vanishing off right edge -->
    <path d="
      M 1180,415
      C 1170,385 1168,348 1176,308
      C 1180,278 1174,245 1180,214
      C 1184,190 1178,158 1184,126
      L 1194,126
      C 1190,158 1196,190 1192,214
      C 1188,245 1192,278 1196,308
      C 1202,348 1200,385 1205,415
      Z
    "/>
    <!-- Big left branches reaching into scene -->
    <path d="M 1176,230 C 1150,214 1128,192 1114,164 C 1110,158 1114,152 1122,156 C 1138,174 1158,196 1174,222 Z"/>
    <path d="M 1178,300 C 1154,284 1130,262 1118,234 C 1114,228 1118,222 1126,226 C 1140,244 1162,268 1176,292 Z"/>
    <!-- Left twigs -->
    <path d="M 1116,158 C 1100,138 1086,120 1074,100"  stroke="#1a1a24" stroke-width="1.8" fill="none"/>
    <path d="M 1116,158 C 1108,140 1106,120 1110,102"  stroke="#1a1a24" stroke-width="1.4" fill="none"/>
    <path d="M 1120,228 C 1104,208 1090,190 1078,170"  stroke="#1a1a24" stroke-width="1.8" fill="none"/>
    <!-- Right branch off-screen -->
    <path d="M 1192,180 C 1212,160 1232,134 1246,106 C 1250,100 1248,92 1242,98 C 1230,114 1212,138 1196,162 Z"/>
    <!-- Crown -->
    <path d="M 1186,128 C 1182,108 1184,90 1186,70"  stroke="#1a1a24" stroke-width="2.5" fill="none"/>
    <path d="M 1186,128 C 1192,110 1198,92 1204,74"  stroke="#1a1a24" stroke-width="2" fill="none"/>
    <path d="M 1186,128 C 1180,112 1174,96 1168,80"  stroke="#1a1a24" stroke-width="2" fill="none"/>
    <path d="M 1186,72 C 1184,54 1186,38 1188,22"    stroke="#1a1a24" stroke-width="1.8" fill="none"/>
    <path d="M 1202,76 C 1208,58 1216,42 1222,24"    stroke="#1a1a24" stroke-width="1.5" fill="none"/>
    <!-- Roots -->
    <path d="M 1180,415 C 1166,427 1152,435 1140,433 C 1144,421 1160,415 1178,413 Z"/>
    <path d="M 1205,415 C 1215,429 1226,435 1235,433 C 1231,422 1220,415 1207,413 Z"/>
  </g>


  <!-- ═══════════════════════════════════════════════════════════════════
       WILL-O-WISPS
       translate/fade wisp groups for floating animation
       ═══════════════════════════════════════════════════════════════════ -->
  <!-- translate/fade wisp groups for floating animation -->
  <g id="wisps">

    <!-- Wisp 1 — between trees on left side, mid-height -->
    <g class="wisp" id="wisp-1" filter="url(#wisp-glow)">
      <!-- Outer glow -->
      <circle cx="290" cy="340" r="16" fill="#7affcc" opacity="0.18"/>
      <!-- Mid glow -->
      <circle cx="290" cy="340" r="9"  fill="#7affcc" opacity="0.32"/>
      <!-- Core -->
      <circle cx="290" cy="340" r="4"  fill="#7affcc" opacity="0.60" filter="url(#wisp-core-glow)"/>
    </g>

    <!-- Wisp 2 — center-left, lower, closer to ground -->
    <g class="wisp" id="wisp-2" filter="url(#wisp-glow)">
      <!-- Outer glow -->
      <circle cx="490" cy="370" r="14" fill="#7affcc" opacity="0.16"/>
      <!-- Mid glow -->
      <circle cx="490" cy="370" r="8"  fill="#7affcc" opacity="0.28"/>
      <!-- Core -->
      <circle cx="490" cy="370" r="3.5" fill="#7affcc" opacity="0.55" filter="url(#wisp-core-glow)"/>
    </g>

    <!-- Wisp 3 — right side, floating higher, between trees 7 and 8 -->
    <g class="wisp" id="wisp-3" filter="url(#wisp-glow)">
      <!-- Outer glow -->
      <circle cx="860" cy="310" r="18" fill="#7affcc" opacity="0.15"/>
      <!-- Mid glow -->
      <circle cx="860" cy="310" r="10" fill="#7affcc" opacity="0.26"/>
      <!-- Core -->
      <circle cx="860" cy="310" r="4.5" fill="#7affcc" opacity="0.52" filter="url(#wisp-core-glow)"/>
    </g>

  </g><!-- /#wisps -->

</svg>
