<svg xmlns="http://www.w3.org/2000/svg" viewBox="0 0 180 200" fill="none">
  <title>Gargoyle — Hack the Kingdom (KHE 2027)</title>

  

  <!-- ═══════════════════════════════════════════
       PARAPET BLOCK
       ═══════════════════════════════════════════ -->
  <g id="gargoyle-parapet">
    
    <rect x="0" y="158" width="180" height="42" fill="#4a4a5c"/>
    
    <rect x="0" y="155" width="180" height="6" fill="#5c5c70"/>
    
    <rect x="0" y="161" width="180" height="3" fill="#2e2e3a"/>
    
    <rect x="0" y="178" width="180" height="2" fill="#242430"/>
    
    <rect x="28"  y="162" width="2" height="16" fill="#242430"/>
    <rect x="60"  y="162" width="2" height="16" fill="#242430"/>
    <rect x="92"  y="162" width="2" height="16" fill="#242430"/>
    <rect x="124" y="162" width="2" height="16" fill="#242430"/>
    <rect x="156" y="162" width="2" height="16" fill="#242430"/>
    
    <rect x="14"  y="180" width="2" height="18" fill="#242430"/>
    <rect x="46"  y="180" width="2" height="18" fill="#242430"/>
    <rect x="78"  y="180" width="2" height="18" fill="#242430"/>
    <rect x="110" y="180" width="2" height="18" fill="#242430"/>
    <rect x="142" y="180" width="2" height="18" fill="#242430"/>
    <rect x="174" y="180" width="2" height="18" fill="#242430"/>
    
    <rect x="0"   y="162" width="28" height="4" fill="#565668"/>
    <rect x="30"  y="162" width="30" height="4" fill="#4f4f62"/>
    <rect x="62"  y="162" width="30" height="4" fill="#565668"/>
    <rect x="94"  y="162" width="30" height="4" fill="#4f4f62"/>
    <rect x="126" y="162" width="30" height="4" fill="#565668"/>
    <rect x="158" y="162" width="22" height="4" fill="#4f4f62"/>
  </g>

  <!-- ═══════════════════════════════════════════
       WINGS (behind body)
       ═══════════════════════════════════════════ -->
  <g id="gargoyle-wings">
    
    <path d="
      M 72 130
      C 58 118, 30 105, 12 80
      C 8  68,  14  55, 26 52
      C 38 48,  48  58, 52 68
      C 44 60,  38  52, 42 46
      C 46 38,  58  40, 64 50
      C 58 44,  56  36, 62 32
      C 68 26,  78  30, 80 42
      C 82 34,  84  28, 90 28
      C 96 28,  98  36, 96 46
      C 98 40, 100  36,106 38
      C 112 40, 112 48, 108 58
      C 106 66, 98  72, 92 78
      C 84  90, 78 112, 72 130
      Z
    " fill="#3a3a4e"/>
    
    <path d="
      M 72 128
      C 62 116, 38 104, 22 82
      C 18 72,  24  62, 34 60
      C 42 58,  50  66, 54 74
      C 48 66,  44  58, 48 53
      C 52 46,  62  48, 66 57
      C 62 50,  62  42, 66 38
      C 70 32,  78  36, 78 46
      C 80 38,  84  32, 90 32
      C 94 32,  96  40, 94 50
      C 96 44, 100  40,104 42
      C 108 44, 108 52, 105 60
      C 102 68, 96  74, 90 80
      C 84  92, 78 112, 72 128
      Z
    " fill="#2e2e3a" opacity="0.45"/>
    
    
    <line x1="90" y1="28" x2="72" y2="130" stroke="#2e2e3a" stroke-width="1.5" opacity="0.6"/>
    
    <line x1="80" y1="42" x2="72" y2="130" stroke="#2e2e3a" stroke-width="1" opacity="0.4"/>
    
    <line x1="64" y1="50" x2="72" y2="130" stroke="#2e2e3a" stroke-width="1" opacity="0.4"/>
    
    <line x1="52" y1="68" x2="72" y2="130" stroke="#2e2e3a" stroke-width="1" opacity="0.4"/>
    
    <polygon points="90,28 86,22 94,24" fill="#4a4a5c"/>
    <polygon points="80,42 76,36 84,38" fill="#4a4a5c"/>
    <polygon points="64,50 60,44 68,46" fill="#4a4a5c"/>
    <polygon points="42,46 38,40 46,44" fill="#4a4a5c"/>
    <polygon points="26,52 22,46 30,50" fill="#4a4a5c"/>
  </g>

  <!-- ═══════════════════════════════════════════
       BODY
       ═══════════════════════════════════════════ -->
  <g id="gargoyle-body">

    
    <path d="
      M 58 155
      C 50 148, 44 138, 46 126
      C 48 114, 58 108, 70 108
      C 82 108, 90 114, 92 126
      L 94 155
      Z
    " fill="#4a4a5c"/>
    
    <path d="
      M 64 155
      C 56 148, 52 138, 54 126
      C 56 116, 64 112, 72 112
      C 68 118, 66 130, 66 145
      Z
    " fill="#6b6b80" opacity="0.5"/>
    
    <path d="
      M 88 155
      C 90 142, 92 128, 88 120
      C 84 112, 78 110, 74 110
      C 80 114, 86 124, 88 140
      Z
    " fill="#2e2e3a" opacity="0.5"/>

    
    <path d="
      M 50 155
      C 44 148, 40 140, 42 132
      C 44 124, 52 120, 58 124
      C 56 128, 54 136, 54 148
      L 50 155
      Z
    " fill="#3e3e50"/>
    
    <path d="
      M 90 155
      C 94 148, 98 140, 96 132
      C 94 124, 86 120, 80 124
      C 82 128, 84 136, 84 148
      L 90 155
      Z
    " fill="#3e3e50"/>

    
    <path d="M 42 154 C 36 152, 30 155, 28 160 L 44 158 Z" fill="#4a4a5c"/>
    <path d="M 38 156 L 26 162 L 28 165 L 40 160 Z" fill="#2e2e3a"/>
    <path d="M 34 158 L 20 166 L 22 169 L 36 162 Z" fill="#2e2e3a"/>
    <path d="M 40 155 L 30 168 L 33 170 L 43 157 Z" fill="#2e2e3a"/>
    
    <path d="M 98 154 C 104 152, 110 155, 112 160 L 96 158 Z" fill="#4a4a5c"/>
    <path d="M 102 156 L 114 162 L 112 165 L 100 160 Z" fill="#2e2e3a"/>
    <path d="M 106 158 L 120 166 L 118 169 L 104 162 Z" fill="#2e2e3a"/>
    <path d="M 100 155 L 110 168 L 107 170 L 97 157 Z" fill="#2e2e3a"/>

    
    <path d="
      M 58 155
      C 54 140, 52 128, 54 116
      C 56 104, 64  96, 74  94
      C 84  92, 96  98, 100 110
      C 104 120, 102 138, 98 155
      Z
    " fill="#4a4a5c"/>
    
    <path d="
      M 60 152
      C 56 138, 56 124, 60 114
      C 62 108, 68 102, 74 100
      C 68 106, 64 118, 64 138
      Z
    " fill="#6b6b80" opacity="0.5"/>
    
    <path d="
      M 96 152
      C 100 136, 102 120, 98 110
      C 94 100, 86 96, 80 96
      C 86 102, 92 116, 94 138
      Z
    " fill="#2e2e3a" opacity="0.5"/>
    
    <ellipse cx="76" cy="100" rx="4" ry="3" fill="#5a5a70" opacity="0.7"/>
    <ellipse cx="78" cy="110" rx="3.5" ry="2.5" fill="#5a5a70" opacity="0.6"/>
    <ellipse cx="80" cy="120" rx="3" ry="2" fill="#5a5a70" opacity="0.5"/>

    
    <path d="
      M 68 98
      C 66 90, 68  84, 74  82
      C 80  80, 86  84, 86 92
      L 86 98
      C 80 96, 70 96, 68 98
      Z
    " fill="#4a4a5c"/>

    
    <path d="
      M 54 138
      C 46 136, 36 138, 28 142
      C 20 146, 16 152, 18 158
      L 56 158
      C 56 148, 54 142, 54 138
      Z
    " fill="#4a4a5c"/>
    
    <path d="
      M 54 138
      C 46 136, 40 138, 36 140
      C 32 142, 28 146, 28 152
      C 34 148, 42 144, 50 142
      Z
    " fill="#6b6b80" opacity="0.45"/>
    
    <path d="
      M 22 156
      C 20 150, 24 146, 30 144
      C 36 142, 42 142, 48 144
      L 52 158
      Z
    " fill="#2e2e3a" opacity="0.4"/>

    
    <path d="
      M 96 138
      C 104 136, 116 138, 128 142
      C 136 146, 142 152, 140 158
      L 98 158
      C 98 148, 96 142, 96 138
      Z
    " fill="#4a4a5c"/>
    
    <path d="
      M 96 138
      C 104 136, 112 138, 118 140
      C 124 142, 128 146, 128 150
      C 122 148, 112 144, 102 142
      Z
    " fill="#6b6b80" opacity="0.45"/>
    
    <path d="
      M 136 156
      C 140 150, 136 146, 130 144
      C 124 142, 116 142, 108 144
      L 104 158
      Z
    " fill="#2e2e3a" opacity="0.4"/>

    
    <path d="M 20 155 C 14 152, 10 156, 10 162 L 26 162 Z" fill="#3e3e50"/>
    <path d="M 16 157 L  4 164 L  6 168 L 18 161 Z" fill="#2e2e3a"/>
    <path d="M 12 159 L  2 168 L  4 172 L 14 163 Z" fill="#2e2e3a"/>
    <path d="M 20 156 L  8 166 L 11 169 L 22 159 Z" fill="#2e2e3a"/>
    
    <path d="M 140 155 C 146 152, 152 156, 152 162 L 136 162 Z" fill="#3e3e50"/>
    <path d="M 144 157 L 156 164 L 154 168 L 142 161 Z" fill="#2e2e3a"/>
    <path d="M 148 159 L 160 168 L 158 172 L 146 163 Z" fill="#2e2e3a"/>
    <path d="M 140 156 L 154 166 L 151 169 L 138 159 Z" fill="#2e2e3a"/>

    
    
    <path d="
      M 68 84
      C 64 76, 64  64, 68  56
      C 70  50, 76  46, 84  46
      C 92  46, 100 52, 104 60
      C 108 68, 108 78, 104 86
      C 100 94,  92  98, 84  98
      C 76  98,  70  92, 68  84
      Z
    " fill="#4a4a5c"/>
    
    <path d="
      M 66 68
      C 64 62, 68  54, 76  50
      C 84  46, 96  48, 102 56
      C 96  52, 86  52, 78  54
      C 70  56, 66  64, 66  68
      Z
    " fill="#2e2e3a"/>
    
    <path d="
      M 68 66
      C 68 60, 72 54, 80 52
      C 76 56, 72 62, 70 68
      Z
    " fill="#6b6b80" opacity="0.5"/>
    
    <ellipse cx="82" cy="58" rx="10" ry="7" fill="#6b6b80" opacity="0.3"/>
    
    <path d="
      M 68 84
      C 64 76, 64 66, 68 58
      L 72 62
      C 70 70, 70 80, 72 88
      Z
    " fill="#2e2e3a" opacity="0.55"/>

    
    
    <polygon points="70,52 62,32 76,48" fill="#3e3e50"/>
    <polygon points="70,52 63,33 67,50" fill="#6b6b80" opacity="0.4"/>
    
    <polygon points="94,50 102,30 100,48" fill="#3e3e50"/>
    <polygon points="94,50 103,31 98,48" fill="#6b6b80" opacity="0.4"/>
    
    <polygon points="66,72 56,66 68,68" fill="#3e3e50"/>

    
    <path d="
      M 100 68
      C 106 66, 118 68, 124 72
      C 128 74, 130 78, 128 82
      C 126 86, 120 88, 114 86
      C 108 84, 102 80, 100 76
      Z
    " fill="#3e3e50"/>
    
    <path d="
      M 100 68
      C 106 66, 116 68, 122 72
      C 118 70, 108 70, 102 72
      Z
    " fill="#6b6b80" opacity="0.55"/>
    
    <path d="
      M 102 80
      C 108 82, 118 84, 124 82
      C 120 86, 112 88, 106 86
      Z
    " fill="#2e2e3a" opacity="0.55"/>
    
    <ellipse cx="118" cy="73" rx="2.5" ry="1.2" fill="#242430" transform="rotate(-8 118 73)"/>
    <ellipse cx="114" cy="72" rx="2" ry="1" fill="#242430" transform="rotate(-8 114 72)"/>

    
    <path d="
      M 102 78
      C 108 80, 118 82, 126 80
      L 126 83
      C 118 86, 108 84, 102 82
      Z
    " fill="#242430"/>
    
    <polygon points="108,80 110,88 112,80" fill="#6b6b80"/>
    <polygon points="116,81 118,89 120,81" fill="#6b6b80"/>
    <polygon points="112,80 114,87 116,80" fill="#5a5a6e"/>

    
    <g id="gargoyle-eyes">
      
      <ellipse cx="80" cy="68" rx="8" ry="6" fill="#242430"/>
      <ellipse cx="97" cy="66" rx="7" ry="5.5" fill="#242430"/>
      
      <ellipse cx="80" cy="68" rx="5" ry="4" fill="#c9a84c"/>
      <ellipse cx="97" cy="66" rx="4.5" ry="3.5" fill="#c9a84c"/>
      
      <ellipse cx="80" cy="68" rx="1.8" ry="3.5" fill="#1a1a22"/>
      <ellipse cx="97" cy="66" rx="1.6" ry="3" fill="#1a1a22"/>
      
      <circle cx="82" cy="66" r="1" fill="#e8c97a" opacity="0.85"/>
      <circle cx="99" cy="64" r="0.9" fill="#e8c97a" opacity="0.85"/>
      
      <ellipse cx="80" cy="68" rx="7" ry="5.5" fill="#c9a84c" opacity="0.12"/>
      <ellipse cx="97" cy="66" rx="6.5" ry="5" fill="#c9a84c" opacity="0.12"/>
    </g>

  </g>

</svg>
