<svg xmlns="http://www.w3.org/2000/svg" viewBox="0 0 800 300" width="800" height="300" role="img" aria-label="Castle wall with battlements">
  <defs>
    <!-- Stone highlight gradient for individual blocks -->
    <linearGradient id="stone-grad-a" x1="0" y1="0" x2="0" y2="1">
      <stop offset="0%" stop-color="#5c5c70"/>
      <stop offset="100%" stop-color="#3a3a48"/>
    </linearGradient>
    <linearGradient id="stone-grad-b" x1="0" y1="0" x2="0" y2="1">
      <stop offset="0%" stop-color="#6b6b80"/>
      <stop offset="100%" stop-color="#4a4a5c"/>
    </linearGradient>
    <linearGradient id="stone-grad-c" x1="0" y1="0" x2="0" y2="1">
      <stop offset="0%" stop-color="#52526a"/>
      <stop offset="100%" stop-color="#35354a"/>
    </linearGradient>
    <linearGradient id="wall-shade" x1="0" y1="0" x2="0" y2="1">
      <stop offset="0%" stop-color="#4a4a5c"/>
      <stop offset="60%" stop-color="#3a3a48"/>
      <stop offset="100%" stop-color="#2e2e3a"/>
    </linearGradient>
    <linearGradient id="walkway-grad" x1="0" y1="0" x2="0" y2="1">
      <stop offset="0%" stop-color="#7a7a90"/>
      <stop offset="100%" stop-color="#5c5c70"/>
    </linearGradient>
    <linearGradient id="base-grad" x1="0" y1="0" x2="0" y2="1">
      <stop offset="0%" stop-color="#3a3a48"/>
      <stop offset="100%" stop-color="#22222e"/>
    </linearGradient>
    <linearGradient id="slit-grad" x1="0" y1="0" x2="1" y2="0">
      <stop offset="0%" stop-color="#0a1628"/>
      <stop offset="40%" stop-color="#12203a"/>
      <stop offset="100%" stop-color="#0a1628"/>
    </linearGradient>
    <!-- Arrow slit bevel -->
    <linearGradient id="slit-bevel-l" x1="0" y1="0" x2="1" y2="0">
      <stop offset="0%" stop-color="#2e2e3a"/>
      <stop offset="100%" stop-color="#4a4a5c"/>
    </linearGradient>
    <linearGradient id="slit-bevel-r" x1="0" y1="0" x2="1" y2="0">
      <stop offset="0%" stop-color="#4a4a5c"/>
      <stop offset="100%" stop-color="#2e2e3a"/>
    </linearGradient>
  </defs>

  <!-- ============================================================ -->
  <!-- WALL BASE (wider footing)                                     -->
  <!-- ============================================================ -->
  <rect id="wall-base-bg" x="0" y="268" width="800" height="32" fill="url(#base-grad)"/>

  <!-- Base stone courses (2 rows, slightly wider than main wall) -->
  <!-- Base row 1 -->
  <rect x="0"   y="268" width="96"  height="14" fill="url(#stone-grad-c)" stroke="#242430" stroke-width="1.2"/>
  <rect x="99"  y="268" width="78"  height="14" fill="url(#stone-grad-a)" stroke="#242430" stroke-width="1.2"/>
  <rect x="180" y="268" width="88"  height="14" fill="url(#stone-grad-b)" stroke="#242430" stroke-width="1.2"/>
  <rect x="271" y="268" width="72"  height="14" fill="url(#stone-grad-c)" stroke="#242430" stroke-width="1.2"/>
  <rect x="346" y="268" width="92"  height="14" fill="url(#stone-grad-a)" stroke="#242430" stroke-width="1.2"/>
  <rect x="441" y="268" width="80"  height="14" fill="url(#stone-grad-b)" stroke="#242430" stroke-width="1.2"/>
  <rect x="524" y="268" width="84"  height="14" fill="url(#stone-grad-c)" stroke="#242430" stroke-width="1.2"/>
  <rect x="611" y="268" width="76"  height="14" fill="url(#stone-grad-a)" stroke="#242430" stroke-width="1.2"/>
  <rect x="690" y="268" width="110" height="14" fill="url(#stone-grad-b)" stroke="#242430" stroke-width="1.2"/>

  <!-- Base row 2 -->
  <rect x="0"   y="284" width="60"  height="16" fill="url(#stone-grad-a)" stroke="#242430" stroke-width="1.2"/>
  <rect x="63"  y="284" width="90"  height="16" fill="url(#stone-grad-b)" stroke="#242430" stroke-width="1.2"/>
  <rect x="156" y="284" width="74"  height="16" fill="url(#stone-grad-c)" stroke="#242430" stroke-width="1.2"/>
  <rect x="233" y="284" width="96"  height="16" fill="url(#stone-grad-a)" stroke="#242430" stroke-width="1.2"/>
  <rect x="332" y="284" width="82"  height="16" fill="url(#stone-grad-b)" stroke="#242430" stroke-width="1.2"/>
  <rect x="417" y="284" width="68"  height="16" fill="url(#stone-grad-c)" stroke="#242430" stroke-width="1.2"/>
  <rect x="488" y="284" width="88"  height="16" fill="url(#stone-grad-a)" stroke="#242430" stroke-width="1.2"/>
  <rect x="579" y="284" width="76"  height="16" fill="url(#stone-grad-b)" stroke="#242430" stroke-width="1.2"/>
  <rect x="658" y="284" width="86"  height="16" fill="url(#stone-grad-c)" stroke="#242430" stroke-width="1.2"/>
  <rect x="747" y="284" width="53"  height="16" fill="url(#stone-grad-a)" stroke="#242430" stroke-width="1.2"/>

  <!-- ============================================================ -->
  <!-- MAIN WALL BODY                                                -->
  <!-- ============================================================ -->
  <g id="wall-body">

    <!-- Background fill for the full wall face -->
    <rect x="0" y="110" width="800" height="160" fill="url(#wall-shade)"/>


    <!-- ROW A  y=112, h=24 -->
    <rect x="2"   y="112" width="74"  height="24" fill="url(#stone-grad-b)" stroke="#242430" stroke-width="1"/>
    <rect x="79"  y="112" width="88"  height="24" fill="url(#stone-grad-a)" stroke="#242430" stroke-width="1"/>
    <rect x="170" y="112" width="66"  height="24" fill="url(#stone-grad-c)" stroke="#242430" stroke-width="1"/>
    <rect x="239" y="112" width="80"  height="24" fill="url(#stone-grad-b)" stroke="#242430" stroke-width="1"/>
    <rect x="322" y="112" width="92"  height="24" fill="url(#stone-grad-a)" stroke="#242430" stroke-width="1"/>
    <rect x="417" y="112" width="72"  height="24" fill="url(#stone-grad-c)" stroke="#242430" stroke-width="1"/>
    <rect x="492" y="112" width="84"  height="24" fill="url(#stone-grad-b)" stroke="#242430" stroke-width="1"/>
    <rect x="579" y="112" width="78"  height="24" fill="url(#stone-grad-a)" stroke="#242430" stroke-width="1"/>
    <rect x="660" y="112" width="68"  height="24" fill="url(#stone-grad-c)" stroke="#242430" stroke-width="1"/>
    <rect x="731" y="112" width="67"  height="24" fill="url(#stone-grad-b)" stroke="#242430" stroke-width="1"/>
    <!-- top highlight lines -->
    <line x1="2"   y1="112" x2="76"  y2="112" stroke="#7a7a90" stroke-width="0.8"/>
    <line x1="79"  y1="112" x2="167" y2="112" stroke="#7a7a90" stroke-width="0.8"/>
    <line x1="170" y1="112" x2="235" y2="112" stroke="#7a7a90" stroke-width="0.8"/>
    <line x1="239" y1="112" x2="319" y2="112" stroke="#7a7a90" stroke-width="0.8"/>
    <line x1="322" y1="112" x2="414" y2="112" stroke="#7a7a90" stroke-width="0.8"/>
    <line x1="417" y1="112" x2="489" y2="112" stroke="#7a7a90" stroke-width="0.8"/>
    <line x1="492" y1="112" x2="576" y2="112" stroke="#7a7a90" stroke-width="0.8"/>
    <line x1="579" y1="112" x2="657" y2="112" stroke="#7a7a90" stroke-width="0.8"/>
    <line x1="660" y1="112" x2="728" y2="112" stroke="#7a7a90" stroke-width="0.8"/>
    <line x1="731" y1="112" x2="798" y2="112" stroke="#7a7a90" stroke-width="0.8"/>

    <!-- ROW B  y=138, h=24 (offset) -->
    <rect x="0"   y="138" width="40"  height="24" fill="url(#stone-grad-c)" stroke="#242430" stroke-width="1"/>
    <rect x="43"  y="138" width="84"  height="24" fill="url(#stone-grad-b)" stroke="#242430" stroke-width="1"/>
    <rect x="130" y="138" width="70"  height="24" fill="url(#stone-grad-a)" stroke="#242430" stroke-width="1"/>
    <rect x="203" y="138" width="88"  height="24" fill="url(#stone-grad-c)" stroke="#242430" stroke-width="1"/>
    <rect x="294" y="138" width="76"  height="24" fill="url(#stone-grad-b)" stroke="#242430" stroke-width="1"/>
    <rect x="373" y="138" width="92"  height="24" fill="url(#stone-grad-a)" stroke="#242430" stroke-width="1"/>
    <rect x="468" y="138" width="68"  height="24" fill="url(#stone-grad-c)" stroke="#242430" stroke-width="1"/>
    <rect x="539" y="138" width="82"  height="24" fill="url(#stone-grad-b)" stroke="#242430" stroke-width="1"/>
    <rect x="624" y="138" width="74"  height="24" fill="url(#stone-grad-a)" stroke="#242430" stroke-width="1"/>
    <rect x="701" y="138" width="99"  height="24" fill="url(#stone-grad-c)" stroke="#242430" stroke-width="1"/>
    <line x1="0"   y1="138" x2="40"  y2="138" stroke="#7a7a90" stroke-width="0.8"/>
    <line x1="43"  y1="138" x2="127" y2="138" stroke="#7a7a90" stroke-width="0.8"/>
    <line x1="130" y1="138" x2="200" y2="138" stroke="#7a7a90" stroke-width="0.8"/>
    <line x1="203" y1="138" x2="291" y2="138" stroke="#7a7a90" stroke-width="0.8"/>
    <line x1="294" y1="138" x2="369" y2="138" stroke="#7a7a90" stroke-width="0.8"/>
    <line x1="373" y1="138" x2="465" y2="138" stroke="#7a7a90" stroke-width="0.8"/>
    <line x1="468" y1="138" x2="536" y2="138" stroke="#7a7a90" stroke-width="0.8"/>
    <line x1="539" y1="138" x2="621" y2="138" stroke="#7a7a90" stroke-width="0.8"/>
    <line x1="624" y1="138" x2="698" y2="138" stroke="#7a7a90" stroke-width="0.8"/>
    <line x1="701" y1="138" x2="800" y2="138" stroke="#7a7a90" stroke-width="0.8"/>

    <!-- ROW C  y=164, h=26 -->
    <rect x="2"   y="164" width="86"  height="26" fill="url(#stone-grad-a)" stroke="#242430" stroke-width="1"/>
    <rect x="91"  y="164" width="62"  height="26" fill="url(#stone-grad-c)" stroke="#242430" stroke-width="1"/>
    <rect x="156" y="164" width="90"  height="26" fill="url(#stone-grad-b)" stroke="#242430" stroke-width="1"/>
    <rect x="249" y="164" width="74"  height="26" fill="url(#stone-grad-a)" stroke="#242430" stroke-width="1"/>
    <rect x="326" y="164" width="86"  height="26" fill="url(#stone-grad-c)" stroke="#242430" stroke-width="1"/>
    <rect x="415" y="164" width="78"  height="26" fill="url(#stone-grad-b)" stroke="#242430" stroke-width="1"/>
    <rect x="496" y="164" width="88"  height="26" fill="url(#stone-grad-a)" stroke="#242430" stroke-width="1"/>
    <rect x="587" y="164" width="66"  height="26" fill="url(#stone-grad-c)" stroke="#242430" stroke-width="1"/>
    <rect x="656" y="164" width="80"  height="26" fill="url(#stone-grad-b)" stroke="#242430" stroke-width="1"/>
    <rect x="739" y="164" width="59"  height="26" fill="url(#stone-grad-a)" stroke="#242430" stroke-width="1"/>
    <line x1="2"   y1="164" x2="88"  y2="164" stroke="#7a7a90" stroke-width="0.8"/>
    <line x1="91"  y1="164" x2="153" y2="164" stroke="#7a7a90" stroke-width="0.8"/>
    <line x1="156" y1="164" x2="246" y2="164" stroke="#7a7a90" stroke-width="0.8"/>
    <line x1="249" y1="164" x2="323" y2="164" stroke="#7a7a90" stroke-width="0.8"/>
    <line x1="326" y1="164" x2="412" y2="164" stroke="#7a7a90" stroke-width="0.8"/>
    <line x1="415" y1="164" x2="493" y2="164" stroke="#7a7a90" stroke-width="0.8"/>
    <line x1="496" y1="164" x2="584" y2="164" stroke="#7a7a90" stroke-width="0.8"/>
    <line x1="587" y1="164" x2="653" y2="164" stroke="#7a7a90" stroke-width="0.8"/>
    <line x1="656" y1="164" x2="736" y2="164" stroke="#7a7a90" stroke-width="0.8"/>
    <line x1="739" y1="164" x2="798" y2="164" stroke="#7a7a90" stroke-width="0.8"/>

    <!-- ROW D  y=192, h=24 (offset) -->
    <rect x="0"   y="192" width="50"  height="24" fill="url(#stone-grad-b)" stroke="#242430" stroke-width="1"/>
    <rect x="53"  y="192" width="78"  height="24" fill="url(#stone-grad-a)" stroke="#242430" stroke-width="1"/>
    <rect x="134" y="192" width="88"  height="24" fill="url(#stone-grad-c)" stroke="#242430" stroke-width="1"/>
    <rect x="225" y="192" width="70"  height="24" fill="url(#stone-grad-b)" stroke="#242430" stroke-width="1"/>
    <rect x="298" y="192" width="84"  height="24" fill="url(#stone-grad-a)" stroke="#242430" stroke-width="1"/>
    <rect x="385" y="192" width="76"  height="24" fill="url(#stone-grad-c)" stroke="#242430" stroke-width="1"/>
    <rect x="464" y="192" width="90"  height="24" fill="url(#stone-grad-b)" stroke="#242430" stroke-width="1"/>
    <rect x="557" y="192" width="68"  height="24" fill="url(#stone-grad-a)" stroke="#242430" stroke-width="1"/>
    <rect x="628" y="192" width="82"  height="24" fill="url(#stone-grad-c)" stroke="#242430" stroke-width="1"/>
    <rect x="713" y="192" width="87"  height="24" fill="url(#stone-grad-b)" stroke="#242430" stroke-width="1"/>
    <line x1="0"   y1="192" x2="50"  y2="192" stroke="#7a7a90" stroke-width="0.8"/>
    <line x1="53"  y1="192" x2="131" y2="192" stroke="#7a7a90" stroke-width="0.8"/>
    <line x1="134" y1="192" x2="222" y2="192" stroke="#7a7a90" stroke-width="0.8"/>
    <line x1="225" y1="192" x2="295" y2="192" stroke="#7a7a90" stroke-width="0.8"/>
    <line x1="298" y1="192" x2="382" y2="192" stroke="#7a7a90" stroke-width="0.8"/>
    <line x1="385" y1="192" x2="461" y2="192" stroke="#7a7a90" stroke-width="0.8"/>
    <line x1="464" y1="192" x2="554" y2="192" stroke="#7a7a90" stroke-width="0.8"/>
    <line x1="557" y1="192" x2="625" y2="192" stroke="#7a7a90" stroke-width="0.8"/>
    <line x1="628" y1="192" x2="710" y2="192" stroke="#7a7a90" stroke-width="0.8"/>
    <line x1="713" y1="192" x2="800" y2="192" stroke="#7a7a90" stroke-width="0.8"/>

    <!-- ROW E  y=218, h=24 -->
    <rect x="2"   y="218" width="80"  height="24" fill="url(#stone-grad-c)" stroke="#242430" stroke-width="1"/>
    <rect x="85"  y="218" width="66"  height="24" fill="url(#stone-grad-b)" stroke="#242430" stroke-width="1"/>
    <rect x="154" y="218" width="90"  height="24" fill="url(#stone-grad-a)" stroke="#242430" stroke-width="1"/>
    <rect x="247" y="218" width="76"  height="24" fill="url(#stone-grad-c)" stroke="#242430" stroke-width="1"/>
    <rect x="326" y="218" width="88"  height="24" fill="url(#stone-grad-b)" stroke="#242430" stroke-width="1"/>
    <rect x="417" y="218" width="70"  height="24" fill="url(#stone-grad-a)" stroke="#242430" stroke-width="1"/>
    <rect x="490" y="218" width="84"  height="24" fill="url(#stone-grad-c)" stroke="#242430" stroke-width="1"/>
    <rect x="577" y="218" width="78"  height="24" fill="url(#stone-grad-b)" stroke="#242430" stroke-width="1"/>
    <rect x="658" y="218" width="72"  height="24" fill="url(#stone-grad-a)" stroke="#242430" stroke-width="1"/>
    <rect x="733" y="218" width="65"  height="24" fill="url(#stone-grad-c)" stroke="#242430" stroke-width="1"/>
    <line x1="2"   y1="218" x2="82"  y2="218" stroke="#7a7a90" stroke-width="0.8"/>
    <line x1="85"  y1="218" x2="151" y2="218" stroke="#7a7a90" stroke-width="0.8"/>
    <line x1="154" y1="218" x2="244" y2="218" stroke="#7a7a90" stroke-width="0.8"/>
    <line x1="247" y1="218" x2="323" y2="218" stroke="#7a7a90" stroke-width="0.8"/>
    <line x1="326" y1="218" x2="414" y2="218" stroke="#7a7a90" stroke-width="0.8"/>
    <line x1="417" y1="218" x2="487" y2="218" stroke="#7a7a90" stroke-width="0.8"/>
    <line x1="490" y1="218" x2="574" y2="218" stroke="#7a7a90" stroke-width="0.8"/>
    <line x1="577" y1="218" x2="655" y2="218" stroke="#7a7a90" stroke-width="0.8"/>
    <line x1="658" y1="218" x2="730" y2="218" stroke="#7a7a90" stroke-width="0.8"/>
    <line x1="733" y1="218" x2="798" y2="218" stroke="#7a7a90" stroke-width="0.8"/>

    <!-- ROW F  y=244, h=22 (offset) -->
    <rect x="0"   y="244" width="60"  height="22" fill="url(#stone-grad-a)" stroke="#242430" stroke-width="1"/>
    <rect x="63"  y="244" width="82"  height="22" fill="url(#stone-grad-c)" stroke="#242430" stroke-width="1"/>
    <rect x="148" y="244" width="74"  height="22" fill="url(#stone-grad-b)" stroke="#242430" stroke-width="1"/>
    <rect x="225" y="244" width="90"  height="22" fill="url(#stone-grad-a)" stroke="#242430" stroke-width="1"/>
    <rect x="318" y="244" width="68"  height="22" fill="url(#stone-grad-c)" stroke="#242430" stroke-width="1"/>
    <rect x="389" y="244" width="86"  height="22" fill="url(#stone-grad-b)" stroke="#242430" stroke-width="1"/>
    <rect x="478" y="244" width="78"  height="22" fill="url(#stone-grad-a)" stroke="#242430" stroke-width="1"/>
    <rect x="559" y="244" width="84"  height="22" fill="url(#stone-grad-c)" stroke="#242430" stroke-width="1"/>
    <rect x="646" y="244" width="70"  height="22" fill="url(#stone-grad-b)" stroke="#242430" stroke-width="1"/>
    <rect x="719" y="244" width="79"  height="22" fill="url(#stone-grad-a)" stroke="#242430" stroke-width="1"/>
    <line x1="0"   y1="244" x2="60"  y2="244" stroke="#7a7a90" stroke-width="0.8"/>
    <line x1="63"  y1="244" x2="145" y2="244" stroke="#7a7a90" stroke-width="0.8"/>
    <line x1="148" y1="244" x2="222" y2="244" stroke="#7a7a90" stroke-width="0.8"/>
    <line x1="225" y1="244" x2="315" y2="244" stroke="#7a7a90" stroke-width="0.8"/>
    <line x1="318" y1="244" x2="386" y2="244" stroke="#7a7a90" stroke-width="0.8"/>
    <line x1="389" y1="244" x2="475" y2="244" stroke="#7a7a90" stroke-width="0.8"/>
    <line x1="478" y1="244" x2="556" y2="244" stroke="#7a7a90" stroke-width="0.8"/>
    <line x1="559" y1="244" x2="643" y2="244" stroke="#7a7a90" stroke-width="0.8"/>
    <line x1="646" y1="244" x2="716" y2="244" stroke="#7a7a90" stroke-width="0.8"/>
    <line x1="719" y1="244" x2="798" y2="244" stroke="#7a7a90" stroke-width="0.8"/>

  </g><!-- /#wall-body -->

  <!-- ============================================================ -->
  <!-- ARROW SLITS                                                   -->
  <!-- ============================================================ -->
  <g id="arrow-slits">

    <!-- Arrow slit 1 — centered ~x=200 -->
    <g class="arrow-slit">
      <!-- Outer bevel frame -->
      <rect x="190" y="128" width="20" height="110" fill="#2e2e3a" stroke="#1a1a24" stroke-width="1.2"/>
      <!-- Left bevel -->
      <polygon points="190,128 196,134 196,232 190,238" fill="url(#slit-bevel-l)" opacity="0.7"/>
      <!-- Right bevel -->
      <polygon points="210,128 204,134 204,232 210,238" fill="url(#slit-bevel-r)" opacity="0.7"/>
      <!-- Inner dark opening -->
      <rect x="196" y="134" width="8" height="98" fill="url(#slit-grad)"/>
      <!-- Slit bottom splayed base (wider opening at base for arrow angle) -->
      <polygon points="196,220 200,232 204,220" fill="#0a1628"/>
    </g>

    <!-- Arrow slit 2 — centered ~x=400 -->
    <g class="arrow-slit">
      <rect x="390" y="124" width="20" height="114" fill="#2e2e3a" stroke="#1a1a24" stroke-width="1.2"/>
      <polygon points="390,124 396,130 396,232 390,238" fill="url(#slit-bevel-l)" opacity="0.7"/>
      <polygon points="410,124 404,130 404,232 410,238" fill="url(#slit-bevel-r)" opacity="0.7"/>
      <rect x="396" y="130" width="8" height="102" fill="url(#slit-grad)"/>
      <polygon points="396,218 400,232 404,218" fill="#0a1628"/>
    </g>

    <!-- Arrow slit 3 — centered ~x=608 -->
    <g class="arrow-slit">
      <rect x="598" y="128" width="20" height="110" fill="#2e2e3a" stroke="#1a1a24" stroke-width="1.2"/>
      <polygon points="598,128 604,134 604,232 598,238" fill="url(#slit-bevel-l)" opacity="0.7"/>
      <polygon points="618,128 612,134 612,232 618,238" fill="url(#slit-bevel-r)" opacity="0.7"/>
      <rect x="604" y="134" width="8" height="98" fill="url(#slit-grad)"/>
      <polygon points="604,220 608,232 612,220" fill="#0a1628"/>
    </g>

  </g><!-- /#arrow-slits -->

  <!-- ============================================================ -->
  <!-- WALL WALK (walkway strip at top of wall, behind merlons)     -->
  <!-- ============================================================ -->
  <rect id="wall-walk" x="0" y="100" width="800" height="14" fill="url(#walkway-grad)"/>
  <!-- walkway top highlight -->
  <line x1="0" y1="100" x2="800" y2="100" stroke="#8e8ea8" stroke-width="1.5"/>
  <!-- walkway bottom shadow -->
  <line x1="0" y1="114" x2="800" y2="114" stroke="#1e1e2a" stroke-width="1"/>

  <!-- ============================================================ -->
  <!-- MERLONS (battlements)  — 6 merlons, 5 crenels               -->
  <!-- Wall starts x=0, ends x=800. Crenel width=70, merlon width=100 -->
  <!-- Layout: crenel | merlon | crenel | merlon ... crenel         -->
  <!-- Total = 2*35 (half crenels at edges) + 5*70 + 6*100 = 70+350+600=1020 — too wide -->
  <!-- Adjust: merlon=104, crenel=56 => 6*104 + 5*56 = 624+280=904 — still over -->
  <!-- Use: merlon=90, crenel=47 => 6*90+5*47 = 540+235=775 + 25 padding = 800 ok -->
  <!-- Positions (with 12.5px edge padding):                        -->
  <!--  M1: x=12,   w=90  -->
  <!--  C1 gap: x=102, w=47 -->
  <!--  M2: x=149,  w=90  -->
  <!--  C2 gap: x=239, w=47 -->
  <!--  M3: x=286,  w=90  -->
  <!--  C3 gap: x=376, w=48 (center) -->
  <!--  M4: x=424,  w=90  -->
  <!--  C4 gap: x=514, w=47 -->
  <!--  M5: x=561,  w=90  -->
  <!--  C5 gap: x=651, w=47 -->
  <!--  M6: x=698,  w=90  -->
  <!-- ============================================================ -->

  <!-- Merlon 1 -->
  <g class="merlon" id="merlon-1">
    <rect x="12" y="30" width="90" height="72" fill="url(#stone-grad-c)" stroke="#1e1e2a" stroke-width="1.5"/>
    <!-- Stone rows inside merlon -->
    <rect x="14" y="32" width="86" height="20" fill="url(#stone-grad-b)" stroke="#242430" stroke-width="0.8"/>
    <rect x="14" y="55" width="42" height="20" fill="url(#stone-grad-a)" stroke="#242430" stroke-width="0.8"/>
    <rect x="59" y="55" width="39" height="20" fill="url(#stone-grad-c)" stroke="#242430" stroke-width="0.8"/>
    <rect x="14" y="78" width="86" height="22" fill="url(#stone-grad-b)" stroke="#242430" stroke-width="0.8"/>
    <!-- top highlight -->
    <line x1="12" y1="30" x2="102" y2="30" stroke="#8e8ea8" stroke-width="1.5"/>
    <!-- left edge highlight -->
    <line x1="12" y1="30" x2="12" y2="102" stroke="#6b6b80" stroke-width="1"/>
  </g>

  <!-- Merlon 2 -->
  <g class="merlon" id="merlon-2">
    <rect x="149" y="26" width="90" height="76" fill="url(#stone-grad-a)" stroke="#1e1e2a" stroke-width="1.5"/>
    <rect x="151" y="28" width="86" height="22" fill="url(#stone-grad-b)" stroke="#242430" stroke-width="0.8"/>
    <rect x="151" y="53" width="44" height="22" fill="url(#stone-grad-c)" stroke="#242430" stroke-width="0.8"/>
    <rect x="198" y="53" width="39" height="22" fill="url(#stone-grad-a)" stroke="#242430" stroke-width="0.8"/>
    <rect x="151" y="78" width="86" height="22" fill="url(#stone-grad-b)" stroke="#242430" stroke-width="0.8"/>
    <line x1="149" y1="26" x2="239" y2="26" stroke="#8e8ea8" stroke-width="1.5"/>
    <line x1="149" y1="26" x2="149" y2="102" stroke="#6b6b80" stroke-width="1"/>
  </g>

  <!-- Merlon 3 -->
  <g class="merlon" id="merlon-3">
    <rect x="286" y="22" width="90" height="80" fill="url(#stone-grad-b)" stroke="#1e1e2a" stroke-width="1.5"/>
    <rect x="288" y="24" width="86" height="22" fill="url(#stone-grad-c)" stroke="#242430" stroke-width="0.8"/>
    <rect x="288" y="49" width="40" height="22" fill="url(#stone-grad-b)" stroke="#242430" stroke-width="0.8"/>
    <rect x="331" y="49" width="43" height="22" fill="url(#stone-grad-a)" stroke="#242430" stroke-width="0.8"/>
    <rect x="288" y="74" width="86" height="26" fill="url(#stone-grad-c)" stroke="#242430" stroke-width="0.8"/>
    <line x1="286" y1="22" x2="376" y2="22" stroke="#8e8ea8" stroke-width="1.5"/>
    <line x1="286" y1="22" x2="286" y2="102" stroke="#6b6b80" stroke-width="1"/>
  </g>

  <!-- Merlon 4 -->
  <g class="merlon" id="merlon-4">
    <rect x="424" y="26" width="90" height="76" fill="url(#stone-grad-c)" stroke="#1e1e2a" stroke-width="1.5"/>
    <rect x="426" y="28" width="86" height="22" fill="url(#stone-grad-a)" stroke="#242430" stroke-width="0.8"/>
    <rect x="426" y="53" width="43" height="22" fill="url(#stone-grad-b)" stroke="#242430" stroke-width="0.8"/>
    <rect x="472" y="53" width="40" height="22" fill="url(#stone-grad-c)" stroke="#242430" stroke-width="0.8"/>
    <rect x="426" y="78" width="86" height="22" fill="url(#stone-grad-a)" stroke="#242430" stroke-width="0.8"/>
    <line x1="424" y1="26" x2="514" y2="26" stroke="#8e8ea8" stroke-width="1.5"/>
    <line x1="424" y1="26" x2="424" y2="102" stroke="#6b6b80" stroke-width="1"/>
  </g>

  <!-- Merlon 5 -->
  <g class="merlon" id="merlon-5">
    <rect x="561" y="30" width="90" height="72" fill="url(#stone-grad-b)" stroke="#1e1e2a" stroke-width="1.5"/>
    <rect x="563" y="32" width="86" height="20" fill="url(#stone-grad-a)" stroke="#242430" stroke-width="0.8"/>
    <rect x="563" y="55" width="38" height="20" fill="url(#stone-grad-c)" stroke="#242430" stroke-width="0.8"/>
    <rect x="604" y="55" width="45" height="20" fill="url(#stone-grad-b)" stroke="#242430" stroke-width="0.8"/>
    <rect x="563" y="78" width="86" height="22" fill="url(#stone-grad-a)" stroke="#242430" stroke-width="0.8"/>
    <line x1="561" y1="30" x2="651" y2="30" stroke="#8e8ea8" stroke-width="1.5"/>
    <line x1="561" y1="30" x2="561" y2="102" stroke="#6b6b80" stroke-width="1"/>
  </g>

  <!-- Merlon 6 -->
  <g class="merlon" id="merlon-6">
    <rect x="698" y="34" width="90" height="68" fill="url(#stone-grad-a)" stroke="#1e1e2a" stroke-width="1.5"/>
    <rect x="700" y="36" width="86" height="18" fill="url(#stone-grad-c)" stroke="#242430" stroke-width="0.8"/>
    <rect x="700" y="57" width="42" height="20" fill="url(#stone-grad-b)" stroke="#242430" stroke-width="0.8"/>
    <rect x="745" y="57" width="41" height="20" fill="url(#stone-grad-a)" stroke="#242430" stroke-width="0.8"/>
    <rect x="700" y="80" width="86" height="20" fill="url(#stone-grad-c)" stroke="#242430" stroke-width="0.8"/>
    <line x1="698" y1="34" x2="788" y2="34" stroke="#8e8ea8" stroke-width="1.5"/>
    <line x1="698" y1="34" x2="698" y2="102" stroke="#6b6b80" stroke-width="1"/>
  </g>

  <!-- ============================================================ -->
  <!-- CRENEL FLOOR CAPS (top of walkway visible through gaps)      -->
  <!-- ============================================================ -->
  <!-- Each crenel gap shows the walkway strip beneath merlons -->
  <!-- Crenel 1: x=102, w=47 -->
  <rect x="102" y="100" width="47" height="14" fill="#7a7a90"/>
  <line x1="102" y1="100" x2="149" y2="100" stroke="#8e8ea8" stroke-width="1"/>
  <!-- Crenel 2: x=239, w=47 -->
  <rect x="239" y="100" width="47" height="14" fill="#7a7a90"/>
  <line x1="239" y1="100" x2="286" y2="100" stroke="#8e8ea8" stroke-width="1"/>
  <!-- Crenel 3: x=376, w=48 -->
  <rect x="376" y="100" width="48" height="14" fill="#7a7a90"/>
  <line x1="376" y1="100" x2="424" y2="100" stroke="#8e8ea8" stroke-width="1"/>
  <!-- Crenel 4: x=514, w=47 -->
  <rect x="514" y="100" width="47" height="14" fill="#7a7a90"/>
  <line x1="514" y1="100" x2="561" y2="100" stroke="#8e8ea8" stroke-width="1"/>
  <!-- Crenel 5: x=651, w=47 -->
  <rect x="651" y="100" width="47" height="14" fill="#7a7a90"/>
  <line x1="651" y1="100" x2="698" y2="100" stroke="#8e8ea8" stroke-width="1"/>
  <!-- Edge crenels (before merlon 1 and after merlon 6) -->
  <rect x="0"   y="100" width="12"  height="14" fill="#7a7a90"/>
  <rect x="788" y="100" width="12"  height="14" fill="#7a7a90"/>

  <!-- ============================================================ -->
  <!-- OUTER BORDER / OUTLINE                                        -->
  <!-- ============================================================ -->
  <!-- Bottom strong edge of entire structure -->
  <line x1="0" y1="300" x2="800" y2="300" stroke="#1a1a24" stroke-width="2"/>
  <!-- Left and right wall edges -->
  <line x1="0"   y1="0"   x2="0"   y2="300" stroke="#1a1a24" stroke-width="2"/>
  <line x1="800" y1="0"   x2="800" y2="300" stroke="#1a1a24" stroke-width="2"/>

  <!-- ============================================================ -->
  <!-- SUBTLE AMBIENT SHADOW OVERLAY (top-to-bottom vignette)       -->
  <!-- ============================================================ -->
  <defs>
    <linearGradient id="vignette" x1="0" y1="0" x2="0" y2="1">
      <stop offset="0%" stop-color="#000000" stop-opacity="0.10"/>
      <stop offset="40%" stop-color="#000000" stop-opacity="0"/>
      <stop offset="100%" stop-color="#000000" stop-opacity="0.18"/>
    </linearGradient>
  </defs>
  <rect x="0" y="0" width="800" height="300" fill="url(#vignette)" pointer-events="none"/>

</svg>
