<svg width="180" height="18" viewBox="0 0 180 18" fill="none" xmlns="http://www.w3.org/2000/svg">
<g clip-path="url(#clip0_349_4634)">
<path d="M17.9024 0V18H0V0H17.9024ZM14.7559 7.2H3.25497V15.1636H14.7559V7.2Z" fill="#FDF7E4"/>
<path d="M68.3298 3.19448C76.8347 2.22139 77.0054 15.2672 68.2213 14.2607C62.128 13.5625 62.0919 3.9072 68.3298 3.19448ZM68.8723 5.37629C64.7711 5.77339 65.1356 12.2359 69.2774 12.1167C73.6622 11.9901 73.3642 4.94139 68.8723 5.37629Z" fill="#FDF7E4"/>
<path d="M121.82 3.19447C125.902 2.7232 128.735 5.63956 128.218 9.73702C127.928 12.0425 125.921 14.0367 123.621 14.2781C115.515 15.129 115.157 3.96393 121.82 3.19447ZM122.362 5.37629C118.292 5.77047 118.66 12.2316 122.767 12.1167C127.212 11.993 126.885 4.93847 122.362 5.37629Z" fill="#FDF7E4"/>
<path d="M130.561 3.16406H131.248L135.552 7.85933L139.711 3.16406H140.434V14.1822H138.264V8.18224L135.498 11.0172L132.731 8.18224V14.1822H130.561V3.16406Z" fill="#FDF7E4"/>
<path d="M99.4937 9.38145V3.38145H101.664V14.3997H101.155L95.6962 8.39963V14.1814H93.5262V3.2207L94.0652 3.2207L99.4937 9.38145Z" fill="#FDF7E4"/>
<path d="M166.872 9.51477V3.38146H169.042V14.3996H168.391L163.074 8.39964V14.2102H160.809V3.12598H161.376L166.872 9.51477Z" fill="#FDF7E4"/>
<path d="M36.3472 3.38184V7.63638H39.6022V3.38184H41.7722V14.1818H39.6022V9.8182H36.3472V14.1818H34.1772V3.38184H36.3472Z" fill="#FDF7E4"/>
<path d="M78.9874 3.38184V7.52729L81.6463 3.38184H84.0868L80.7248 8.67202L84.4123 14.1818H81.8633L78.9874 10.0364V14.1818H76.8174V3.38184H78.9874Z" fill="#FDF7E4"/>
<path d="M144.846 10.036V14.1815H142.676V3.38148C142.676 3.38148 147.087 3.27241 147.612 3.38148C148.137 3.49056 148.351 3.66948 148.461 3.72767C150.38 4.74277 150.493 8.36476 148.571 9.58221C148.399 9.6913 147.92 10.0361 147.395 10.036H144.846ZM144.846 7.9633H146.854C147.996 7.9633 148.14 5.45421 146.746 5.45421H144.848V7.9633H144.846Z" fill="#FDF7E4"/>
<path d="M159.385 14.1817H156.89L156.383 12.9991L152.94 12.9744L152.548 14.1817H150.053L154.665 2.94531L159.384 14.1817H159.385ZM153.663 11.018H155.696L154.664 8.33662L153.663 11.018Z" fill="#FDF7E4"/>
<path d="M49.5841 3.38184V5.45456H46.4926H46.3291V7.63638H49.1501V9.8182H46.3291V12H49.8011V14.1818H44.1591V3.38184H49.5841Z" fill="#FDF7E4"/>
<path d="M91.3562 3.38184V5.45456H88.1013V7.63638H90.9222V9.8182H88.1013V12H91.4647V14.1818H85.9313V3.38184H91.3562Z" fill="#FDF7E4"/>
<path d="M115.534 3.61553L115.333 5.78134C115.009 5.67223 114.769 5.5748 114.471 5.50352C109.257 4.24534 108.664 12.2803 113.765 12.0024C114.388 11.969 114.96 11.7188 115.55 11.5632L115.754 13.6737C115.754 13.6737 114.471 14.3338 112.887 14.1857C109.424 13.8621 107.013 9.99371 108.369 6.4708C109.467 3.61989 112.799 2.48534 115.533 3.61553H115.534Z" fill="#FDF7E4"/>
<path d="M173.018 3.38505L175.19 6.98505C175.931 5.86796 176.624 4.44511 177.451 3.38184H180L176.311 9.21747V14.1804H174.141V9.21747L170.452 3.38184H173.001L173.018 3.38505Z" fill="#FDF7E4"/>
<path d="M32.5497 3.38184V5.45456H29.9458V14.1818H27.7758V5.61747V5.45456H25.0633V3.38184H32.5497Z" fill="#FDF7E4"/>
<path d="M62.7125 3.38184V5.45456H60.1634H60V14.1818H57.83V5.45456H55.226V3.38184H62.7125Z" fill="#FDF7E4"/>
</g>
<defs>
<clipPath id="clip0_349_4634">
<rect width="180" height="18" fill="white"/>
</clipPath>
</defs>
</svg>
