<?xml version="1.0" encoding="UTF-8" standalone="no"?>
<svg
   id="svg2"
   height="772.44pt"
   width="961.86pt"
   version="1.1"
   viewBox="0 0 961.86194 772.43536"
   sodipodi:docname="dino.svg"
   inkscape:version="1.3.2 (091e20e, 2023-11-25, custom)"
   xmlns:inkscape="http://www.inkscape.org/namespaces/inkscape"
   xmlns:sodipodi="http://sodipodi.sourceforge.net/DTD/sodipodi-0.dtd"
   xmlns="http://www.w3.org/2000/svg"
   xmlns:svg="http://www.w3.org/2000/svg">
  <defs
     id="defs1" />
  <sodipodi:namedview
     id="namedview1"
     pagecolor="#ffffff"
     bordercolor="#000000"
     borderopacity="0.25"
     inkscape:showpageshadow="2"
     inkscape:pageopacity="0.0"
     inkscape:pagecheckerboard="0"
     inkscape:deskcolor="#d1d1d1"
     inkscape:document-units="pt"
     inkscape:zoom="0.74387126"
     inkscape:cx="641.23999"
     inkscape:cy="515.5462"
     inkscape:window-width="1920"
     inkscape:window-height="1057"
     inkscape:window-x="1912"
     inkscape:window-y="185"
     inkscape:window-maximized="1"
     inkscape:current-layer="svg2" />
  <g
     id="g4197"
     transform="matrix(.44760 .89424 -.89424 .44760 854.11 0)">
    <path
       id="path4184"
       d="m0 0v0.77969c0.19-0.2 0.5797-0.58969 0.7797-0.77969zm209.3 4.9141c-4.19 0.0147-8.41 0.2206-12.65 0.6359-39.86 3.25-70.27 33.031-88.37 66.741-30.66 59.299-51.401 127.49-40.221 194.56 7.8 43.26 46.69 76.679 89.1 84.009 17.5 5.72 39.161 5.4706 50.981 21.991 8.75 17.38 3.69 37.07 2.2 55.48-1.53 78.92 2.2588 158.14 20.219 235.15 4.5 32.3-16.76 60.04-28.55 88.52-46.76 78.96-109.68 153.87-194.86 192.07-7.93 3.09-3.2906 13.749 3.0094 16.089 31.52 8.98 63.961-1.4194 93.441-12.559 37.65-14.45 67.97-42.031 98.02-67.991 53.53-45.12 90.799-106.85 146.86-149.15 31.2-16.04 60.19-36.279 84.98-61.239 20.52 5.4 39.011 15.98 57.711 25.7 5.54 3.25 13.239 3.1797 17.139-2.6203 16.68-17.63 33.2-38.54 35.05-63.68 1.62-4.17-1.5191-9.0197-5.8891-9.2797-20.84-3.14-43.651-9.23-56.861-27-2.5-2.56-1.75-8.59 2.5-8.35 18.84 2.79 36.061 12.359 53.631 18.659 19.41-14.51 30.659-39.169 35.139-62.659 0.98-15.33-18.599-9.0506-27.559-13.041-23.34-7.37-24.621-35.501-32.641-54.641-7.16-37.61-41.359-68.399-78.859-72.289 16.71-18.4 35.76-37.051 42.47-61.891 6.74 1.12 14.489 5.0103 20.519-0.47969 4.64-8.23-8.6894-11.991-12.709-16.741 5.26-7.95 11.789-15.1 16.809-23.18 0.12-10.24-14.739-9.3997-19.459-2.8797-7.59-1.28 4.8703-13.201-2.2297-17.291-8.23-6.82-13.371 7.6606-18.341 11.441-4.1-1.96-7.8597-9.66-13.53-5.8-9.98 10.14-2.5506 25.281 0.6094 36.691-11.14 19.38-30.989 31.949-50.569 41.639-2.26 1.15-5.2303-0.36938-4.2703-3.1094 21.02-33.58 35.71-72.821 33.38-112.91 1.98-8.08 17.069-1.4388 19.459-9.8188 1.23-8.75-9.2797-10.451-14.48-14.391-2.21-10.75 4.9503-21.7 3.2703-31.93-7.35-9.33-14.95 5.2494-18.68 10.809-4.17-5.63-3.7206-17.82-12.641-18.17-7.28 5.17-7.3003 14.921-6.7203 22.931-6.73-0.32-9.8194-12.43-17.359-7.75-7.41 16.06 9.9194 28.329 17.559 40.019-6.75 28.07-23.049 53.29-41.609 75.07-4.32 2.96-9.22 13.43-15.15 7.7297-20.93-17.82-39.551-46.62-30.241-75.13 6.68-24.33 16.481-47.78 27.361-70.63 13.19-29.06 13.14-65.51-7.1203-91.2 15.53-11.51-11.16-25.98-5.84-41.03-34.82-19.511-73.43-37.249-114.01-37.106z"
       fill="#ea5b27" />
    <path
       id="path6"
       d="m261.63 6.1426c-5.25 0.0185-10.52 0.2758-15.82 0.7949-49.82 4.0625-87.84 41.288-110.46 83.426-38.325 74.126-64.251 159.36-50.276 243.2 9.75 54.075 58.363 95.849 111.38 105.01 21.875 7.15 48.952 6.8383 63.727 27.488 10.938 21.725 4.6125 46.337 2.75 69.35-1.9125 98.65 2.8234 197.68 25.273 293.94 5.625 40.375-20.95 75.05-35.688 110.65-58.45 98.7-137.1 192.34-243.57 240.09-9.9125 3.8625-4.1133 17.186 3.7617 20.111 39.4 11.225 79.951-1.7742 116.8-15.699 47.062-18.062 84.963-52.538 122.53-84.988 66.912-56.4 113.5-133.56 183.57-186.44 39-20.05 75.237-45.349 106.22-76.549 25.65 6.75 48.764 19.975 72.139 32.125 6.925 4.0625 16.549 3.9746 21.424-3.2754 20.85-22.038 41.5-48.175 43.812-79.6 2.025-5.2125-1.8988-11.275-7.3613-11.6-26.05-3.925-54.564-11.538-71.076-33.75-3.125-3.2-2.1875-10.738 3.125-10.438 23.55 3.4875 45.077 15.449 67.039 23.324 24.262-18.138 38.324-48.962 43.924-78.324 1.225-19.162-23.249-11.313-34.449-16.301-29.175-9.2125-30.776-44.376-40.801-68.301-8.95-47.012-51.699-85.499-98.574-90.361 20.888-23 44.7-46.313 53.088-77.363 8.425 1.4 18.111 6.2629 25.648-0.59961 5.8-10.288-10.862-14.988-15.887-20.926 6.575-9.9375 14.737-18.875 21.012-28.975 0.15-12.8-18.424-11.75-24.324-3.5996-9.4875-1.6 6.0879-16.501-2.7871-21.613-10.288-8.525-16.713 9.5758-22.926 14.301-5.125-2.45-9.8246-12.075-16.912-7.25-12.475 12.675-3.1883 31.601 0.76172 45.863-13.925 24.225-38.736 39.936-63.211 52.049-2.825 1.4375-6.5379-0.46172-5.3379-3.8867 26.275-41.975 44.637-91.026 41.725-141.14 2.475-10.1 21.337-1.7984 24.324-12.273 1.5375-10.938-11.6-13.063-18.1-17.988-2.7625-13.438 6.1879-27.125 4.0879-39.912-9.1875-11.662-18.687 6.5617-23.35 13.512-5.2125-7.0375-4.6508-22.275-15.801-22.713-9.1 6.4625-9.1254 18.652-8.4004 28.664-8.4125-0.4-12.274-15.538-21.699-9.6875-9.2625 20.075 12.399 35.411 21.949 50.023-8.4375 35.088-28.812 66.613-52.012 93.838-5.4 3.7-11.525 16.787-18.938 9.6621-26.162-22.275-49.438-58.275-37.801-93.912 8.35-30.412 20.601-59.725 34.201-88.287 16.488-36.325 16.425-81.888-8.9004-114 19.44-14.375-13.92-32.462-7.27-51.275-43.53-24.389-91.79-46.561-142.51-46.382zm2.1543 8.6211c39.542 0.15689 78.334 17.809 114.24 33.424 5.525 3.7875 18.1 5.4121 15.15 14.725-26.9 56.15-44.226 116.23-60.326 176.2-13.575 44.412-42.699 88.975-89.949 101.5-13.188 7.0875-5.6375-18.464-16.812-13.227-7.7125 15.5 8.5492 37.25 26.012 33.688 3.2625-6.9375-13.587-6.6875-8.5742-12.688 17.638-9.025 34.438 14.238 52.375 8.7754 5.3375-10.562 1.55-23.437 5.5-34.449 9.0125-3.85 21.824 6.0871 29.574-1.8379 3.1875-11.325-5.7375-22.362-4.25-33.949 8.55-4.375 20.875-3.0629 26.812-11.4 0.5625-10.975-8.8367-19.625-9.5117-30.025 8.3875-4.9875 20.163-5.4254 25.9-14.213 2.8875-10.662-5.4887-19.013-7.3887-28.65 5.4-7.8 20.262-8.0742 22.225-19.012-0.6375-9.0625-8.2359-16.9-9.0859-25.6 7.525-6.4375 17.974-9.2871 26.424-14.725 3.45-8.425-4.8371-16.539-7.4121-24.389-4.075-5.7625 6.4617-12.299 9.8242-5.9492 12.762 18.1 17.812 40.924 16.5 62.887-6.9375 41.238-28.224 77.714-42.137 116.76-8.525 27.288-5.4375 57.738 9.75 82.188 26.225 31.038 61.513 54.938 91.176 81.375-17.75 8.7125-39.7 9.5488-59.588 12.799-7.2875 3.1375-36.062-7.0379-33.625 3.2871 66.812 16.362 148.4-12.275 182.09-74.812-4.9-9.8125-8.4641-20.624-7.2891-31.861 6.6375-2.25 6.9383 10.075 13.801 10.537 9.3625 0.025 7.5117-18.037 16.012-16.912 0.525 6.375-1.3 13.438 2 19.312 8.6875 4.2125 13.65-10.375 21.713-6.125-4.6 11.85-28.224 29-9.5488 39.875 10.112 9.675-11.889 2.1246-16.102 2.5371-29.325 70.912-97.138 127.9-174.81 135.62-3.1875-0.5625-7.0875 4.8875-2.375 5.125 25.2 1.4375 50.226-6.0254 72.988-16.338 17.938-7.7125 32.551-21.413 48.551-31.588 24.175 22.012 42.087 52.45 52.787 83.213 12.575 20.088 7.0996 45.401 13.537 67.301 2.2125 21.062-2.7883 41.674-3.9883 62.574 0.0875 2.8875-4.1617 2.0629-3.7617-0.47461-6.4625-16.688-7.1121-35.001-14.537-51.426-11.238-10.762-10.487-28.823-21.975-39.523-8.1-11.112-21.938-15.738-32-24.301-29.638-13.812-67.725-13.9-94.525 5.5-6.0125 12.162 12.586 7.3254 18.424 3.3379 34.925-18.662 76.7-2.7621 100.31 25.775 16.175 23.425 24.114 51.499 29.576 79.111 5.85 17.138 11.862 37.062 29.625 45.438 18.65 12.975 42.863 12.825 62.963 21.025-9.175 27.088-21.413 54.801-44.801 72.613-5.6 5.025-12.088-2.6008-17.25-4.5508-43.15-23.325-91.588-41.262-141.19-39.312-5.125 0.35-15.463 4.9625-8.1758 10.25 21.612 2.225 43.939 1.275 64.701 8.8125 3.825 1.9625-0.0129 6.4246-2.0879 8.2871-19.675 13.825-36.601 31.614-57.176 44.014-59.662 27.262-98.874 82.162-142.14 129.13-24.175 33.012-55.5 59.662-85.775 86.762-29.888 23.362-58.837 48.838-93.35 65.426-37.7 15.95-78.463 32.437-120.18 25.887-2.975 0.025-9.3617-3.0383-4.7617-5.8633 99.238-49.2 180.4-130.42 234.51-226.76 16.188-28.612 34-57.55 40.838-90.1 15.425-19.012-0.66211-48.601-1.9121-72.326-14.662-68.775-16.45-139.21-19.537-209.06-3.2875-39.725 8.3367-79.312 1.3242-118.81-7.3-22.588-31.8-29.937-52.812-33.537-49.63-9.39-102.16-35.42-121.44-84.97-12.86-42.58-10.185-88.04-1.498-131.11 16.188-57.54 32.648-118.2 74.158-163.39 13.688-19.588 36.638-30.65 58.963-37.312 11.143-3.1281 22.274-4.456 33.346-4.4121zm134.1 56.736c4.5125 3.8875 14.038 19.601 6.375 26.551-6.5 2.0875-12.75 7.1859-19.225 7.5234 0.36-12.058 9.82-22.47 12.85-34.07zm-17.633 47.492c8.7582-0.48474 7.0789 14.398 8.1445 20.295-6.3 1.875-11.374 7.4754-18.449 6.4004-0.1625-9.625 4.1633-18.762 9.4258-26.6 0.30469-0.0484 0.59638-0.0801 0.87891-0.0957zm-16.43 44.795c5.85 3.925 6.8254 13.687 10.775 19.475-5.625 4.1625-13 7.2004-19.463 8.9004 1.0125-9.7625 5.8625-19 8.6875-28.375zm-13.225 41.775c7.85 1.5125 6.3504 15.488 10.65 21.812-6.4 2.725-12.013 9.6621-19.926 10.1 3.7625-10.475 2.9004-22.425 9.2754-31.912zm153.02 30.41c8.1375 4.3 6.2367 16.626 13.137 22.613 10.85 1.75 9.5125-16.538 19-15.713-0.45 12.075-7.575 23.675-3.375 35.875-0.5875 7.875 11.638 6.3367 12.426 13.699-5.9 4.325-17.9-2.55-19.438 7.3125 1.175 50.375-13.95 100.98-42.35 142.38-17.825-5.7375-34.312-19.912-46.662-34.475 34.05-28.888 57.937-70.112 67.387-113.44-10.462-10.35-23.475-22.163-25.775-37.775 7.25-5.3625 12.712 14.05 21.287 10.375 3.775-9.775 0.41328-21.05 4.3633-30.85zm-168.19 18.09c5.075 1.4375 9.0484 11.963 9.3359 17.926-5.525 3.975-12.95 5.2875-19.6 6.75 1.875-8.7125 6.0012-16.938 10.264-24.676zm-19.826 40.051c6.925 0.6375 4.8496 14.912 8.0371 20.912-4.2125 2.4625-13.261-1.1633-19.398-0.67578 0.125-7.775 7.8113-13.486 11.361-20.236zm-29.059 33.828c7.7917 0.0463 7.6777 31.7-6.8535 20.184-1.3125-5.3375-15.574-4.9633-8.8867-11.113 7.9625-1.725 8.9109-5.2246 14.961-8.9746 0.26758-0.0668 0.52795-0.0972 0.7793-0.0957zm267.7 184.58c22.638 2.925 38.248 21.862 53.773 36.975 21.138 24.575 26.75 57.513 38.15 86.838 7.45 21.475 30.437 31.762 51.412 34.662 6.05 0.5625 9.2258 6.9625 5.7383 12.312-6.5375 21.125-15.924 45.776-34.574 57.863-19.862-10.95-43.25-12.838-63.625-22 7.075-48.5 5.9871-100.11-15.275-145.28-8.425-22.35-23.112-42.138-35.6-61.375z"
       fill-opacity=".95294"
       transform="scale(.8)"
       fill="#642a3e" />
    <path
       id="path10"
       d="m397.88 71.5c-3.025 11.6-12.487 22.012-12.85 34.074 6.475-0.3375 12.725-5.4359 19.225-7.5234 7.6625-6.95-1.8625-22.663-6.375-26.551zm-17.633 47.492c-0.28253 0.0156-0.57422 0.0473-0.87891 0.0957-5.2625 7.8375-9.5883 16.975-9.4258 26.6 7.075 1.075 12.149-4.5254 18.449-6.4004-1.0656-5.8973 0.61367-20.78-8.1445-20.295zm-16.43 44.795c-2.825 9.375-7.675 18.612-8.6875 28.375 6.4625-1.7 13.838-4.7379 19.463-8.9004-3.95-5.7875-4.9254-15.55-10.775-19.475zm-13.225 41.775c-6.375 9.4875-5.5129 21.437-9.2754 31.912 7.9125-0.4375 13.526-7.3746 19.926-10.1-4.3-6.325-2.8004-20.3-10.65-21.812zm-15.162 48.5c-4.2625 7.7375-8.3887 15.963-10.264 24.676 6.65-1.4625 14.075-2.775 19.6-6.75-0.2875-5.9625-4.2609-16.488-9.3359-17.926zm-19.826 40.051c-3.55 6.75-11.236 12.461-11.361 20.236 6.1375-0.4875 15.186 3.1383 19.398 0.67578-3.1875-6-1.1121-20.275-8.0371-20.912zm-29.059 33.828c-0.25135-0.002-0.51172 0.0289-0.7793 0.0957-6.05 3.75-6.9984 7.2496-14.961 8.9746-6.6875 6.15 7.5742 5.7758 8.8867 11.113 14.531 11.516 14.645-20.137 6.8535-20.184z"
       transform="scale(.8)"
       fill="#fdfcfc" />
    <path
       id="path16"
       fill="#f29a84"
       d="m136.6 144.44c17.04-3.97 34.28 12.24 31.45 29.42-2.13 18.29-26.15 30.4-41.32 18.39-19.94-11.18-12.3-45.09 9.87-47.81m4.59 13.88c-10.85 2.45-16.81 19.48-2.6 22.72 14.77 3.83 17.68-22.71 2.6-22.72z" />
    <path
       id="path18"
       fill="#090707"
       d="m141.19 158.32c15.08 0.01 12.17 26.55-2.6 22.72-14.21-3.24-8.25-20.27 2.6-22.72z" />
    <path
       id="path30"
       d="m388.62 374.8c-13.288 9.625-8.3125 32.325-2.5 45.35 8.7 17.862 18.35 36.162 34.088 48.824 19.888-3.25 41.838-4.0863 59.588-12.799-29.662-26.438-64.951-50.338-91.176-81.375zm144.99 132.84c-16 10.175-30.613 23.875-48.551 31.588 13.338 21.112 29.501 41.788 38.613 65.775 10.062 8.5625 23.9 13.188 32 24.301 11.488 10.7 10.737 28.761 21.975 39.523 7.425 16.425 8.0746 34.738 14.537 51.426-0.4 2.5375 3.8492 3.3621 3.7617 0.47461 1.2-20.9 6.2008-41.512 3.9883-62.574-6.4375-21.9-0.96211-47.213-13.537-67.301-10.7-30.762-28.612-61.2-52.787-83.213zm-226.32 10.928c-1.732 0.0602-3.4852 0.30391-5.2441 0.74805-18.412 3.3-28.85 28.001-16.75 42.926 11.875 19.912 46.637 12.086 49.012-10.826 4.3387-16.936-10.275-33.43-27.018-32.848zm53.936 49.416c-1.0105-0.004-2.058 0.0719-3.1426 0.23242-25.262 1.6125-16.8 43.837 6.8496 36.912 21.791-4.5631 16.839-37.072-3.707-37.145zm-55.102 28.268c-1.885 0.001-3.7871 0.20273-5.6797 0.62695-15.65 4.875-25.525 23.7-17.312 38.725 7.65 21.975 43.925 20.126 50.588-2.0117 7.3293-18.578-9.3739-37.351-27.596-37.34zm58.281 40.543c-1.4078-0.0738-2.9453 0.21132-4.5859 0.94726-11.275 4.4125-5.9871 25.423 6.9629 20.586 11.036-2.9859 7.4779-21.016-2.377-21.533zm-30.254 38.512c-3.6891 0.0334-7.3438 0.49805-10.844 1.4219-23.65 6.825-39.438 35.776-31.301 59.951 11.525 35.312 68.638 39.025 85.525 4.2871 1.2-10.95 4.4-22.226 0.8125-33.051-3.3223-20.408-24.272-32.79-44.193-32.609zm-13.803 101.77c-1.3524 0.0324-2.8047 0.29004-4.3535 0.8125-13.225 4.3125-12.713 28.164 2.8242 27.076 19.452 2.708 17.487-28.271 1.5293-27.889z"
       transform="scale(.8)"
       fill="#fcca8d" />
  </g>
  <path
     style="fill:#1a1a1a;stroke-width:1.34432"
     d="m 643.92863,1013.5559 c -14.20122,-3.0278 -26.79645,-8.4427 -27.50089,-11.8231 -0.33285,-1.5972 -0.88164,-18.33011 -1.21953,-37.18418 -0.77018,-42.97683 -4.36913,-67.23542 -14.3849,-96.96118 -4.45658,-13.22666 -15.27253,-35.10201 -19.08011,-38.58967 -3.93013,-3.59989 -9.46611,-3.51144 -10.1665,0.16247 -0.25209,1.32233 3.1766,11.3039 7.61929,22.18125 8.44931,20.68702 13.64853,37.30026 13.64853,43.61162 0,5.44151 -3.87622,4.89996 -20.32807,-2.84002 -7.67363,-3.61015 -21.51385,-10.00352 -30.75604,-14.2075 -9.24219,-4.20396 -19.58086,-9.56819 -22.97482,-11.92046 C 469.89427,832.09959 449.39421,823.67464 356.9166,799.46151 336.95347,794.23462 313.66315,788.3573 305.16033,786.40079 252.91388,774.37879 155.00639,732.69797 109.38772,703.05718 87.738515,688.99058 47.768955,650.95405 33.490196,630.83025 20.766802,612.89851 8.4108534,584.10645 13.438943,584.10645 c 0.930525,0 5.697988,2.95398 10.594363,6.56439 75.850424,55.92943 177.159944,94.16319 279.782704,105.5887 44.58524,4.96391 117.86616,6.18998 132.41539,2.21546 2.9575,-0.80792 11.23989,-2.01156 18.40529,-2.67474 16.02796,-1.48345 20.11702,-3.53511 42.16824,-21.15759 8.82895,-7.05577 16.98936,-13.3305 18.13428,-13.94383 1.1449,-0.61334 9.7708,-6.89781 19.16867,-13.96547 34.36288,-25.84261 71.552,-48.99694 142.08439,-88.46319 49.48802,-27.69092 50.06656,-27.98023 82.6814,-41.34709 42.46849,-17.40527 61.55452,-28.18546 68.48228,-38.68023 1.83082,-2.77349 4.33039,-8.96334 5.55463,-13.75523 2.91299,-11.40208 1.86448,-22.90825 -4.23845,-46.51204 -6.37792,-24.6674 -8.62047,-40.92508 -8.62983,-62.5633 -0.0146,-33.72478 6.91964,-58.50317 22.90392,-81.84345 18.28945,-26.70626 66.67091,-55.4572 119.984,-71.30113 15.18562,-4.51295 62.87638,-13.44564 90.34348,-16.9217 22.5598,-2.85503 66.0344,-3.21203 82.0034,-0.67338 16.8277,2.67516 43.7126,9.10609 50.8275,12.1581 16.7645,7.19122 40.9712,27.30489 52.7159,43.80231 21.4359,30.11042 29.9642,65.49258 33.6987,139.80913 1.2335,24.54535 2.685,23.2682 -28.3523,24.94654 -43.6986,2.36302 -89.7539,8.80646 -150.1007,21.0001 l -31.3823,6.34111 -28.9029,0.0622 c -25.6952,0.0553 -30.2268,-0.27416 -40.83301,-2.96892 -14.04995,-3.56974 -29.54981,-10.05577 -39.98929,-16.73383 -9.7408,-6.23111 -25.37884,-20.89604 -25.37884,-23.79958 0,-1.24894 2.14084,-4.34576 4.75741,-6.88186 10.91791,-10.58205 -0.64264,-15.25087 -12.33754,-4.98261 -6.25354,5.49068 -9.82869,13.30588 -9.86649,21.56796 -0.0281,6.15173 2.89847,14.38467 5.11341,14.38467 2.42369,0 4.2673,-3.56661 4.2673,-8.25543 0,-6.26923 1.51084,-7.31362 5.01388,-3.46593 4.97317,5.4625 6.09729,9.41751 7.20413,25.34654 0.82302,11.84455 1.81225,17.20771 3.94505,21.38834 2.73161,5.35439 3.04252,5.54302 7.69744,4.66975 2.66797,-0.50052 9.93591,-3.015 16.15099,-5.58773 15.13836,-6.26654 16.40146,-5.95935 20.10484,4.8897 1.64052,4.80594 3.35,9.81284 3.79883,11.12644 0.44883,1.3136 2.22525,3.31172 3.94762,4.44026 2.76124,1.80924 3.68327,1.82136 7.7969,0.10259 2.56592,-1.07213 8.02587,-4.99266 12.13327,-8.71229 12.5587,-11.37326 12.1169,-11.35268 21.9977,-1.02494 13.8048,14.42927 16.204,14.35523 28.7892,-0.8884 10.0176,-12.13364 10.383,-12.19264 20.0543,-3.2387 13.8374,12.81094 19.6598,12.47728 32.3991,-1.85667 9.1784,-10.3273 8.7178,-10.2754 20.1665,-2.2722 5.29,3.69798 9.0422,5.31036 12.5922,5.41098 5.2879,0.14989 6.1008,-0.51985 19.0055,-15.65854 2.2994,-2.69757 4.8082,-4.90467 5.5751,-4.90467 0.7668,0 6.7296,3.93213 13.2507,8.73807 6.5211,4.80594 13.0064,8.73807 14.4118,8.73807 2.6432,0 8.7909,-5.79026 17.1373,-16.14096 l 4.8159,-5.9725 3.5861,2.34965 c 1.9723,1.29231 3.586,3.14283 3.586,4.11227 0,0.96944 -2.479,5.34134 -5.5089,9.71533 -15.0567,21.73608 -36.2411,36.30059 -61.0349,41.9622 -18.7413,4.27953 -28.0576,5.37916 -70.6349,8.33708 -46.0328,3.19797 -52.5975,4.09895 -66.9994,9.19538 -18.5743,6.57291 -34.87528,18.24843 -47.20951,33.81359 l -6.04943,7.63408 -8.73807,-0.10275 c -7.28661,-0.0857 -9.95732,0.56499 -16.07812,3.91713 -17.35506,9.50472 -40.95014,41.18673 -48.54735,65.18638 l -2.34054,7.39375 -2.589,-6.04944 c -1.42394,-3.32718 -3.72531,-9.24852 -5.11412,-13.15851 -3.59885,-10.13197 -8.97412,-15.33662 -10.83393,-10.49004 -0.99003,2.57995 7.65035,28.00169 13.39313,39.40531 17.75501,35.25674 50.89127,68.25247 84.53297,84.17446 16.66278,7.8862 34.02387,12.61358 54.30797,14.78794 5.2817,0.56616 5.9308,0.21736 12.771,-6.86215 8.3428,-8.63462 18.613,-15.65705 20.3531,-13.91685 0.6859,0.6859 0.01,3.50047 -1.6109,6.67024 -5.2489,10.28863 -2.8582,14.27157 8.4021,13.99816 12.6046,-0.30604 14.9551,1.79444 6.3502,5.67469 -6.5859,2.96986 -11.2205,7.75833 -10.6046,10.95669 0.2569,1.33386 2.5802,3.76989 5.1629,5.41339 7.3137,4.65404 11.4905,8.21397 10.644,9.07192 -0.4253,0.43109 -7.3821,-0.20021 -15.4596,-1.40289 -13.3517,-1.988 -15.1382,-1.99587 -19.6584,-0.0866 -4.1046,1.73366 -5.2774,3.1469 -6.7216,8.1 -0.9623,3.29997 -2.3545,6.0901 -3.0938,6.2003 -0.7394,0.1102 -2.5543,-3.44315 -4.033,-7.89636 l -2.6886,-8.09672 -22.1813,-0.59871 c -12.19969,-0.32929 -27.92822,-1.61431 -34.95228,-2.8556 -37.85544,-6.68977 -74.79528,-22.27887 -104.3364,-44.03129 -13.12208,-9.66237 -36.3118,-33.29408 -45.32392,-46.1878 -7.9663,-11.39747 -11.17598,-14.04876 -12.57953,-10.39114 -2.26794,5.91016 13.73933,29.48128 33.36423,49.12967 l 15.66827,15.68703 -10.62396,18.38192 c -11.32111,19.58816 -25.14646,40.4779 -29.24266,44.18493 -2.38761,2.16073 -2.525,1.9379 -3.4005,-5.51503 -1.49239,-12.70452 -4.65505,-23.17738 -10.8707,-35.99745 -7.45285,-15.37184 -17.83779,-27.89656 -30.04825,-36.23961 -8.6034,-5.87843 -9.94281,-6.39622 -12.97356,-5.01531 -6.37,2.90235 -2.86498,10.32528 9.48501,20.0874 9.99655,7.90181 17.57819,17.1348 22.82328,27.79439 13.32678,27.08403 10.68118,63.21886 -6.52334,89.09813 -8.17671,12.29952 -23.37711,29.04942 -36.55839,40.28505 -21.59422,18.40678 -37.52528,35.47687 -42.45488,45.49031 -4.57402,9.29115 -4.59617,9.42761 -4.57612,28.18507 0.0178,16.67313 0.52211,20.8859 4.36904,36.49805 2.39188,9.70713 4.34888,19.44993 4.34888,21.65073 0,3.9593 -0.0958,4.0106 -9.07415,4.8585 -15.29556,1.4446 -46.18312,0.7758 -55.45314,-1.2007 z M 622.37786,711.15874 c 13.20248,-4.49047 20.04615,-8.70019 27.34982,-16.82363 8.30871,-9.24128 10.80655,-17.18662 10.08228,-32.07053 -0.96074,-19.74341 -9.97091,-33.94275 -26.43698,-41.66262 -6.77031,-3.17415 -9.19426,-3.55971 -22.38016,-3.55971 -13.11968,0 -15.62834,0.39439 -22.2426,3.49673 -9.85977,4.62461 -16.02495,10.22211 -20.84765,18.92806 -3.7173,6.71047 -3.9595,8.05968 -3.9382,21.93773 0.0202,13.16983 0.41458,15.62864 3.60488,22.47656 6.14855,13.1978 18.757,24.83312 31.08835,28.68889 8.25418,2.58093 12.77258,2.31206 23.72026,-1.41148 z m -79.69837,-15.39773 c 15.1544,-6.88032 11.68266,-26.84797 -4.68271,-26.93259 -7.32084,-0.0379 -13.08254,2.91834 -15.75307,8.08257 -2.74445,5.30719 -0.44979,13.53762 5.06899,18.18137 4.66552,3.92579 7.88425,4.06584 15.36679,0.66865 z M 700.4517,665.73106 c 3.28171,-2.58607 6.6599,-8.05327 6.6599,-10.77825 0,-4.01727 -7.2773,-10.35202 -11.89231,-10.35202 -4.86286,0 -11.66899,5.34719 -12.86338,10.10601 -1.65058,6.57643 3.78635,12.66189 11.31251,12.66189 2.58781,0 5.64029,-0.73694 6.78328,-1.63763 z m 60.24962,-23.90989 c 6.74398,-3.83494 9.9206,-8.61847 10.63066,-16.00824 1.45329,-15.1246 -11.78691,-26.2888 -24.7598,-20.87764 -10.78306,4.49776 -17.81998,14.95146 -15.91204,23.63818 1.02711,4.67643 7.85243,13.05752 12.00241,14.73824 4.98889,2.02048 13.03333,1.35577 18.03877,-1.49054 z m -61.28281,-21.49895 c 2.79288,-0.77558 7.27962,-3.34322 9.97054,-5.70586 13.97726,-12.27204 13.63829,-37.93465 -0.6236,-47.21218 -14.60013,-9.49757 -32.23564,-6.88421 -41.8602,6.20315 -7.94893,10.80886 -8.44283,20.11515 -1.72516,32.50595 6.99977,12.91115 19.79319,18.22041 34.23842,14.20894 z m 81.36642,-41.11448 c 11.95732,-7.29612 17.09577,-24.48146 11.20026,-37.45886 -2.98653,-6.57404 -10.3396,-13.2548 -17.01265,-15.4571 -6.6851,-2.20627 -19.08762,-1.142 -25.58564,2.19554 -6.5261,3.35195 -13.63775,13.67498 -14.81105,21.49923 -1.73838,11.5923 6.14989,25.72386 17.57043,31.47683 7.782,3.9201 20.10858,2.94924 28.63865,-2.25564 z M 1034.6408,303.76659 c 12.1094,-4.89418 20.9854,-19.11609 20.9854,-33.62462 0,-26.83105 -25.7505,-42.71852 -51.0828,-31.51683 -12.5869,5.56583 -18.86174,14.75839 -20.09215,29.43481 -0.60747,7.24592 -0.23199,10.22347 1.89207,15.00421 8.49212,19.11356 29.71768,28.21175 48.29748,20.70243 z"
     id="path1"
     transform="matrix(0.75000152,0,0,0.75000152,0,-0.00312134)" />
  <path
     style="fill:#1a1a1a;stroke-width:1.34432"
     d="m 641.28058,1012.1892 c -4.78361,-1.037 -12.04294,-3.5599 -16.13183,-5.6065 l -7.43434,-3.721 -0.84126,-9.41023 c -0.46268,-5.17562 -0.92264,-17.57696 -1.02211,-27.55853 -0.51342,-51.52242 -7.86057,-87.979 -24.54765,-121.80546 -7.21189,-14.61925 -10.78288,-18.53821 -16.19336,-17.77128 -4.9471,0.70123 -4.43823,4.79182 3.00171,24.13042 13.54556,35.20882 16.22543,46.88607 10.76013,46.88607 -7.13097,0 -60.79338,-26.31518 -82.06374,-40.24274 C 462.58646,828.13418 438.13689,819.17491 326.66943,791.0801 284.34455,780.41234 263.60334,773.91283 230.90561,761.07136 169.76357,737.05888 119.97786,711.39653 94.102305,690.55522 77.662589,677.31395 44.131003,643.89284 35.393438,632.03978 25.082316,618.05208 11.206333,588.58384 13.738565,586.0516 c 0.399383,-0.39939 10.93158,6.13579 23.404882,14.52262 12.473302,8.38681 28.123223,18.31618 34.7776,22.06524 67.587023,38.07842 148.192883,64.13387 227.862013,73.65527 38.36834,4.58547 114.02006,6.46017 133.08754,3.29799 4.80594,-0.79702 14.57799,-2.22263 21.71568,-3.16802 15.37453,-2.03637 20.85374,-4.48977 36.09002,-16.15981 67.66603,-51.82795 100.72525,-73.43709 183.59864,-120.00918 41.30107,-23.20982 57.23884,-31.24478 83.24861,-41.96943 28.05664,-11.56864 51.03007,-22.91691 60.20065,-29.73754 6.07261,-4.5165 8.71835,-7.70247 12.09887,-14.56928 4.04229,-8.21107 4.3265,-9.71821 4.32441,-22.93229 -0.002,-11.41036 -0.83877,-17.52088 -4.33104,-31.61976 -7.03809,-28.41386 -8.52349,-39.58686 -8.48929,-63.85513 0.0913,-64.78797 23.85127,-99.78628 89.44873,-131.75726 33.28814,-16.22402 52.04473,-22.11871 96.11882,-30.20755 44.8858,-8.23782 54.4303,-9.2271 90.0693,-9.33557 34.9744,-0.10645 38.1808,0.2463 68.4938,7.53528 18.4979,4.44798 27.333,8.38422 40.396,17.99753 45.3138,33.34716 61.9889,75.89387 65.4202,166.92103 l 0.8734,23.16992 -4.58,1.86155 c -2.6348,1.07091 -15.1427,2.5454 -29.4499,3.47169 -43.5317,2.81835 -81.2278,8.17508 -143.17,20.34487 -33.066,6.49648 -34.0198,6.60297 -59.15,6.60366 -14.0481,3.9e-4 -29.4742,-0.63605 -34.2801,-1.41429 -17.14646,-2.7766 -40.12091,-12.34015 -53.19913,-22.14514 -9.30706,-6.97768 -19.39409,-16.96883 -19.39409,-19.20974 0,-1.03926 1.81483,-3.95654 4.03295,-6.48283 2.21813,-2.52631 4.03296,-6.08459 4.03296,-7.90731 0,-2.94862 -0.57065,-3.31402 -5.17557,-3.31402 -6.87642,0 -15.08952,5.99158 -18.84376,13.74682 -5.01478,10.35916 -3.08443,28.54307 2.93672,27.66391 2.17086,-0.31696 3.11921,-1.91368 4.21409,-7.09521 l 1.41284,-6.68619 3.02329,3.8435 c 3.92543,4.99036 5.3525,10.53952 7.01203,27.26644 1.68064,16.93958 4.33208,23.26417 9.75298,23.26417 2.10906,0 9.38301,-2.14278 16.16433,-4.76172 6.78132,-2.61895 13.54391,-4.58502 15.02797,-4.36904 2.97153,0.43245 4.6132,3.14866 9.15643,15.14965 5.18754,13.70292 10.3869,13.45033 27.84946,-1.353 4.7716,-4.04499 9.1814,-7.35453 9.7995,-7.35453 0.6181,0 5.2328,3.85908 10.2548,8.57573 14.2248,13.35983 16.0482,13.2365 29.6976,-2.00873 4.5577,-5.0906 8.7454,-9.25563 9.3059,-9.25563 0.5606,0 5.1627,3.30183 10.2269,7.33741 5.0643,4.03558 10.875,7.7036 12.9128,8.15117 5.0362,1.10614 10.6689,-2.03981 18.3839,-10.26777 9.1911,-9.80205 9.731,-9.95139 17.3214,-4.79077 8.6481,5.87966 14.48,8.11989 18.5071,7.10915 1.8216,-0.4572 7.5329,-5.18801 12.6917,-10.51289 l 9.3796,-9.68161 12.3283,8.34413 c 6.7806,4.58927 13.7344,8.34413 15.4528,8.34413 2.171,0 6.0083,-3.12961 12.5734,-10.25446 9.4024,-10.204 12.5365,-11.6329 14.4691,-6.5966 2.2812,5.94448 -20.5367,31.44208 -36.4645,40.7469 -21.009,12.27323 -35.3171,15.01932 -106.5943,20.45834 -48.2395,3.68104 -60.3155,6.44566 -79.766,18.26123 -9.56714,5.81173 -23.3189,18.30041 -28.6974,26.06159 -3.6954,5.33245 -3.90039,5.42553 -11.9789,5.43844 -11.48482,0.0184 -20.36062,4.44582 -31.64924,15.78742 -14.60966,14.67827 -27.76319,34.97646 -33.75346,52.08754 l -2.35311,6.72159 -2.8559,-6.72159 c -6.66856,-15.69494 -10.17099,-21.50489 -13.22538,-21.93868 -4.26075,-0.60512 -3.97386,2.62813 1.7526,19.75194 8.71049,26.04689 20.82342,45.52079 42.11989,67.71593 30.01377,31.28029 63.75139,48.6179 102.7292,52.79206 l 8.7994,0.94234 9.3119,-8.74572 c 14.0084,-13.15663 21.3483,-16.10585 15.7618,-6.33318 -2.283,3.99373 -2.6149,11.57034 -0.5624,12.83886 0.7997,0.49427 5.7905,1.3183 11.0906,1.83117 l 9.6366,0.9325 -4.6205,2.6172 c -6.6168,3.74807 -10.8392,8.12534 -10.8392,11.23686 0,1.49982 2.1436,4.35536 4.8393,6.44663 2.6616,2.0648 6.14,4.85639 7.7298,6.20354 2.8682,2.4304 2.8489,2.44345 -2.4867,1.68616 -2.9575,-0.41977 -10.3412,-1.15546 -16.4082,-1.63486 -13.0719,-1.03293 -16.7115,0.59415 -20.0624,8.969 -1.1701,2.92428 -2.5853,5.03392 -3.1449,4.68808 -0.5596,-0.34585 -1.798,-3.41685 -2.7521,-6.82446 -2.2078,-7.88553 -4.2195,-8.65805 -22.5833,-8.67214 -46.7241,-0.0359 -93.67167,-14.56634 -133.95756,-41.46038 -14.70816,-9.81887 -38.93249,-32.83761 -49.72849,-47.25363 -13.19352,-17.61747 -17.82439,-20.63797 -16.49975,-10.76201 1.10589,8.24502 13.97232,26.27909 32.20987,45.14659 l 16.11822,16.67496 -13.51758,22.52962 c -15.41265,25.68813 -25.56247,40.15509 -26.99146,38.47207 -0.53934,-0.63521 -1.70602,-5.62063 -2.59262,-11.07869 -4.0989,-25.23338 -19.5379,-50.75543 -39.6846,-65.60218 -7.99279,-5.89015 -12.46259,-7.10857 -15.37899,-4.19217 -4.05229,4.05229 -1.76705,8.01841 12.92655,22.43464 16.26956,15.96244 22.74049,26.34577 26.57851,42.64824 3.25892,13.8427 1.96861,36.77197 -2.85502,50.73449 -6.29363,18.21764 -13.9367,27.92214 -50.97572,64.72463 -24.72117,24.56329 -34.88815,35.59778 -37.77819,41.00171 -3.90545,7.30255 -3.95404,7.65909 -3.94055,28.90286 0.0119,18.68691 0.49694,23.57516 3.69688,37.25557 4.59833,19.65883 4.69725,23.32563 0.65849,24.40793 -6.07354,1.6276 -53.9228,0.6739 -62.80631,-1.2519 z M 624.13507,711.2338 c 12.50185,-4.41217 21.77476,-10.67653 27.81595,-18.79125 7.11507,-9.55718 8.50424,-14.87828 7.88824,-30.21508 -0.62643,-15.59616 -4.46248,-24.92117 -13.78802,-33.51716 -11.18746,-10.31223 -15.26123,-11.66806 -35.05842,-11.66806 -16.46841,0 -17.88051,0.21317 -24.48887,3.69676 -9.14083,4.81856 -16.04888,11.84714 -20.01443,20.36363 -2.65475,5.70138 -3.1947,9.01426 -3.19938,19.62997 -0.003,7.02407 0.61197,14.99464 1.3668,17.71237 2.15357,7.75374 11.7117,20.92601 19.39224,26.72488 13.12243,9.90752 24.37279,11.60941 40.08589,6.06394 z m -81.88503,-14.71384 c 10.51018,-4.39143 13.71193,-16.41533 6.33537,-23.79189 -3.42026,-3.42025 -4.91865,-3.92955 -11.56114,-3.92955 -6.88664,0 -8.07776,0.44617 -12.20227,4.57069 -6.51039,6.51038 -5.883,14.70314 1.66136,21.69503 4.04733,3.75094 9.14662,4.22175 15.76668,1.45572 z M 703.63131,663.3181 c 4.47307,-5.31595 4.43007,-10.18508 -0.13201,-14.94688 -5.15116,-5.37665 -12.19567,-5.23177 -17.79339,0.36593 -8.15074,8.15075 -3.37818,18.71705 8.45406,18.71705 5.03958,0 6.54375,-0.65686 9.47134,-4.1361 z m 58.27357,-21.39869 c 6.26172,-3.81783 9.72299,-10.18117 9.72899,-17.88624 0.0127,-16.34753 -13.3349,-25.30072 -27.49771,-18.44463 -12.30043,5.95452 -17.56483,19.08844 -11.55126,28.8186 4.86054,7.86452 8.83708,10.19432 17.39012,10.18862 5.15906,-0.003 8.93543,-0.85062 11.92986,-2.67635 z m -54.61537,-24.9113 c 8.44626,-5.93626 12.61566,-14.87611 12.50796,-26.819 -0.0987,-10.94813 -2.28753,-16.06321 -9.37266,-21.90337 -12.70925,-10.47605 -31.44336,-9.10819 -42.14206,3.07696 -8.90099,10.13767 -10.52719,20.58373 -5.0184,32.23637 6.23499,13.18875 14.69652,18.46401 28.63895,17.85469 8.17168,-0.35713 10.54438,-1.04268 15.38621,-4.44565 z m 67.41085,-34.32681 c 6.60828,-1.83513 14.20593,-8.58993 17.28483,-15.3673 1.49309,-3.28667 2.45959,-8.58389 2.4776,-13.57937 0.0391,-10.83562 -3.94534,-18.53359 -12.63398,-24.40917 -5.81,-3.92893 -7.42726,-4.36606 -16.05519,-4.33951 -11.33055,0.0349 -18.71885,2.89573 -24.15119,9.3517 -10.45346,12.42324 -10.09735,27.39463 0.95015,39.94526 2.97699,3.38203 7.25635,6.95222 9.50968,7.93374 4.96703,2.16354 15.70599,2.38416 22.6181,0.46465 z M 1032.2668,305.08625 c 13.8075,-4.10039 23.4582,-18.11265 23.5588,-34.20604 0.069,-11.00532 -2.2288,-17.70772 -8.4275,-24.5844 -12.4139,-13.77143 -33.1326,-15.54547 -50.17544,-4.29627 -7.75939,5.12161 -12.13827,13.83839 -12.8979,25.67508 -0.82091,12.7915 1.60475,19.34253 10.3523,27.95853 10.65284,10.49268 23.34284,13.68397 37.58974,9.4531 z"
     id="path2"
     transform="matrix(0.75000152,0,0,0.75000152,0,-0.00312134)" />
  <path
     style="fill:#1a1a1a;stroke-width:1.34432"
     d="m 641.78412,1012.2919 c -9.27418,-2.0177 -21.25602,-6.8498 -23.40456,-9.4387 -0.86542,-1.0427 -1.93803,-16.18791 -2.69953,-38.11758 -2.0529,-59.11862 -7.56257,-86.38115 -24.31546,-120.31567 -7.24928,-14.6841 -10.69639,-18.66124 -15.67716,-18.08772 -3.16629,0.3646 -3.65574,1.00058 -3.50723,4.55722 0.0949,2.2734 4.22902,14.89393 9.18687,28.0456 5.04728,13.38893 9.34323,27.0995 9.76178,31.15488 0.70065,6.78857 0.56243,7.24276 -2.20401,7.24276 -2.93748,0 -35.28671,-14.17029 -55.15935,-24.16206 -5.7345,-2.88325 -18.24982,-10.36233 -27.81181,-16.62017 -42.30913,-27.68921 -67.319,-36.85356 -176.56743,-64.69944 -47.09191,-12.00305 -68.5236,-18.72529 -100.67526,-31.5776 C 167.29259,735.722 119.4745,711.04376 94.102305,690.80381 78.725503,678.5374 42.305019,641.99051 34.662388,631.1576 23.563438,615.42559 11.179709,588.61045 13.802205,585.98796 c 0.461859,-0.46186 7.410105,3.70318 15.440547,9.25563 8.030442,5.55245 21.091877,14.10762 29.025408,19.01149 67.44287,41.68768 158.22456,72.5015 241.5149,81.97682 44.28024,5.03744 113.91195,6.52536 136.54752,2.91782 6.59983,-1.05185 16.52144,-2.59239 22.04802,-3.42342 12.56042,-1.8887 19.35474,-5.52121 39.84248,-21.30139 55.35483,-42.63571 91.15241,-66.15712 160.49505,-105.45603 57.33221,-32.49217 64.87361,-36.30752 110.668,-55.98926 41.91293,-18.01354 55.28479,-26.8759 61.5886,-40.81855 5.0203,-11.10384 4.41756,-29.40064 -1.82575,-55.42229 -6.70711,-27.95476 -7.88351,-37.10239 -7.88351,-61.30146 0,-64.46757 23.79667,-99.46378 89.51241,-131.64004 31.81427,-15.57715 54.29481,-22.73418 94.25782,-30.00842 45.8099,-8.33853 55.7132,-9.35943 91.9303,-9.47693 36.3265,-0.11785 38.2794,0.0945 68.5044,7.44959 23.7104,5.76978 36.9606,13.0571 55.443,30.49243 33.8282,31.91181 47.417,73.33425 50.3526,153.48846 0.7684,20.9827 0.6191,23.73231 -1.3788,25.39039 -1.5251,1.26579 -10.2802,2.44362 -27.4226,3.68913 -48.9522,3.55676 -84.1741,8.49893 -140.7935,19.75546 l -34.9523,6.94889 h -32.9358 c -30.4119,0 -33.7599,-0.23801 -43.69032,-3.10606 -13.80355,-3.98667 -34.33471,-13.70281 -42.23175,-19.9857 -9.67468,-7.69721 -18.93475,-16.96302 -18.93475,-18.94649 0,-0.99536 1.87019,-4.13696 4.15596,-6.9813 5.22452,-6.50121 4.80664,-9.97769 -1.26948,-10.56121 -5.45284,-0.52367 -12.78693,4.18135 -17.59729,11.28914 -5.92733,8.75821 -5.01832,30.14332 1.28128,30.14332 2.52352,0 3.09283,-1.10737 4.72231,-9.18522 l 0.90372,-4.4801 3.08155,2.89496 c 3.76272,3.5349 5.50592,10.02746 7.40346,27.57434 0.79957,7.39376 2.4894,15.56049 3.75517,18.14831 2.01924,4.12826 2.89223,4.68872 7.12065,4.57146 2.65059,-0.0735 9.81037,-2.03957 15.9106,-4.36904 6.10024,-2.32946 12.23559,-4.23538 13.63412,-4.23538 3.08915,0 5.6121,3.81257 8.54581,12.91402 1.21699,3.77552 3.67181,8.23535 5.45516,9.91072 5.12807,4.81757 9.85785,2.91098 25.1409,-10.1344 3.8459,-3.28281 7.5064,-5.96875 8.1344,-5.96875 0.628,0 5.2507,3.85908 10.2727,8.57573 5.022,4.71665 10.4197,8.98477 11.9949,9.48471 4.188,1.32921 7.9961,-1.17257 17.5258,-11.51359 4.681,-5.07951 8.9897,-9.23548 9.575,-9.23548 0.5852,0 4.922,3.09175 9.6374,6.87057 15.0143,12.03232 17.2615,11.91417 31.6046,-1.66168 l 9.9958,-9.46099 5.6677,3.53135 c 9.5303,5.93793 17.1775,9.05728 20.2894,8.27623 1.6259,-0.40805 7.0824,-4.99722 12.1256,-10.19813 5.0431,-5.20093 9.5573,-9.45494 10.0315,-9.45339 0.4742,0.002 6.3066,3.62995 12.961,8.06308 6.6544,4.43313 13.4095,8.06152 15.0114,8.06308 1.9087,0.002 6.1688,-3.53111 12.3613,-10.25163 9.4024,-10.204 12.5365,-11.6329 14.4691,-6.5966 2.2785,5.93755 -20.5225,31.42456 -36.4645,40.76016 -19.9714,11.69521 -35.7527,14.8706 -98.5029,19.81999 -24.1972,1.90855 -48.0087,4.29715 -52.9145,5.30801 -24.1636,4.979 -48.31888,19.79937 -62.43072,38.30404 l -4.90105,6.42667 -9.79159,0.62839 c -10.96655,0.70379 -17.01707,3.54828 -27.84604,13.09106 -12.52674,11.03891 -29.23082,36.03239 -35.48492,53.0943 l -2.98023,8.13043 -3.44507,-8.06591 c -6.20075,-14.51777 -9.67301,-20.14134 -12.71591,-20.59436 -4.00068,-0.59561 -3.77891,2.74354 1.16165,17.49011 9.76275,29.13988 22.34404,49.08671 45.64661,72.36972 28.25411,28.2304 55.33389,42.81438 91.06997,49.04622 16.7572,2.92222 16.7806,2.91704 26.2187,-5.80626 9.9828,-9.22673 17.0178,-14.31754 18.1797,-13.15562 0.4597,0.45962 -0.1801,2.96592 -1.4217,5.56953 -2.5635,5.37582 -2.9659,12.11197 -0.8033,13.44853 0.7997,0.49427 5.7905,1.31006 11.0906,1.81286 l 9.6366,0.91417 -6.3079,3.92317 c -6.767,4.20867 -9.9937,8.64155 -8.7153,11.97299 0.4365,1.13761 3.9339,4.32443 7.772,7.0818 3.8381,2.75738 6.2913,5.2424 5.4517,5.52227 -0.8396,0.27988 -5.7336,-0.14388 -10.8756,-0.94169 -19.2238,-2.98267 -24.6545,-1.49333 -29.1676,7.99908 l -2.8574,6.01003 -2.0237,-4.8222 c -1.113,-2.65222 -2.4323,-6.10963 -2.9317,-7.68315 -1.1306,-3.56232 -3.6592,-3.9732 -29.65933,-4.81957 -34.00059,-1.10679 -62.65423,-8.30376 -94.77446,-23.8046 -9.24219,-4.46018 -22.727,-12.05227 -29.96624,-16.87132 -15.4861,-10.30887 -37.72682,-31.68969 -52.58605,-50.55289 -10.53074,-13.36837 -14.23866,-15.89248 -14.23866,-9.69275 0,8.29675 13.613,27.62676 34.75051,49.34457 l 14.05984,14.44584 -13.85246,22.98529 c -15.83037,26.26722 -25.30552,39.69925 -26.81474,38.01276 -0.57326,-0.64059 -1.75357,-5.64307 -2.62293,-11.11663 -3.19328,-20.10521 -14.44513,-41.624 -29.59407,-56.5976 -15.30133,-15.12424 -25.61258,-18.56711 -26.76315,-8.93606 -0.35637,2.98299 1.95224,5.89419 14.28421,18.01271 16.34337,16.06048 22.69835,26.32865 26.63164,43.03046 3.12757,13.28052 1.91625,36.73938 -2.56668,49.70743 -6.86175,19.84935 -15.6162,31.19244 -48.2405,62.50494 -29.34017,28.16041 -40.14271,40.8008 -43.49565,50.89554 -3.4062,10.25511 -2.13625,39.48903 2.60471,59.95994 4.05216,17.49674 4.34619,22.65104 1.35758,23.79784 -4.14574,1.5909 -54.81294,0.6445 -63.20105,-1.1805 z M 623.8348,711.12043 c 16.32538,-5.55263 27.27569,-14.41916 33.00565,-26.72489 2.53374,-5.44154 3.19645,-9.12158 3.20687,-17.80796 0.0263,-21.94396 -8.61589,-37.60907 -25.25655,-45.78075 -7.16163,-3.51683 -8.77198,-3.76366 -24.47011,-3.75078 -14.95873,0.0123 -17.44604,0.35491 -22.65097,3.12021 -8.61213,4.5755 -17.08806,12.96753 -20.97479,20.76719 -2.91829,5.85624 -3.42539,8.68934 -3.42539,19.13695 0,7.04182 0.86737,15.18385 2.03718,19.12301 3.91332,13.17762 19.05054,28.9797 32.24294,33.65916 6.78535,2.40682 15.85386,1.80577 26.28517,-1.74214 z m -81.58476,-14.60047 c 10.51018,-4.39143 13.71193,-16.41533 6.33537,-23.79189 -3.42026,-3.42025 -4.91865,-3.92955 -11.56114,-3.92955 -6.88664,0 -8.07776,0.44617 -12.20227,4.57069 -6.60983,6.60982 -6.06146,12.77734 1.89452,21.30745 3.89318,4.17413 8.61423,4.73436 15.53352,1.8433 z M 703.63131,663.3181 c 4.77532,-5.67515 4.5524,-10.85461 -0.65581,-15.23702 -5.86228,-4.93278 -11.15489,-4.58999 -16.83527,1.09039 -5.51107,5.51107 -5.92019,10.33384 -1.27098,14.98304 2.51614,2.51616 4.72229,3.29969 9.29072,3.29969 5.03958,0 6.54375,-0.65686 9.47134,-4.1361 z m 57.27401,-21.20647 c 14.0498,-7.46606 14.61754,-28.20036 0.99956,-36.50334 -5.64644,-3.44268 -10.81567,-3.38567 -18.2247,0.20099 -7.25958,3.5143 -13.71516,12.84614 -13.71516,19.8259 0,5.47103 5.44378,14.14237 10.65882,16.9783 4.9197,2.67533 14.76085,2.43182 20.28148,-0.50185 z m -54.14871,-24.82336 c 10.65078,-7.381 15.79924,-22.92171 11.96415,-36.11397 -6.16131,-21.19415 -35.4428,-26.89022 -50.43801,-9.8116 -8.29184,9.44388 -10.04111,17.68143 -6.16831,29.04747 2.72837,8.00735 9.26867,15.7191 15.99922,18.8649 8.25274,3.85726 21.53991,2.93561 28.64295,-1.9868 z M 774.43202,582.572 c 11.98677,-3.59133 20.06029,-15.0648 20.06029,-28.50817 0,-9.34468 -2.18213,-14.89508 -8.20334,-20.86567 -6.17229,-6.12041 -11.67308,-8.24173 -21.37167,-8.24173 -13.68258,0 -21.77446,4.79909 -27.6916,16.42322 -4.12426,8.10206 -4.13182,15.88894 -0.0238,24.5785 7.27216,15.38266 20.95689,21.48944 37.23014,16.61385 z M 1032.0365,305.15465 c 13.9764,-4.15057 23.6511,-18.4494 23.6449,-34.9466 0,-10.77142 -2.1304,-16.78653 -8.4978,-24.03863 -12.0041,-13.67186 -34.6864,-15.25542 -50.60862,-3.53321 -7.54295,5.55327 -11.45273,13.95604 -12.24613,26.31902 -0.78604,12.24813 2.22572,19.26566 12.06504,28.11206 10.45881,9.40334 22.22281,12.07262 35.64261,8.08736 z"
     id="path3"
     transform="matrix(0.75000152,0,0,0.75000152,0,-0.00312134)" />
  <path
     style="fill:#e73427;stroke-width:1.34432;fill-opacity:1"
     d="m 639.01779,1011.6196 c -9.74886,-2.5557 -19.78385,-6.9714 -21.25603,-9.3534 -0.44397,-0.7184 -1.37868,-17.24358 -2.07712,-36.72261 -2.15639,-60.14099 -7.84012,-87.96299 -24.99432,-122.34793 -5.70099,-11.42741 -10.62101,-17.11186 -14.8107,-17.11186 -5.61284,0 -4.91582,4.3872 4.94547,31.12813 5.27453,14.30297 9.91882,29.18137 10.32065,33.06309 0.66681,6.44146 0.49173,7.05767 -2.00534,7.05767 -7.41984,0 -60.96489,-26.14209 -82.33227,-40.19675 C 488.40674,845.03219 458.82775,829.85225 440.93651,823.33061 423.96895,817.14566 383.8702,805.78701 336.1196,793.63943 285.03134,780.64277 277.19357,778.34078 248.76388,767.98269 205.48046,752.21278 151.03804,727.08776 120.00218,708.55954 100.05758,696.65272 86.299104,685.33848 61.112486,660.13171 38.320437,637.32144 29.353831,625.54219 20.23374,606.43015 c -4.905058,-10.27902 -8.096766,-20.97938 -6.257739,-20.97938 0.45762,0 10.875006,6.71967 23.149748,14.93261 38.561665,25.80132 73.645901,43.8387 117.618801,60.46975 46.51081,17.59091 102.86851,31.04883 151.08794,36.07897 37.51181,3.91315 105.18292,5.46435 124.34947,2.8504 43.04411,-5.87037 42.44108,-5.65246 65.97409,-23.84261 58.75168,-45.4129 95.84067,-69.59498 175.33111,-114.31618 40.48067,-22.77437 56.48364,-30.90462 82.6756,-42.00303 35.01572,-14.83733 58.8678,-27.07127 66.95356,-34.34105 10.09369,-9.07511 13.00038,-16.79504 12.89976,-34.26073 -0.0654,-11.34536 -1.02583,-18.07247 -4.89426,-34.28012 -6.68919,-28.02582 -7.85835,-37.14627 -7.85835,-61.30146 0,-65.0556 23.55024,-99.35414 90.85673,-132.32357 33.51398,-16.4165 57.83381,-23.4879 112.7878,-32.79496 43.3696,-7.3451 91.5088,-8.75125 119.1072,-3.47913 39.2883,7.50524 54.9642,14.72474 76.8962,35.41429 33.8073,31.89212 47.5091,73.64367 50.3708,153.48855 0.7456,20.80499 0.5885,23.74251 -1.3562,25.3565 -1.4938,1.23969 -12.2347,2.61061 -33.472,4.27221 -48.8651,3.82318 -81.9106,8.57899 -140.8343,20.26845 l -34.2801,6.80058 -30.9194,-0.58585 c -36.04842,-0.68305 -41.64404,-1.85051 -65.87158,-13.7433 -11.3133,-5.55347 -17.23524,-9.51443 -25.20597,-16.85932 -5.73016,-5.28024 -10.39388,-10.61014 -10.36384,-11.84423 0.0301,-1.23407 1.84488,-4.33822 4.03296,-6.89811 6.60105,-7.72272 4.71335,-11.99903 -4.53118,-10.26475 -5.4602,1.02434 -12.5695,7.71113 -15.86175,14.91909 -4.14196,9.0683 -2.82376,23.80412 2.3055,25.77239 2.6978,1.03524 4.05798,-1.07117 5.16598,-8.00022 l 0.86073,-5.38265 3.3295,3.12791 c 4.04928,3.8041 5.35499,8.59601 7.22953,26.53234 1.56783,15.00159 4.02491,22.67569 7.71345,24.09111 1.36678,0.52448 8.75549,-1.29449 17.60958,-4.33517 11.70018,-4.01809 15.78403,-4.90495 17.52622,-3.806 1.24931,0.78804 3.78759,5.396 5.64062,10.2399 3.55374,9.28966 7.24908,14.43598 10.36584,14.43598 3.27905,0 10.21561,-4.20441 19.17371,-11.62166 4.7819,-3.95934 9.183,-7.1988 9.7802,-7.1988 0.5973,0 4.913,3.56032 9.5906,7.91182 9.8744,9.18617 13.4361,11.35798 16.8497,10.27456 1.3569,-0.43068 6.7921,-5.30374 12.0782,-10.82903 5.2862,-5.5253 10.1471,-10.04598 10.8021,-10.04598 0.655,0 4.5675,2.75062 8.6946,6.11248 9.6544,7.86441 15.6609,10.4393 20.2669,8.6881 1.9002,-0.72246 7.7015,-5.30196 12.8918,-10.17665 l 9.4369,-8.8631 5.6568,3.52488 c 9.5945,5.97854 17.1619,9.05201 20.3299,8.25689 1.654,-0.41513 7.0948,-5.04981 12.0906,-10.29926 5.7022,-5.99171 9.8025,-9.2685 11.0153,-8.8031 1.0626,0.40775 5.3983,3.08806 9.635,5.95626 11.0669,7.49216 16.2122,9.89031 19.1912,8.94481 1.4386,-0.45659 6.3712,-5.02483 10.9613,-10.15165 4.5902,-5.12682 9.0558,-9.32149 9.9236,-9.32149 0.8679,0 2.3774,0.96337 3.3546,2.14083 2.8325,3.4129 -3.0916,12.92959 -16.2358,26.08197 -13.0636,13.07177 -22.1694,18.89022 -37.9611,24.25647 -15.7511,5.35246 -30.799,7.52016 -78.9938,11.37932 -44.3085,3.54797 -54.1004,4.79352 -65.1995,8.29344 -18.1362,5.71901 -39.33378,20.2304 -50.57329,34.62138 -5.82524,7.4586 -5.88732,7.49396 -13.2641,7.55268 -9.37339,0.0746 -15.46329,2.25439 -24.18468,8.6565 -14.00802,10.28282 -32.95065,36.50293 -40.06773,55.46114 -2.00936,5.35246 -3.95586,9.73612 -4.32554,9.74146 -0.36969,0.005 -2.65654,-5.04187 -5.08188,-11.21603 -4.71833,-12.01134 -9.94657,-18.63634 -12.60738,-15.97553 -1.13287,1.13287 -1.08149,3.17259 0.20106,7.98088 14.81412,55.53823 61.81075,106.19942 114.9513,123.91464 11.211,3.73735 32.53074,8.22392 39.12694,8.23394 1.5686,0.002 6.6624,-3.47234 11.4267,-7.79471 10.2451,-9.29475 17.1886,-14.30408 18.2944,-13.19831 0.4428,0.44282 -0.2463,3.13662 -1.5313,5.98626 -1.285,2.84961 -2.1358,6.91524 -1.8907,9.03469 0.5166,4.46821 3.3601,5.63607 14.2248,5.84236 7.1661,0.13605 9.333,1.91931 4.2807,3.52282 -4.3395,1.37732 -12.0105,8.71865 -12.0105,11.4944 0,1.46596 3.083,4.83354 7.4294,8.11506 4.0862,3.08509 7.1792,5.85937 6.8735,6.1651 -0.3057,0.30571 -6.9091,-0.18267 -14.6743,-1.08531 -17.6465,-2.05126 -21.1905,-0.943 -25.7644,8.05704 l -3.1377,6.17397 -2.0071,-4.80374 c -1.104,-2.64205 -2.3996,-6.04013 -2.8792,-7.55126 -1.1069,-3.48761 -5.6851,-4.41203 -21.8504,-4.41203 -45.75492,0 -93.19335,-14.83204 -133.35184,-41.69361 -14.64978,-9.79909 -37.11276,-31.46563 -51.89613,-50.05614 -10.7566,-13.52673 -14.16237,-15.81584 -14.16237,-9.51893 0,8.10694 14.34318,28.17999 36.04109,50.43894 l 12.69709,13.02539 -8.46387,14.53315 c -10.5684,18.14679 -27.251,43.68387 -30.06063,46.01566 -2.51882,2.09044 -2.29794,2.63188 -5.43983,-13.33423 -2.76711,-14.06164 -12.6298,-34.98988 -21.85664,-46.37899 -7.11992,-8.78843 -21.3627,-20.31284 -26.78669,-21.67418 -4.55555,-1.14337 -7.85754,2.12559 -6.72103,6.65381 0.4632,1.84552 7.11491,9.60975 14.7816,17.25385 20.70591,20.64489 27.70722,36.39007 27.6998,62.29381 -0.006,20.32317 -4.58132,35.8158 -15.58029,52.75495 -2.78553,4.28988 -19.49702,22.11955 -37.49427,40.00304 -33.61649,33.40396 -41.05754,42.50418 -43.78793,53.55154 -2.45176,9.91994 -0.81896,37.43049 3.35065,56.45405 4.05531,18.50212 4.31538,23.14812 1.35926,24.28242 -1.16953,0.4488 -14.32705,0.7827 -29.23893,0.742 -22.02234,-0.06 -28.91781,-0.5473 -36.72845,-2.5948 z M 619.82298,712.33772 c 11.81265,-3.50679 21.70381,-9.19399 28.35273,-16.30221 10.1982,-10.90272 11.21258,-13.67084 11.21258,-30.59778 0,-13.16805 -0.38796,-15.61491 -3.54251,-22.34259 -4.80175,-10.24073 -11.98558,-17.83438 -21.11157,-22.31598 -7.03972,-3.45707 -8.8176,-3.73657 -23.74139,-3.73248 -13.62609,0.004 -17.09703,0.45002 -22.3458,2.87324 -8.04029,3.71198 -16.52148,11.43218 -21.08287,19.19115 -3.39018,5.76674 -3.62248,7.19633 -3.62248,22.2937 0,14.27215 0.3687,16.88073 3.19831,22.62822 4.93756,10.02912 16.98889,22.20577 26.3767,26.65098 9.26338,4.38628 15.73198,4.79293 26.3063,1.65375 z m -77.57294,-15.81776 c 10.51018,-4.39143 13.71193,-16.41533 6.33537,-23.79189 -3.3906,-3.3906 -4.94365,-3.92955 -11.32356,-3.92955 -12.17451,0 -19.02021,7.9856 -15.63607,18.23966 1.82668,5.53487 8.42126,11.33535 12.88719,11.33535 1.81547,0 5.29714,-0.83411 7.73707,-1.85357 z m 160.96141,-33.24089 c 4.9686,-5.3189 4.95976,-9.75959 -0.0294,-14.74873 -5.52265,-5.52266 -11.08739,-5.3133 -17.04182,0.64113 -5.51107,5.51107 -5.92019,10.33384 -1.27098,14.98304 5.01109,5.01111 13.20884,4.61985 18.3422,-0.87544 z m 57.16012,-20.8605 c 6.53785,-3.10241 10.31422,-9.05005 10.91275,-17.18722 1.30879,-17.79327 -15.38224,-27.74759 -29.9944,-17.88825 -6.18799,4.17526 -11.3249,12.26284 -11.3249,17.83 0,5.02364 5.95526,14.89123 10.46393,17.33828 4.86993,2.6431 14.26932,2.59936 19.94262,-0.0928 z m -58.93014,-22.75899 c 13.44077,-5.61454 21.11404,-21.29925 17.75429,-36.29107 -1.9825,-8.84637 -6.97706,-15.01662 -15.28759,-18.88621 -15.87432,-7.39149 -33.25411,-1.05319 -40.64717,14.82377 -3.7097,7.96676 -3.97278,12.80948 -1.14652,21.1041 5.82282,17.08903 23.63142,25.80582 39.32699,19.24941 z m 76.35291,-38.75863 c 3.7552,-1.74857 8.10435,-4.80231 9.66478,-6.7861 8.15807,-10.37128 9.34963,-27.30116 2.54907,-36.21715 -6.65677,-8.72748 -12.39843,-12.1039 -21.57673,-12.68832 -15.75512,-1.00322 -24.74904,3.69422 -30.96817,16.17437 -5.66881,11.37584 -3.92732,22.18167 5.34536,33.16768 8.10384,9.60121 22.42189,12.19978 34.98569,6.34952 z M 1036.514,303.12124 c 21.6407,-11.04026 25.8917,-44.19152 7.6671,-59.79111 -17.6276,-15.08861 -47.13665,-9.38075 -56.804,10.98747 -3.42403,7.21411 -4.16694,22.55603 -1.40562,29.0275 4.35753,10.21232 15.61152,19.65986 26.97262,22.64314 5.9958,1.57443 17.6404,0.158 23.5699,-2.867 z"
     id="path4"
     transform="matrix(0.75000152,0,0,0.75000152,0,-0.00312134)" />
  <path
     style="fill:#e73427;fill-opacity:1;stroke-width:1.34432"
     d="m 971.27022,673.27744 c -3.69688,-0.22756 -10.50249,-0.77161 -15.12359,-1.20901 l -8.40199,-0.79527 0.0233,-10.98363 c 0.0128,-6.04099 0.85985,-14.91576 1.88225,-19.7217 2.00887,-9.44298 7.1489,-25.62254 8.63059,-27.16701 0.50274,-0.52403 8.18466,1.37562 17.07093,4.22146 25.63579,8.20988 38.81699,10.11845 69.18389,10.01748 21.2394,-0.0706 28.8646,-0.63094 40.1803,-2.95255 7.6814,-1.57597 14.1029,-3.03339 14.2702,-3.2387 0.1672,-0.20531 1.3772,-3.70049 2.6889,-7.76705 4.9192,-15.2512 15.9917,-33.60797 20.2719,-33.60797 2.4836,0 2.4073,3.41983 -0.2505,11.21996 -2.4566,7.20965 -1.633,12.99354 1.8435,12.94587 1.2798,-0.0176 5.9566,-1.56774 10.3929,-3.44487 12.0933,-5.1171 18.5019,-7.37229 19.139,-6.7351 1.0021,1.00206 -2.2719,6.01805 -8.5194,13.05245 -6.766,7.61819 -7.2819,11.52364 -1.8816,14.24602 1.8485,0.93183 6.1602,1.70315 9.5818,1.71405 3.7709,0.012 6.8574,0.78687 7.8373,1.96749 1.3581,1.63642 0.3639,2.28126 -6.2209,4.03508 -15.1353,4.03115 -21.3259,6.48371 -26.3217,10.42792 -4.2569,3.36077 -5.0412,4.78202 -5.0412,9.1344 0,5.75624 -1.0668,9.40721 -2.7486,9.40721 -0.6141,0 -2.7708,-3.03931 -4.7926,-6.75403 -5.2093,-9.57125 -7.213,-9.70382 -24.4577,-1.6182 -16.6357,7.80013 -39.4626,15.19414 -58.8839,19.07347 -11.4992,2.29694 -48.0039,5.91093 -52.28721,5.17647 -0.73938,-0.12678 -4.36904,-0.41669 -8.06591,-0.64424 z"
     id="path5"
     transform="matrix(0.75000152,0,0,0.75000152,0,-0.00312134)" />
  <path
     style="fill:#e73427;fill-opacity:1;stroke-width:1.34432"
     d="m 768.2781,997.58648 c -3.69687,-0.92717 -8.89604,-2.62038 -11.5537,-3.76267 l -4.8321,-2.07689 -0.83318,-11.91876 c -0.45825,-6.5553 -2.30801,-19.48053 -4.11058,-28.72272 -1.80256,-9.24219 -3.48779,-19.76088 -3.74494,-23.37487 l -0.46755,-6.57088 14.11534,-5.22572 c 7.76344,-2.87415 22.28208,-9.17984 32.26365,-14.01266 51.76718,-25.06435 85.91223,-57.91795 116.95572,-112.53213 4.06657,-7.15423 7.76831,-13.01612 8.2261,-13.02642 0.45778,-0.0103 1.20731,2.24979 1.6656,5.02245 2.05174,12.41293 0.3927,23.10757 -7.35103,47.38723 -8.32475,26.10134 -15.6508,36.63424 -49.55646,71.24889 -28.64122,29.24014 -31.31664,33.7842 -32.08317,54.49173 -0.39887,10.77505 0.0955,15.96265 2.34981,24.65956 3.12767,12.06606 2.48626,15.75051 -2.94053,16.89123 -16.8236,3.53636 -46.92812,4.32525 -58.10298,1.52263 z"
     id="path7"
     transform="matrix(0.75000152,0,0,0.75000152,0,-0.00312134)" />
</svg>
